<svg width="22" height="22" viewBox="0 0 22 22" fill="none" xmlns="http://www.w3.org/2000/svg">
<g clip-path="url(#clip0_53_91)">
<path d="M13.9305 14.3608C14.0307 14.4237 14.1467 14.4568 14.265 14.456C14.3799 14.4551 14.4925 14.4239 14.5917 14.3658C14.6918 14.3086 14.7757 14.2269 14.8353 14.1282C14.8804 14.0541 14.9097 13.9715 14.9217 13.8856C14.9343 13.7994 14.93 13.7116 14.909 13.6271C14.8862 13.5439 14.8489 13.4654 14.799 13.395C14.7472 13.3263 14.6819 13.2688 14.6071 13.2261L11.8795 11.5949C11.7264 11.4872 11.5995 11.3464 11.5083 11.1829C11.4161 11.0208 11.3598 10.8407 11.3433 10.6549V7.04894C11.3424 6.87437 11.2724 6.70727 11.1486 6.5842C11.0879 6.5224 11.0155 6.47335 10.9356 6.43985C10.8557 6.40634 10.7699 6.38909 10.6833 6.38909C10.5966 6.38909 10.5109 6.40634 10.431 6.43985C10.3511 6.47335 10.2787 6.5224 10.2179 6.5842C10.0943 6.70736 10.0245 6.87445 10.0238 7.04894V10.6549C10.0391 11.07 10.1543 11.4752 10.3594 11.8363C10.5646 12.1975 10.8538 12.5039 11.2025 12.7296L13.9305 14.3608Z" fill="#D2F200"/>
<path fill-rule="evenodd" clip-rule="evenodd" d="M4.98552 18.3175C6.68219 19.7059 8.80788 20.463 11.0002 20.4596C12.2426 20.4588 13.4726 20.2131 14.6199 19.7366C15.7673 19.2601 16.8094 18.5621 17.6867 17.6825C19.2365 16.1318 20.2004 14.0915 20.4143 11.9096C20.6281 9.72773 20.0786 7.53925 18.8595 5.71714C17.6403 3.89503 15.8269 2.55203 13.7285 1.91727C11.63 1.28251 9.37639 1.39517 7.3517 2.23605C5.32702 3.07694 3.65662 4.59398 2.62527 6.5286C1.59392 8.46322 1.26545 10.6957 1.69585 12.8454C2.12624 14.9951 3.28886 16.9291 4.98552 18.3175ZM5.82795 4.70359C7.2867 3.50881 9.11466 2.857 11.0002 2.85911V2.8579C13.1581 2.86169 15.2265 3.72024 16.7528 5.24555C18.0862 6.57883 18.9158 8.33324 19.1004 10.2098C19.285 12.0863 18.8131 13.9688 17.7651 15.5363C16.7171 17.1038 15.1579 18.2594 13.3533 18.806C11.5487 19.3526 9.61036 19.2565 7.8687 18.534C6.12704 17.8114 4.68987 16.5072 3.80216 14.8437C2.91445 13.1801 2.63117 11.2603 3.00057 9.41121C3.36997 7.56216 4.3692 5.89837 5.82795 4.70359Z" fill="#D2F200"/>
</g>
<defs>
<clipPath id="clip0_53_91">
<rect width="22" height="22" fill="white"/>
</clipPath>
</defs>
</svg>
