<svg xmlns="http://www.w3.org/2000/svg" xmlns:xlink="http://www.w3.org/1999/xlink" width="150" zoomAndPan="magnify" viewBox="0 0 112.5 112.499997" height="150" preserveAspectRatio="xMidYMid meet" version="1.0"><defs><g/><clipPath id="1f4dd3c1c7"><path d="M 0 0 L 112.003906 0 L 112.003906 112.003906 L 0 112.003906 Z M 0 0 " clip-rule="nonzero"/></clipPath><clipPath id="24c4e3515a"><path d="M 5.25 0 L 107.25 0 C 110.148438 0 112.5 2.351562 112.5 5.25 L 112.5 107.25 C 112.5 110.148438 110.148438 112.5 107.25 112.5 L 5.25 112.5 C 2.351562 112.5 0 110.148438 0 107.25 L 0 5.25 C 0 2.351562 2.351562 0 5.25 0 " clip-rule="nonzero"/></clipPath><clipPath id="4b1f90807c"><path d="M 34.363281 22.09375 L 77.863281 22.09375 L 77.863281 67.09375 L 34.363281 67.09375 Z M 34.363281 22.09375 " clip-rule="nonzero"/></clipPath></defs><g clip-path="url(#1f4dd3c1c7)"><g clip-path="url(#24c4e3515a)"><path fill="#545454" d="M 0 0 L 112.324219 0 L 112.324219 112.324219 L 0 112.324219 Z M 0 0 " fill-opacity="1" fill-rule="nonzero"/></g></g><g clip-path="url(#4b1f90807c)"><path fill="#ffffff" d="M 56.175781 67.027344 C 55.914062 67.027344 55.660156 66.988281 55.414062 66.90625 L 40.953125 62.054688 C 40.515625 61.910156 40.152344 61.660156 39.859375 61.304688 C 39.566406 60.949219 39.390625 60.542969 39.328125 60.085938 L 34.507812 24.925781 C 34.457031 24.578125 34.484375 24.234375 34.582031 23.898438 C 34.683594 23.5625 34.847656 23.261719 35.074219 23 C 35.304688 22.734375 35.578125 22.527344 35.894531 22.382812 C 36.210938 22.238281 36.546875 22.164062 36.894531 22.164062 L 75.453125 22.164062 C 75.800781 22.164062 76.132812 22.238281 76.453125 22.382812 C 76.769531 22.527344 77.042969 22.734375 77.269531 22.996094 C 77.5 23.261719 77.664062 23.5625 77.761719 23.898438 C 77.863281 24.234375 77.886719 24.574219 77.839844 24.921875 L 73.019531 60.082031 C 72.957031 60.539062 72.78125 60.945312 72.488281 61.300781 C 72.195312 61.65625 71.832031 61.910156 71.394531 62.054688 L 56.933594 66.90625 C 56.6875 66.988281 56.433594 67.027344 56.175781 67.027344 Z M 43.898438 57.933594 L 56.175781 62.046875 L 68.449219 57.921875 L 72.6875 27.015625 L 39.664062 27.015625 Z M 43.898438 57.933594 " fill-opacity="1" fill-rule="nonzero"/></g><path fill="#ffffff" d="M 56.175781 56.71875 C 55.9375 56.71875 55.707031 56.6875 55.480469 56.617188 L 49.457031 54.800781 C 49.03125 54.671875 48.667969 54.441406 48.367188 54.109375 C 48.066406 53.777344 47.875 53.390625 47.785156 52.953125 L 47.546875 51.742188 C 47.484375 51.433594 47.480469 51.128906 47.539062 50.824219 C 47.597656 50.515625 47.707031 50.230469 47.871094 49.96875 C 48.039062 49.703125 48.246094 49.480469 48.5 49.300781 C 48.75 49.117188 49.023438 48.988281 49.324219 48.914062 C 49.625 48.835938 49.929688 48.820312 50.238281 48.863281 C 50.542969 48.90625 50.832031 49.003906 51.101562 49.160156 C 51.371094 49.3125 51.601562 49.511719 51.792969 49.753906 C 51.988281 50 52.128906 50.269531 52.214844 50.570312 L 56.175781 51.761719 L 60.03125 50.601562 L 60.625 46.414062 L 53.765625 46.414062 C 53.261719 46.414062 52.804688 46.273438 52.390625 45.988281 C 51.976562 45.703125 51.683594 45.320312 51.503906 44.851562 C 51.324219 44.378906 51.296875 43.898438 51.417969 43.40625 C 51.539062 42.917969 51.785156 42.503906 52.164062 42.171875 L 58.269531 36.714844 L 47.738281 36.714844 C 47.417969 36.714844 47.113281 36.652344 46.816406 36.53125 C 46.519531 36.40625 46.261719 36.230469 46.035156 36.003906 C 45.808594 35.777344 45.632812 35.515625 45.511719 35.21875 C 45.390625 34.921875 45.328125 34.609375 45.328125 34.289062 C 45.328125 33.96875 45.390625 33.660156 45.511719 33.363281 C 45.632812 33.066406 45.808594 32.800781 46.035156 32.574219 C 46.261719 32.347656 46.519531 32.171875 46.816406 32.050781 C 47.113281 31.925781 47.417969 31.863281 47.738281 31.863281 L 64.609375 31.863281 C 65.109375 31.863281 65.566406 32.003906 65.980469 32.292969 C 66.394531 32.578125 66.691406 32.957031 66.871094 33.429688 C 67.046875 33.902344 67.074219 34.382812 66.957031 34.871094 C 66.835938 35.363281 66.585938 35.773438 66.210938 36.109375 L 60.101562 41.5625 L 63.402344 41.5625 C 63.753906 41.5625 64.085938 41.636719 64.40625 41.785156 C 64.722656 41.929688 64.996094 42.136719 65.222656 42.402344 C 65.453125 42.667969 65.617188 42.96875 65.714844 43.304688 C 65.816406 43.640625 65.839844 43.984375 65.789062 44.332031 L 64.585938 52.820312 C 64.519531 53.289062 64.332031 53.699219 64.027344 54.058594 C 63.71875 54.417969 63.339844 54.664062 62.890625 54.800781 L 56.867188 56.617188 C 56.640625 56.6875 56.410156 56.71875 56.175781 56.71875 Z M 56.175781 56.71875 " fill-opacity="1" fill-rule="nonzero"/><g fill="#ffffff" fill-opacity="1"><g transform="translate(43.400389, 87.304437)"><g><path d="M 4.34375 -0.890625 C 4.738281 -0.890625 5.078125 -0.957031 5.359375 -1.09375 C 5.648438 -1.226562 5.882812 -1.410156 6.0625 -1.640625 C 6.25 -1.867188 6.382812 -2.128906 6.46875 -2.421875 C 6.5625 -2.722656 6.609375 -3.035156 6.609375 -3.359375 L 6.609375 -3.53125 L 7.78125 -3.53125 L 7.78125 -3.359375 C 7.78125 -2.867188 7.707031 -2.40625 7.5625 -1.96875 C 7.414062 -1.53125 7.195312 -1.148438 6.90625 -0.828125 C 6.613281 -0.503906 6.253906 -0.25 5.828125 -0.0625 C 5.398438 0.113281 4.90625 0.203125 4.34375 0.203125 C 3.257812 0.203125 2.410156 -0.132812 1.796875 -0.8125 C 1.191406 -1.5 0.890625 -2.5 0.890625 -3.8125 L 0.890625 -5.984375 C 0.890625 -7.253906 1.191406 -8.238281 1.796875 -8.9375 C 2.410156 -9.644531 3.257812 -10 4.34375 -10 C 4.90625 -10 5.398438 -9.90625 5.828125 -9.71875 C 6.253906 -9.539062 6.613281 -9.289062 6.90625 -8.96875 C 7.195312 -8.644531 7.414062 -8.265625 7.5625 -7.828125 C 7.707031 -7.398438 7.78125 -6.9375 7.78125 -6.4375 L 7.78125 -6.265625 L 6.609375 -6.265625 L 6.609375 -6.4375 C 6.597656 -6.757812 6.546875 -7.066406 6.453125 -7.359375 C 6.367188 -7.660156 6.234375 -7.925781 6.046875 -8.15625 C 5.867188 -8.382812 5.640625 -8.566406 5.359375 -8.703125 C 5.078125 -8.835938 4.738281 -8.90625 4.34375 -8.90625 C 3.582031 -8.90625 3.015625 -8.628906 2.640625 -8.078125 C 2.265625 -7.523438 2.078125 -6.800781 2.078125 -5.90625 L 2.078125 -3.890625 C 2.078125 -2.929688 2.265625 -2.191406 2.640625 -1.671875 C 3.015625 -1.148438 3.582031 -0.890625 4.34375 -0.890625 Z M 4.34375 -0.890625 "/></g></g></g><g fill="#ffffff" fill-opacity="1"><g transform="translate(51.963613, 87.304437)"><g><path d="M 6.59375 -6.96875 C 6.59375 -7.289062 6.53125 -7.570312 6.40625 -7.8125 C 6.28125 -8.050781 6.109375 -8.25 5.890625 -8.40625 C 5.679688 -8.570312 5.4375 -8.695312 5.15625 -8.78125 C 4.875 -8.863281 4.578125 -8.90625 4.265625 -8.90625 C 3.992188 -8.90625 3.738281 -8.867188 3.5 -8.796875 C 3.257812 -8.722656 3.039062 -8.617188 2.84375 -8.484375 C 2.65625 -8.359375 2.503906 -8.203125 2.390625 -8.015625 C 2.273438 -7.828125 2.21875 -7.601562 2.21875 -7.34375 L 2.21875 -7.265625 C 2.21875 -6.992188 2.273438 -6.757812 2.390625 -6.5625 C 2.503906 -6.375 2.671875 -6.210938 2.890625 -6.078125 C 3.109375 -5.941406 3.378906 -5.828125 3.703125 -5.734375 C 4.035156 -5.648438 4.421875 -5.578125 4.859375 -5.515625 C 5.878906 -5.359375 6.632812 -5.054688 7.125 -4.609375 C 7.613281 -4.171875 7.859375 -3.578125 7.859375 -2.828125 L 7.859375 -2.65625 C 7.859375 -2.238281 7.785156 -1.851562 7.640625 -1.5 C 7.492188 -1.15625 7.273438 -0.851562 6.984375 -0.59375 C 6.703125 -0.34375 6.351562 -0.144531 5.9375 0 C 5.519531 0.132812 5.035156 0.203125 4.484375 0.203125 C 3.859375 0.203125 3.300781 0.113281 2.8125 -0.0625 C 2.332031 -0.25 1.929688 -0.503906 1.609375 -0.828125 C 1.296875 -1.148438 1.050781 -1.53125 0.875 -1.96875 C 0.707031 -2.40625 0.625 -2.878906 0.625 -3.390625 L 0.625 -3.8125 L 1.8125 -3.8125 L 1.8125 -3.46875 C 1.8125 -2.613281 2.046875 -1.96875 2.515625 -1.53125 C 2.984375 -1.101562 3.640625 -0.890625 4.484375 -0.890625 C 5.210938 -0.890625 5.757812 -1.050781 6.125 -1.375 C 6.488281 -1.695312 6.671875 -2.125 6.671875 -2.65625 L 6.671875 -2.75 C 6.671875 -3.257812 6.484375 -3.648438 6.109375 -3.921875 C 5.734375 -4.191406 5.117188 -4.390625 4.265625 -4.515625 C 3.773438 -4.578125 3.332031 -4.675781 2.9375 -4.8125 C 2.539062 -4.945312 2.203125 -5.125 1.921875 -5.34375 C 1.640625 -5.5625 1.421875 -5.820312 1.265625 -6.125 C 1.117188 -6.4375 1.046875 -6.800781 1.046875 -7.21875 L 1.046875 -7.390625 C 1.046875 -7.773438 1.125 -8.125 1.28125 -8.4375 C 1.445312 -8.757812 1.671875 -9.035156 1.953125 -9.265625 C 2.234375 -9.503906 2.570312 -9.6875 2.96875 -9.8125 C 3.363281 -9.9375 3.800781 -10 4.28125 -10 C 4.832031 -10 5.320312 -9.914062 5.75 -9.75 C 6.1875 -9.59375 6.554688 -9.378906 6.859375 -9.109375 C 7.160156 -8.847656 7.382812 -8.535156 7.53125 -8.171875 C 7.6875 -7.816406 7.765625 -7.445312 7.765625 -7.0625 L 7.765625 -6.46875 L 6.59375 -6.46875 Z M 6.59375 -6.96875 "/></g></g></g><g fill="#ffffff" fill-opacity="1"><g transform="translate(60.526837, 87.304437)"><g><path d="M 6.59375 -6.96875 C 6.59375 -7.289062 6.53125 -7.570312 6.40625 -7.8125 C 6.28125 -8.050781 6.109375 -8.25 5.890625 -8.40625 C 5.679688 -8.570312 5.4375 -8.695312 5.15625 -8.78125 C 4.875 -8.863281 4.578125 -8.90625 4.265625 -8.90625 C 3.992188 -8.90625 3.738281 -8.867188 3.5 -8.796875 C 3.257812 -8.722656 3.039062 -8.617188 2.84375 -8.484375 C 2.65625 -8.359375 2.503906 -8.203125 2.390625 -8.015625 C 2.273438 -7.828125 2.21875 -7.601562 2.21875 -7.34375 L 2.21875 -7.265625 C 2.21875 -6.992188 2.273438 -6.757812 2.390625 -6.5625 C 2.503906 -6.375 2.671875 -6.210938 2.890625 -6.078125 C 3.109375 -5.941406 3.378906 -5.828125 3.703125 -5.734375 C 4.035156 -5.648438 4.421875 -5.578125 4.859375 -5.515625 C 5.878906 -5.359375 6.632812 -5.054688 7.125 -4.609375 C 7.613281 -4.171875 7.859375 -3.578125 7.859375 -2.828125 L 7.859375 -2.65625 C 7.859375 -2.238281 7.785156 -1.851562 7.640625 -1.5 C 7.492188 -1.15625 7.273438 -0.851562 6.984375 -0.59375 C 6.703125 -0.34375 6.351562 -0.144531 5.9375 0 C 5.519531 0.132812 5.035156 0.203125 4.484375 0.203125 C 3.859375 0.203125 3.300781 0.113281 2.8125 -0.0625 C 2.332031 -0.25 1.929688 -0.503906 1.609375 -0.828125 C 1.296875 -1.148438 1.050781 -1.53125 0.875 -1.96875 C 0.707031 -2.40625 0.625 -2.878906 0.625 -3.390625 L 0.625 -3.8125 L 1.8125 -3.8125 L 1.8125 -3.46875 C 1.8125 -2.613281 2.046875 -1.96875 2.515625 -1.53125 C 2.984375 -1.101562 3.640625 -0.890625 4.484375 -0.890625 C 5.210938 -0.890625 5.757812 -1.050781 6.125 -1.375 C 6.488281 -1.695312 6.671875 -2.125 6.671875 -2.65625 L 6.671875 -2.75 C 6.671875 -3.257812 6.484375 -3.648438 6.109375 -3.921875 C 5.734375 -4.191406 5.117188 -4.390625 4.265625 -4.515625 C 3.773438 -4.578125 3.332031 -4.675781 2.9375 -4.8125 C 2.539062 -4.945312 2.203125 -5.125 1.921875 -5.34375 C 1.640625 -5.5625 1.421875 -5.820312 1.265625 -6.125 C 1.117188 -6.4375 1.046875 -6.800781 1.046875 -7.21875 L 1.046875 -7.390625 C 1.046875 -7.773438 1.125 -8.125 1.28125 -8.4375 C 1.445312 -8.757812 1.671875 -9.035156 1.953125 -9.265625 C 2.234375 -9.503906 2.570312 -9.6875 2.96875 -9.8125 C 3.363281 -9.9375 3.800781 -10 4.28125 -10 C 4.832031 -10 5.320312 -9.914062 5.75 -9.75 C 6.1875 -9.59375 6.554688 -9.378906 6.859375 -9.109375 C 7.160156 -8.847656 7.382812 -8.535156 7.53125 -8.171875 C 7.6875 -7.816406 7.765625 -7.445312 7.765625 -7.0625 L 7.765625 -6.46875 L 6.59375 -6.46875 Z M 6.59375 -6.96875 "/></g></g></g></svg>