<svg xmlns="http://www.w3.org/2000/svg" xmlns:xlink="http://www.w3.org/1999/xlink" width="150" zoomAndPan="magnify" viewBox="0 0 112.5 112.499997" height="150" preserveAspectRatio="xMidYMid meet" version="1.0"><defs><g/><clipPath id="20c3871bcc"><path d="M 0 0 L 112.003906 0 L 112.003906 112.003906 L 0 112.003906 Z M 0 0 " clip-rule="nonzero"/></clipPath><clipPath id="5ce3cb3de7"><path d="M 5.25 0 L 107.25 0 C 110.148438 0 112.5 2.351562 112.5 5.25 L 112.5 107.25 C 112.5 110.148438 110.148438 112.5 107.25 112.5 L 5.25 112.5 C 2.351562 112.5 0 110.148438 0 107.25 L 0 5.25 C 0 2.351562 2.351562 0 5.25 0 " clip-rule="nonzero"/></clipPath><clipPath id="cdc4f60609"><path d="M 33.75 22.09375 L 78.75 22.09375 L 78.75 67.09375 L 33.75 67.09375 Z M 33.75 22.09375 " clip-rule="nonzero"/></clipPath></defs><g clip-path="url(#20c3871bcc)"><g clip-path="url(#5ce3cb3de7)"><path fill="#545454" d="M 0 0 L 112.324219 0 L 112.324219 112.324219 L 0 112.324219 Z M 0 0 " fill-opacity="1" fill-rule="nonzero"/></g></g><g clip-path="url(#cdc4f60609)"><path fill="#ffffff" d="M 33.75 27.09375 L 33.75 62.09375 C 33.75 64.859375 35.988281 67.09375 38.75 67.09375 L 73.75 67.09375 C 76.511719 67.09375 78.75 64.859375 78.75 62.09375 L 78.75 27.09375 C 78.75 24.332031 76.511719 22.09375 73.75 22.09375 L 38.75 22.09375 C 35.988281 22.09375 33.75 24.332031 33.75 27.09375 Z M 60.414062 45.722656 L 55.121094 45.722656 L 55.121094 62.09375 L 50.851562 62.09375 L 50.851562 45.722656 L 45.667969 45.722656 L 45.667969 42.09375 L 60.414062 42.09375 Z M 61.246094 61.160156 L 61.246094 56.78125 C 61.246094 56.78125 63.636719 58.585938 66.503906 58.585938 C 69.375 58.585938 69.261719 56.710938 69.261719 56.453125 C 69.261719 53.730469 61.136719 53.730469 61.136719 47.699219 C 61.136719 39.5 72.976562 42.734375 72.976562 42.734375 L 72.828125 46.632812 C 72.828125 46.632812 70.84375 45.308594 68.601562 45.308594 C 66.359375 45.308594 65.546875 46.375 65.546875 47.515625 C 65.546875 50.457031 73.75 50.164062 73.75 56.085938 C 73.75 65.207031 61.246094 61.160156 61.246094 61.160156 Z M 61.246094 61.160156 " fill-opacity="1" fill-rule="nonzero"/></g><g fill="#ffffff" fill-opacity="1"><g transform="translate(13.435547, 87.304437)"><g><path d="M 0.84375 -9.796875 L 7.734375 -9.796875 L 7.734375 -8.703125 L 4.875 -8.703125 L 4.875 0 L 3.703125 0 L 3.703125 -8.703125 L 0.84375 -8.703125 Z M 0.84375 -9.796875 "/></g></g></g><g fill="#ffffff" fill-opacity="1"><g transform="translate(21.998771, 87.304437)"><g><path d="M 6.265625 -1.265625 L 6.09375 -1.265625 C 5.863281 -0.816406 5.566406 -0.457031 5.203125 -0.1875 C 4.835938 0.0703125 4.378906 0.203125 3.828125 0.203125 C 3.441406 0.203125 3.085938 0.132812 2.765625 0 C 2.441406 -0.125 2.164062 -0.3125 1.9375 -0.5625 C 1.707031 -0.8125 1.53125 -1.125 1.40625 -1.5 C 1.28125 -1.875 1.21875 -2.304688 1.21875 -2.796875 L 1.21875 -6.9375 L 2.3125 -6.9375 L 2.3125 -2.9375 C 2.3125 -2.207031 2.457031 -1.675781 2.75 -1.34375 C 3.050781 -1.007812 3.507812 -0.84375 4.125 -0.84375 C 4.789062 -0.84375 5.3125 -1.066406 5.6875 -1.515625 C 6.070312 -1.972656 6.265625 -2.578125 6.265625 -3.328125 L 6.265625 -6.9375 L 7.34375 -6.9375 L 7.34375 1.703125 C 7.34375 2.023438 7.242188 2.285156 7.046875 2.484375 C 6.847656 2.691406 6.585938 2.796875 6.265625 2.796875 L 2.3125 2.796875 L 2.3125 1.796875 L 5.875 1.796875 C 6.132812 1.796875 6.265625 1.65625 6.265625 1.375 Z M 6.265625 -1.265625 "/></g></g></g><g fill="#ffffff" fill-opacity="1"><g transform="translate(30.561995, 87.304437)"><g><path d="M 2.0625 2.796875 L 0.96875 2.796875 L 0.96875 -6.9375 L 2.0625 -6.9375 L 2.0625 -5.859375 L 2.21875 -5.859375 C 2.46875 -6.273438 2.804688 -6.59375 3.234375 -6.8125 C 3.660156 -7.03125 4.128906 -7.140625 4.640625 -7.140625 C 5.066406 -7.140625 5.46875 -7.054688 5.84375 -6.890625 C 6.226562 -6.734375 6.566406 -6.503906 6.859375 -6.203125 C 7.160156 -5.910156 7.394531 -5.546875 7.5625 -5.109375 C 7.738281 -4.671875 7.828125 -4.171875 7.828125 -3.609375 L 7.828125 -3.328125 C 7.828125 -2.765625 7.742188 -2.257812 7.578125 -1.8125 C 7.410156 -1.375 7.175781 -1.003906 6.875 -0.703125 C 6.582031 -0.410156 6.238281 -0.1875 5.84375 -0.03125 C 5.457031 0.125 5.046875 0.203125 4.609375 0.203125 C 4.378906 0.203125 4.144531 0.175781 3.90625 0.125 C 3.675781 0.0703125 3.457031 -0.00390625 3.25 -0.109375 C 3.039062 -0.222656 2.847656 -0.351562 2.671875 -0.5 C 2.492188 -0.65625 2.34375 -0.84375 2.21875 -1.0625 L 2.0625 -1.0625 Z M 4.375 -0.84375 C 4.71875 -0.84375 5.023438 -0.898438 5.296875 -1.015625 C 5.578125 -1.128906 5.820312 -1.289062 6.03125 -1.5 C 6.25 -1.71875 6.414062 -1.984375 6.53125 -2.296875 C 6.644531 -2.609375 6.703125 -2.953125 6.703125 -3.328125 L 6.703125 -3.609375 C 6.703125 -3.984375 6.644531 -4.320312 6.53125 -4.625 C 6.414062 -4.925781 6.25 -5.1875 6.03125 -5.40625 C 5.820312 -5.625 5.578125 -5.796875 5.296875 -5.921875 C 5.015625 -6.046875 4.707031 -6.109375 4.375 -6.109375 C 4.050781 -6.109375 3.75 -6.039062 3.46875 -5.90625 C 3.1875 -5.78125 2.941406 -5.601562 2.734375 -5.375 C 2.523438 -5.15625 2.359375 -4.890625 2.234375 -4.578125 C 2.117188 -4.265625 2.0625 -3.925781 2.0625 -3.5625 L 2.0625 -3.390625 C 2.0625 -3.003906 2.117188 -2.65625 2.234375 -2.34375 C 2.359375 -2.03125 2.523438 -1.757812 2.734375 -1.53125 C 2.941406 -1.3125 3.1875 -1.140625 3.46875 -1.015625 C 3.75 -0.898438 4.050781 -0.84375 4.375 -0.84375 Z M 4.375 -0.84375 "/></g></g></g><g fill="#ffffff" fill-opacity="1"><g transform="translate(39.125219, 87.304437)"><g><path d="M 2.015625 -3.140625 C 2.046875 -2.441406 2.257812 -1.882812 2.65625 -1.46875 C 3.0625 -1.050781 3.625 -0.84375 4.34375 -0.84375 C 4.664062 -0.84375 4.945312 -0.878906 5.1875 -0.953125 C 5.4375 -1.023438 5.644531 -1.125 5.8125 -1.25 C 5.988281 -1.382812 6.128906 -1.535156 6.234375 -1.703125 C 6.335938 -1.878906 6.425781 -2.066406 6.5 -2.265625 L 7.53125 -1.984375 C 7.332031 -1.335938 6.96875 -0.8125 6.4375 -0.40625 C 5.914062 0 5.207031 0.203125 4.3125 0.203125 C 3.8125 0.203125 3.351562 0.113281 2.9375 -0.0625 C 2.53125 -0.238281 2.175781 -0.484375 1.875 -0.796875 C 1.570312 -1.117188 1.335938 -1.5 1.171875 -1.9375 C 1.003906 -2.375 0.921875 -2.859375 0.921875 -3.390625 L 0.921875 -3.71875 C 0.921875 -4.207031 1.003906 -4.660156 1.171875 -5.078125 C 1.347656 -5.503906 1.585938 -5.867188 1.890625 -6.171875 C 2.203125 -6.472656 2.566406 -6.707031 2.984375 -6.875 C 3.398438 -7.050781 3.851562 -7.140625 4.34375 -7.140625 C 4.90625 -7.140625 5.394531 -7.035156 5.8125 -6.828125 C 6.226562 -6.617188 6.566406 -6.359375 6.828125 -6.046875 C 7.097656 -5.742188 7.296875 -5.410156 7.421875 -5.046875 C 7.546875 -4.679688 7.609375 -4.34375 7.609375 -4.03125 L 7.609375 -3.140625 Z M 4.34375 -6.109375 C 4.03125 -6.109375 3.738281 -6.054688 3.46875 -5.953125 C 3.207031 -5.859375 2.976562 -5.722656 2.78125 -5.546875 C 2.582031 -5.367188 2.414062 -5.160156 2.28125 -4.921875 C 2.15625 -4.679688 2.078125 -4.421875 2.046875 -4.140625 L 6.53125 -4.140625 C 6.507812 -4.441406 6.4375 -4.710938 6.3125 -4.953125 C 6.1875 -5.191406 6.019531 -5.394531 5.8125 -5.5625 C 5.613281 -5.738281 5.382812 -5.875 5.125 -5.96875 C 4.875 -6.0625 4.613281 -6.109375 4.34375 -6.109375 Z M 4.34375 -6.109375 "/></g></g></g><g fill="#ffffff" fill-opacity="1"><g transform="translate(47.688443, 87.304437)"><g><path d="M 2.65625 -5.15625 C 2.65625 -4.8125 2.796875 -4.550781 3.078125 -4.375 C 3.367188 -4.195312 3.890625 -4.082031 4.640625 -4.03125 C 5.453125 -3.96875 6.070312 -3.773438 6.5 -3.453125 C 6.925781 -3.128906 7.140625 -2.660156 7.140625 -2.046875 L 7.140625 -1.953125 C 7.140625 -1.617188 7.070312 -1.316406 6.9375 -1.046875 C 6.800781 -0.785156 6.613281 -0.5625 6.375 -0.375 C 6.132812 -0.1875 5.84375 -0.046875 5.5 0.046875 C 5.164062 0.148438 4.796875 0.203125 4.390625 0.203125 C 3.847656 0.203125 3.382812 0.128906 3 -0.015625 C 2.613281 -0.160156 2.289062 -0.351562 2.03125 -0.59375 C 1.78125 -0.832031 1.585938 -1.101562 1.453125 -1.40625 C 1.328125 -1.707031 1.253906 -2.015625 1.234375 -2.328125 L 2.265625 -2.578125 C 2.316406 -2.046875 2.523438 -1.617188 2.890625 -1.296875 C 3.253906 -0.972656 3.738281 -0.8125 4.34375 -0.8125 C 4.851562 -0.8125 5.265625 -0.910156 5.578125 -1.109375 C 5.890625 -1.304688 6.046875 -1.585938 6.046875 -1.953125 C 6.046875 -2.347656 5.890625 -2.628906 5.578125 -2.796875 C 5.273438 -2.960938 4.78125 -3.070312 4.09375 -3.125 C 3.289062 -3.175781 2.671875 -3.359375 2.234375 -3.671875 C 1.804688 -3.992188 1.59375 -4.457031 1.59375 -5.0625 L 1.59375 -5.15625 C 1.59375 -5.476562 1.660156 -5.765625 1.796875 -6.015625 C 1.941406 -6.265625 2.132812 -6.472656 2.375 -6.640625 C 2.613281 -6.804688 2.878906 -6.929688 3.171875 -7.015625 C 3.472656 -7.097656 3.785156 -7.140625 4.109375 -7.140625 C 4.566406 -7.140625 4.96875 -7.078125 5.3125 -6.953125 C 5.664062 -6.828125 5.957031 -6.660156 6.1875 -6.453125 C 6.414062 -6.253906 6.59375 -6.023438 6.71875 -5.765625 C 6.851562 -5.503906 6.9375 -5.242188 6.96875 -4.984375 L 5.9375 -4.734375 C 5.882812 -5.179688 5.703125 -5.53125 5.390625 -5.78125 C 5.078125 -6.03125 4.671875 -6.15625 4.171875 -6.15625 C 3.972656 -6.15625 3.78125 -6.132812 3.59375 -6.09375 C 3.414062 -6.050781 3.253906 -5.988281 3.109375 -5.90625 C 2.972656 -5.820312 2.863281 -5.71875 2.78125 -5.59375 C 2.695312 -5.46875 2.65625 -5.320312 2.65625 -5.15625 Z M 2.65625 -5.15625 "/></g></g></g><g fill="#ffffff" fill-opacity="1"><g transform="translate(56.251667, 87.304437)"><g><path d="M 7.71875 -2.46875 C 7.644531 -2.082031 7.515625 -1.722656 7.328125 -1.390625 C 7.148438 -1.066406 6.921875 -0.785156 6.640625 -0.546875 C 6.359375 -0.316406 6.03125 -0.132812 5.65625 0 C 5.28125 0.132812 4.863281 0.203125 4.40625 0.203125 C 3.925781 0.203125 3.46875 0.125 3.03125 -0.03125 C 2.59375 -0.195312 2.210938 -0.429688 1.890625 -0.734375 C 1.566406 -1.035156 1.304688 -1.40625 1.109375 -1.84375 C 0.921875 -2.28125 0.828125 -2.785156 0.828125 -3.359375 L 0.828125 -3.53125 C 0.828125 -4.09375 0.921875 -4.597656 1.109375 -5.046875 C 1.304688 -5.492188 1.566406 -5.867188 1.890625 -6.171875 C 2.210938 -6.484375 2.59375 -6.722656 3.03125 -6.890625 C 3.46875 -7.054688 3.925781 -7.140625 4.40625 -7.140625 C 4.84375 -7.140625 5.25 -7.070312 5.625 -6.9375 C 6 -6.8125 6.328125 -6.628906 6.609375 -6.390625 C 6.898438 -6.148438 7.132812 -5.863281 7.3125 -5.53125 C 7.5 -5.207031 7.625 -4.859375 7.6875 -4.484375 L 6.59375 -4.234375 C 6.5625 -4.472656 6.492188 -4.707031 6.390625 -4.9375 C 6.285156 -5.164062 6.140625 -5.363281 5.953125 -5.53125 C 5.773438 -5.707031 5.554688 -5.847656 5.296875 -5.953125 C 5.035156 -6.054688 4.726562 -6.109375 4.375 -6.109375 C 4.039062 -6.109375 3.726562 -6.039062 3.4375 -5.90625 C 3.144531 -5.78125 2.882812 -5.601562 2.65625 -5.375 C 2.4375 -5.15625 2.265625 -4.882812 2.140625 -4.5625 C 2.015625 -4.25 1.953125 -3.90625 1.953125 -3.53125 L 1.953125 -3.359375 C 1.953125 -2.960938 2.015625 -2.609375 2.140625 -2.296875 C 2.265625 -1.984375 2.4375 -1.71875 2.65625 -1.5 C 2.882812 -1.289062 3.144531 -1.128906 3.4375 -1.015625 C 3.738281 -0.898438 4.0625 -0.84375 4.40625 -0.84375 C 4.75 -0.84375 5.050781 -0.894531 5.3125 -1 C 5.570312 -1.101562 5.789062 -1.242188 5.96875 -1.421875 C 6.15625 -1.597656 6.300781 -1.796875 6.40625 -2.015625 C 6.507812 -2.242188 6.582031 -2.476562 6.625 -2.71875 Z M 7.71875 -2.46875 "/></g></g></g><g fill="#ffffff" fill-opacity="1"><g transform="translate(64.814891, 87.304437)"><g><path d="M 0.828125 -6.9375 L 3.34375 -6.9375 L 3.34375 -6.015625 L 3.515625 -6.015625 C 3.691406 -6.398438 3.941406 -6.679688 4.265625 -6.859375 C 4.597656 -7.046875 4.972656 -7.140625 5.390625 -7.140625 C 6.085938 -7.140625 6.648438 -6.910156 7.078125 -6.453125 C 7.515625 -5.992188 7.742188 -5.328125 7.765625 -4.453125 L 6.625 -4.28125 C 6.625 -4.925781 6.46875 -5.390625 6.15625 -5.671875 C 5.851562 -5.960938 5.476562 -6.109375 5.03125 -6.109375 C 4.738281 -6.109375 4.488281 -6.050781 4.28125 -5.9375 C 4.070312 -5.820312 3.894531 -5.664062 3.75 -5.46875 C 3.613281 -5.28125 3.507812 -5.050781 3.4375 -4.78125 C 3.375 -4.519531 3.34375 -4.242188 3.34375 -3.953125 L 3.34375 -1.015625 L 5.109375 -1.015625 L 5.109375 0 L 0.65625 0 L 0.65625 -1.015625 L 2.25 -1.015625 L 2.25 -5.9375 L 0.828125 -5.9375 Z M 0.828125 -6.9375 "/></g></g></g><g fill="#ffffff" fill-opacity="1"><g transform="translate(73.378115, 87.304437)"><g><path d="M 3.375 -9.015625 C 3.375 -9.285156 3.46875 -9.515625 3.65625 -9.703125 C 3.851562 -9.898438 4.085938 -10 4.359375 -10 C 4.628906 -10 4.859375 -9.898438 5.046875 -9.703125 C 5.234375 -9.515625 5.328125 -9.285156 5.328125 -9.015625 C 5.328125 -8.742188 5.234375 -8.507812 5.046875 -8.3125 C 4.859375 -8.125 4.628906 -8.03125 4.359375 -8.03125 C 4.085938 -8.03125 3.851562 -8.125 3.65625 -8.3125 C 3.46875 -8.507812 3.375 -8.742188 3.375 -9.015625 Z M 1.390625 -1.015625 L 3.828125 -1.015625 L 3.828125 -5.9375 L 1.640625 -5.9375 L 1.640625 -6.9375 L 4.90625 -6.9375 L 4.90625 -1.015625 L 7.1875 -1.015625 L 7.1875 0 L 1.390625 0 Z M 1.390625 -1.015625 "/></g></g></g><g fill="#ffffff" fill-opacity="1"><g transform="translate(81.941339, 87.304437)"><g><path d="M 2.0625 2.796875 L 0.96875 2.796875 L 0.96875 -6.9375 L 2.0625 -6.9375 L 2.0625 -5.859375 L 2.21875 -5.859375 C 2.46875 -6.273438 2.804688 -6.59375 3.234375 -6.8125 C 3.660156 -7.03125 4.128906 -7.140625 4.640625 -7.140625 C 5.066406 -7.140625 5.46875 -7.054688 5.84375 -6.890625 C 6.226562 -6.734375 6.566406 -6.503906 6.859375 -6.203125 C 7.160156 -5.910156 7.394531 -5.546875 7.5625 -5.109375 C 7.738281 -4.671875 7.828125 -4.171875 7.828125 -3.609375 L 7.828125 -3.328125 C 7.828125 -2.765625 7.742188 -2.257812 7.578125 -1.8125 C 7.410156 -1.375 7.175781 -1.003906 6.875 -0.703125 C 6.582031 -0.410156 6.238281 -0.1875 5.84375 -0.03125 C 5.457031 0.125 5.046875 0.203125 4.609375 0.203125 C 4.378906 0.203125 4.144531 0.175781 3.90625 0.125 C 3.675781 0.0703125 3.457031 -0.00390625 3.25 -0.109375 C 3.039062 -0.222656 2.847656 -0.351562 2.671875 -0.5 C 2.492188 -0.65625 2.34375 -0.84375 2.21875 -1.0625 L 2.0625 -1.0625 Z M 4.375 -0.84375 C 4.71875 -0.84375 5.023438 -0.898438 5.296875 -1.015625 C 5.578125 -1.128906 5.820312 -1.289062 6.03125 -1.5 C 6.25 -1.71875 6.414062 -1.984375 6.53125 -2.296875 C 6.644531 -2.609375 6.703125 -2.953125 6.703125 -3.328125 L 6.703125 -3.609375 C 6.703125 -3.984375 6.644531 -4.320312 6.53125 -4.625 C 6.414062 -4.925781 6.25 -5.1875 6.03125 -5.40625 C 5.820312 -5.625 5.578125 -5.796875 5.296875 -5.921875 C 5.015625 -6.046875 4.707031 -6.109375 4.375 -6.109375 C 4.050781 -6.109375 3.75 -6.039062 3.46875 -5.90625 C 3.1875 -5.78125 2.941406 -5.601562 2.734375 -5.375 C 2.523438 -5.15625 2.359375 -4.890625 2.234375 -4.578125 C 2.117188 -4.265625 2.0625 -3.925781 2.0625 -3.5625 L 2.0625 -3.390625 C 2.0625 -3.003906 2.117188 -2.65625 2.234375 -2.34375 C 2.359375 -2.03125 2.523438 -1.757812 2.734375 -1.53125 C 2.941406 -1.3125 3.1875 -1.140625 3.46875 -1.015625 C 3.75 -0.898438 4.050781 -0.84375 4.375 -0.84375 Z M 4.375 -0.84375 "/></g></g></g><g fill="#ffffff" fill-opacity="1"><g transform="translate(90.504563, 87.304437)"><g><path d="M 0.984375 -6.9375 L 3.15625 -6.9375 L 3.15625 -9.796875 L 4.25 -9.796875 L 4.25 -6.9375 L 6.9375 -6.9375 L 6.9375 -5.9375 L 4.25 -5.9375 L 4.25 -1.421875 C 4.25 -1.148438 4.378906 -1.015625 4.640625 -1.015625 L 6.609375 -1.015625 L 6.609375 0 L 4.234375 0 C 3.921875 0 3.660156 -0.0976562 3.453125 -0.296875 C 3.253906 -0.503906 3.15625 -0.769531 3.15625 -1.09375 L 3.15625 -5.9375 L 0.984375 -5.9375 Z M 0.984375 -6.9375 "/></g></g></g></svg>