<svg xmlns="http://www.w3.org/2000/svg" xmlns:xlink="http://www.w3.org/1999/xlink" width="150" zoomAndPan="magnify" viewBox="0 0 112.5 112.499997" height="150" preserveAspectRatio="xMidYMid meet" version="1.0"><defs><g/><clipPath id="aa047aa547"><path d="M 0 0 L 112.003906 0 L 112.003906 112.003906 L 0 112.003906 Z M 0 0 " clip-rule="nonzero"/></clipPath><clipPath id="daedce8a5f"><path d="M 5.25 0 L 107.25 0 C 110.148438 0 112.5 2.351562 112.5 5.25 L 112.5 107.25 C 112.5 110.148438 110.148438 112.5 107.25 112.5 L 5.25 112.5 C 2.351562 112.5 0 110.148438 0 107.25 L 0 5.25 C 0 2.351562 2.351562 0 5.25 0 " clip-rule="nonzero"/></clipPath><clipPath id="6c94c52fdd"><path d="M 34 23 L 78.75 23 L 78.75 67 L 34 67 Z M 34 23 " clip-rule="nonzero"/></clipPath></defs><g clip-path="url(#aa047aa547)"><g clip-path="url(#daedce8a5f)"><path fill="#545454" d="M 0 0 L 112.324219 0 L 112.324219 112.324219 L 0 112.324219 Z M 0 0 " fill-opacity="1" fill-rule="nonzero"/></g></g><path fill="#ffffff" d="M 69.445312 44.980469 C 69.445312 45.265625 69.414062 45.550781 69.359375 45.832031 C 69.304688 46.113281 69.21875 46.390625 69.109375 46.65625 C 69 46.921875 68.863281 47.171875 68.707031 47.410156 C 68.546875 47.652344 68.363281 47.871094 68.160156 48.074219 C 67.957031 48.277344 67.734375 48.460938 67.496094 48.621094 C 67.257812 48.78125 67.003906 48.914062 66.738281 49.023438 C 66.472656 49.136719 66.199219 49.21875 65.917969 49.273438 C 65.636719 49.332031 65.351562 49.359375 65.0625 49.359375 C 64.777344 49.359375 64.492188 49.332031 64.210938 49.273438 C 63.925781 49.21875 63.652344 49.136719 63.386719 49.023438 C 63.121094 48.914062 62.871094 48.78125 62.628906 48.621094 C 62.390625 48.460938 62.171875 48.277344 61.96875 48.074219 C 61.765625 47.871094 61.582031 47.652344 61.421875 47.410156 C 61.261719 47.171875 61.128906 46.921875 61.019531 46.65625 C 60.90625 46.390625 60.824219 46.113281 60.769531 45.832031 C 60.710938 45.550781 60.683594 45.265625 60.683594 44.980469 C 60.683594 44.691406 60.710938 44.40625 60.769531 44.125 C 60.824219 43.84375 60.90625 43.570312 61.019531 43.304688 C 61.128906 43.035156 61.261719 42.785156 61.421875 42.546875 C 61.582031 42.304688 61.765625 42.085938 61.96875 41.882812 C 62.171875 41.679688 62.390625 41.496094 62.628906 41.335938 C 62.871094 41.175781 63.121094 41.042969 63.386719 40.933594 C 63.652344 40.824219 63.925781 40.738281 64.210938 40.683594 C 64.492188 40.628906 64.777344 40.597656 65.0625 40.597656 C 65.351562 40.597656 65.636719 40.628906 65.917969 40.683594 C 66.199219 40.738281 66.472656 40.824219 66.738281 40.933594 C 67.003906 41.042969 67.257812 41.175781 67.496094 41.335938 C 67.734375 41.496094 67.957031 41.679688 68.160156 41.882812 C 68.363281 42.085938 68.546875 42.304688 68.707031 42.546875 C 68.863281 42.785156 69 43.035156 69.109375 43.304688 C 69.21875 43.570312 69.304688 43.84375 69.359375 44.125 C 69.414062 44.40625 69.445312 44.691406 69.445312 44.980469 Z M 69.445312 44.980469 " fill-opacity="1" fill-rule="nonzero"/><path fill="#ffffff" d="M 60.683594 36.21875 C 60.683594 36.507812 60.65625 36.792969 60.601562 37.074219 C 60.542969 37.355469 60.460938 37.628906 60.351562 37.894531 C 60.242188 38.160156 60.105469 38.414062 59.945312 38.652344 C 59.785156 38.890625 59.605469 39.113281 59.402344 39.316406 C 59.199219 39.519531 58.976562 39.703125 58.738281 39.859375 C 58.5 40.019531 58.246094 40.15625 57.980469 40.265625 C 57.714844 40.375 57.441406 40.457031 57.160156 40.515625 C 56.878906 40.570312 56.59375 40.597656 56.304688 40.597656 C 56.015625 40.597656 55.730469 40.570312 55.449219 40.515625 C 55.167969 40.457031 54.894531 40.375 54.628906 40.265625 C 54.363281 40.15625 54.109375 40.019531 53.871094 39.859375 C 53.632812 39.703125 53.410156 39.519531 53.207031 39.316406 C 53.003906 39.113281 52.824219 38.890625 52.664062 38.652344 C 52.503906 38.414062 52.367188 38.160156 52.257812 37.894531 C 52.148438 37.628906 52.066406 37.355469 52.007812 37.074219 C 51.953125 36.792969 51.925781 36.507812 51.925781 36.21875 C 51.925781 35.933594 51.953125 35.648438 52.007812 35.363281 C 52.066406 35.082031 52.148438 34.808594 52.257812 34.542969 C 52.367188 34.277344 52.503906 34.027344 52.664062 33.785156 C 52.824219 33.546875 53.003906 33.324219 53.207031 33.121094 C 53.410156 32.917969 53.632812 32.738281 53.871094 32.578125 C 54.109375 32.417969 54.363281 32.285156 54.628906 32.171875 C 54.894531 32.0625 55.167969 31.980469 55.449219 31.925781 C 55.730469 31.867188 56.015625 31.839844 56.304688 31.839844 C 56.59375 31.839844 56.878906 31.867188 57.160156 31.925781 C 57.441406 31.980469 57.714844 32.0625 57.980469 32.171875 C 58.246094 32.285156 58.5 32.417969 58.738281 32.578125 C 58.976562 32.738281 59.199219 32.917969 59.402344 33.121094 C 59.605469 33.324219 59.785156 33.546875 59.945312 33.785156 C 60.105469 34.027344 60.242188 34.277344 60.351562 34.542969 C 60.460938 34.808594 60.542969 35.082031 60.601562 35.363281 C 60.65625 35.648438 60.683594 35.933594 60.683594 36.21875 Z M 60.683594 36.21875 " fill-opacity="1" fill-rule="nonzero"/><path fill="#ffffff" d="M 60.683594 53.738281 C 60.683594 54.027344 60.65625 54.308594 60.601562 54.59375 C 60.542969 54.875 60.460938 55.148438 60.351562 55.414062 C 60.242188 55.679688 60.105469 55.933594 59.945312 56.171875 C 59.785156 56.410156 59.605469 56.632812 59.402344 56.835938 C 59.199219 57.039062 58.976562 57.21875 58.738281 57.378906 C 58.5 57.539062 58.246094 57.675781 57.980469 57.785156 C 57.714844 57.894531 57.441406 57.976562 57.160156 58.035156 C 56.878906 58.089844 56.59375 58.117188 56.304688 58.117188 C 56.015625 58.117188 55.730469 58.089844 55.449219 58.035156 C 55.167969 57.976562 54.894531 57.894531 54.628906 57.785156 C 54.363281 57.675781 54.109375 57.539062 53.871094 57.378906 C 53.632812 57.21875 53.410156 57.039062 53.207031 56.835938 C 53.003906 56.632812 52.824219 56.410156 52.664062 56.171875 C 52.503906 55.933594 52.367188 55.679688 52.257812 55.414062 C 52.148438 55.148438 52.066406 54.875 52.007812 54.59375 C 51.953125 54.308594 51.925781 54.027344 51.925781 53.738281 C 51.925781 53.449219 51.953125 53.164062 52.007812 52.882812 C 52.066406 52.601562 52.148438 52.328125 52.257812 52.0625 C 52.367188 51.796875 52.503906 51.542969 52.664062 51.304688 C 52.824219 51.066406 53.003906 50.84375 53.207031 50.640625 C 53.410156 50.4375 53.632812 50.257812 53.871094 50.097656 C 54.109375 49.9375 54.363281 49.800781 54.628906 49.691406 C 54.894531 49.582031 55.167969 49.5 55.449219 49.441406 C 55.730469 49.386719 56.015625 49.359375 56.304688 49.359375 C 56.59375 49.359375 56.878906 49.386719 57.160156 49.441406 C 57.441406 49.5 57.714844 49.582031 57.980469 49.691406 C 58.246094 49.800781 58.5 49.9375 58.738281 50.097656 C 58.976562 50.257812 59.199219 50.4375 59.402344 50.640625 C 59.605469 50.84375 59.785156 51.066406 59.945312 51.304688 C 60.105469 51.542969 60.242188 51.796875 60.351562 52.0625 C 60.460938 52.328125 60.542969 52.601562 60.601562 52.882812 C 60.65625 53.164062 60.683594 53.449219 60.683594 53.738281 Z M 60.683594 53.738281 " fill-opacity="1" fill-rule="nonzero"/><path fill="#ffffff" d="M 56.304688 53.738281 C 56.015625 53.738281 55.734375 53.683594 55.464844 53.570312 C 55.199219 53.460938 54.960938 53.300781 54.757812 53.097656 C 54.550781 52.890625 54.394531 52.65625 54.28125 52.386719 C 54.171875 52.117188 54.113281 51.839844 54.113281 51.546875 L 54.113281 38.410156 C 54.113281 38.117188 54.171875 37.839844 54.28125 37.570312 C 54.394531 37.304688 54.550781 37.066406 54.757812 36.859375 C 54.960938 36.65625 55.199219 36.496094 55.464844 36.386719 C 55.734375 36.273438 56.015625 36.21875 56.304688 36.21875 C 56.59375 36.21875 56.875 36.273438 57.144531 36.386719 C 57.410156 36.496094 57.648438 36.65625 57.851562 36.859375 C 58.058594 37.066406 58.214844 37.304688 58.328125 37.570312 C 58.4375 37.839844 58.496094 38.117188 58.496094 38.410156 L 58.496094 51.546875 C 58.496094 51.839844 58.4375 52.117188 58.328125 52.386719 C 58.214844 52.65625 58.058594 52.890625 57.851562 53.097656 C 57.648438 53.300781 57.410156 53.460938 57.144531 53.570312 C 56.875 53.683594 56.59375 53.738281 56.304688 53.738281 Z M 56.304688 53.738281 " fill-opacity="1" fill-rule="nonzero"/><path fill="#ffffff" d="M 62.875 44.980469 C 62.269531 44.980469 61.753906 44.765625 61.324219 44.335938 L 56.945312 39.957031 C 56.746094 39.75 56.59375 39.515625 56.488281 39.246094 C 56.382812 38.980469 56.328125 38.703125 56.332031 38.417969 C 56.335938 38.128906 56.390625 37.855469 56.503906 37.589844 C 56.613281 37.324219 56.769531 37.089844 56.972656 36.886719 C 57.175781 36.683594 57.410156 36.527344 57.675781 36.417969 C 57.9375 36.304688 58.214844 36.25 58.503906 36.246094 C 58.789062 36.242188 59.066406 36.296875 59.332031 36.402344 C 59.601562 36.507812 59.835938 36.660156 60.042969 36.859375 L 64.421875 41.242188 C 64.734375 41.554688 64.933594 41.925781 65.019531 42.363281 C 65.109375 42.796875 65.066406 43.21875 64.898438 43.625 C 64.726562 44.035156 64.457031 44.363281 64.089844 44.609375 C 63.722656 44.855469 63.316406 44.980469 62.875 44.980469 Z M 62.875 44.980469 " fill-opacity="1" fill-rule="nonzero"/><path fill="#ffffff" d="M 54.113281 36.21875 C 53.511719 36.222656 52.992188 36.007812 52.566406 35.578125 L 48.40625 31.417969 C 48.207031 31.210938 48.054688 30.972656 47.949219 30.707031 C 47.839844 30.441406 47.789062 30.164062 47.792969 29.878906 C 47.792969 29.589844 47.851562 29.3125 47.960938 29.050781 C 48.074219 28.785156 48.230469 28.550781 48.433594 28.347656 C 48.636719 28.144531 48.871094 27.988281 49.132812 27.875 C 49.398438 27.765625 49.675781 27.707031 49.960938 27.707031 C 50.25 27.703125 50.527344 27.757812 50.792969 27.863281 C 51.058594 27.96875 51.296875 28.121094 51.503906 28.320312 L 55.664062 32.480469 C 55.976562 32.792969 56.175781 33.167969 56.261719 33.601562 C 56.347656 34.035156 56.308594 34.457031 56.136719 34.867188 C 55.96875 35.277344 55.699219 35.605469 55.332031 35.851562 C 54.964844 36.097656 54.558594 36.21875 54.113281 36.21875 Z M 54.113281 36.21875 " fill-opacity="1" fill-rule="nonzero"/><g clip-path="url(#6c94c52fdd)"><path fill="#ffffff" d="M 56.304688 66.847656 C 55.402344 66.855469 54.535156 66.691406 53.699219 66.359375 C 52.863281 66.027344 52.121094 65.546875 51.472656 64.921875 L 36.363281 49.8125 C 36.054688 49.488281 35.785156 49.136719 35.542969 48.761719 C 35.304688 48.386719 35.101562 47.992188 34.9375 47.578125 C 34.773438 47.164062 34.648438 46.742188 34.566406 46.304688 C 34.480469 45.867188 34.4375 45.425781 34.4375 44.980469 C 34.4375 44.535156 34.480469 44.09375 34.566406 43.65625 C 34.648438 43.21875 34.773438 42.792969 34.9375 42.378906 C 35.101562 41.964844 35.304688 41.570312 35.542969 41.195312 C 35.785156 40.820312 36.054688 40.46875 36.363281 40.144531 L 51.472656 25.035156 C 51.796875 24.730469 52.144531 24.457031 52.519531 24.21875 C 52.894531 23.976562 53.289062 23.777344 53.703125 23.609375 C 54.117188 23.445312 54.542969 23.320312 54.980469 23.238281 C 55.417969 23.152344 55.859375 23.113281 56.304688 23.113281 C 56.75 23.113281 57.191406 23.152344 57.628906 23.238281 C 58.066406 23.320312 58.492188 23.445312 58.90625 23.609375 C 59.320312 23.777344 59.714844 23.976562 60.089844 24.21875 C 60.464844 24.457031 60.816406 24.730469 61.140625 25.035156 L 76.25 40.144531 C 76.554688 40.46875 76.828125 40.820312 77.066406 41.195312 C 77.304688 41.570312 77.507812 41.964844 77.671875 42.378906 C 77.839844 42.792969 77.960938 43.21875 78.046875 43.65625 C 78.128906 44.09375 78.171875 44.535156 78.171875 44.980469 C 78.171875 45.425781 78.128906 45.867188 78.046875 46.304688 C 77.960938 46.742188 77.839844 47.164062 77.671875 47.578125 C 77.507812 47.992188 77.304688 48.386719 77.066406 48.761719 C 76.828125 49.136719 76.554688 49.488281 76.25 49.8125 L 61.140625 64.921875 C 60.492188 65.546875 59.75 66.027344 58.910156 66.359375 C 58.074219 66.695312 57.207031 66.855469 56.304688 66.847656 Z M 56.304688 27.492188 C 55.640625 27.46875 55.0625 27.683594 54.570312 28.132812 L 39.460938 43.242188 C 39.253906 43.484375 39.09375 43.753906 38.984375 44.054688 C 38.875 44.351562 38.820312 44.660156 38.820312 44.980469 C 38.820312 45.296875 38.875 45.605469 38.984375 45.902344 C 39.09375 46.203125 39.253906 46.472656 39.460938 46.714844 L 54.570312 61.824219 C 54.816406 62.023438 55.085938 62.171875 55.386719 62.277344 C 55.683594 62.382812 55.988281 62.4375 56.304688 62.4375 C 56.621094 62.4375 56.925781 62.382812 57.226562 62.277344 C 57.523438 62.171875 57.792969 62.023438 58.039062 61.824219 L 73.148438 46.714844 C 73.355469 46.472656 73.515625 46.203125 73.625 45.902344 C 73.734375 45.605469 73.789062 45.296875 73.789062 44.980469 C 73.789062 44.660156 73.734375 44.351562 73.625 44.054688 C 73.515625 43.753906 73.355469 43.484375 73.148438 43.242188 L 58.039062 28.132812 C 57.546875 27.683594 56.96875 27.46875 56.304688 27.492188 Z M 56.304688 27.492188 " fill-opacity="1" fill-rule="nonzero"/></g><g fill="#ffffff" fill-opacity="1"><g transform="translate(43.400389, 87.304437)"><g><path d="M 3.34375 -4.703125 L 7.71875 -4.703125 L 7.71875 0 L 6.625 0 L 6.625 -1.171875 L 6.453125 -1.171875 C 6.296875 -0.765625 6.015625 -0.429688 5.609375 -0.171875 C 5.210938 0.078125 4.75 0.203125 4.21875 0.203125 C 3.15625 0.203125 2.320312 -0.132812 1.71875 -0.8125 C 1.125 -1.5 0.828125 -2.5 0.828125 -3.8125 L 0.828125 -5.984375 C 0.828125 -7.253906 1.128906 -8.238281 1.734375 -8.9375 C 2.335938 -9.644531 3.179688 -10 4.265625 -10 C 4.828125 -10 5.320312 -9.90625 5.75 -9.71875 C 6.175781 -9.539062 6.535156 -9.289062 6.828125 -8.96875 C 7.117188 -8.644531 7.335938 -8.265625 7.484375 -7.828125 C 7.640625 -7.398438 7.71875 -6.9375 7.71875 -6.4375 L 7.71875 -6.265625 L 6.53125 -6.265625 L 6.53125 -6.4375 C 6.53125 -6.757812 6.484375 -7.066406 6.390625 -7.359375 C 6.304688 -7.660156 6.171875 -7.925781 5.984375 -8.15625 C 5.804688 -8.382812 5.578125 -8.566406 5.296875 -8.703125 C 5.015625 -8.835938 4.671875 -8.90625 4.265625 -8.90625 C 3.515625 -8.90625 2.945312 -8.628906 2.5625 -8.078125 C 2.1875 -7.523438 2 -6.800781 2 -5.90625 L 2 -3.890625 C 2 -2.929688 2.1875 -2.191406 2.5625 -1.671875 C 2.945312 -1.148438 3.523438 -0.890625 4.296875 -0.890625 C 4.992188 -0.890625 5.539062 -1.113281 5.9375 -1.5625 C 6.332031 -2.007812 6.53125 -2.632812 6.53125 -3.4375 L 6.53125 -3.609375 L 3.34375 -3.609375 Z M 3.34375 -4.703125 "/></g></g></g><g fill="#ffffff" fill-opacity="1"><g transform="translate(51.963613, 87.304437)"><g><path d="M 3.375 -9.015625 C 3.375 -9.285156 3.46875 -9.515625 3.65625 -9.703125 C 3.851562 -9.898438 4.085938 -10 4.359375 -10 C 4.628906 -10 4.859375 -9.898438 5.046875 -9.703125 C 5.234375 -9.515625 5.328125 -9.285156 5.328125 -9.015625 C 5.328125 -8.742188 5.234375 -8.507812 5.046875 -8.3125 C 4.859375 -8.125 4.628906 -8.03125 4.359375 -8.03125 C 4.085938 -8.03125 3.851562 -8.125 3.65625 -8.3125 C 3.46875 -8.507812 3.375 -8.742188 3.375 -9.015625 Z M 1.390625 -1.015625 L 3.828125 -1.015625 L 3.828125 -5.9375 L 1.640625 -5.9375 L 1.640625 -6.9375 L 4.90625 -6.9375 L 4.90625 -1.015625 L 7.1875 -1.015625 L 7.1875 0 L 1.390625 0 Z M 1.390625 -1.015625 "/></g></g></g><g fill="#ffffff" fill-opacity="1"><g transform="translate(60.526837, 87.304437)"><g><path d="M 0.984375 -6.9375 L 3.15625 -6.9375 L 3.15625 -9.796875 L 4.25 -9.796875 L 4.25 -6.9375 L 6.9375 -6.9375 L 6.9375 -5.9375 L 4.25 -5.9375 L 4.25 -1.421875 C 4.25 -1.148438 4.378906 -1.015625 4.640625 -1.015625 L 6.609375 -1.015625 L 6.609375 0 L 4.234375 0 C 3.921875 0 3.660156 -0.0976562 3.453125 -0.296875 C 3.253906 -0.503906 3.15625 -0.769531 3.15625 -1.09375 L 3.15625 -5.9375 L 0.984375 -5.9375 Z M 0.984375 -6.9375 "/></g></g></g></svg>