<svg xmlns="http://www.w3.org/2000/svg" xmlns:xlink="http://www.w3.org/1999/xlink" width="150" zoomAndPan="magnify" viewBox="0 0 112.5 112.499997" height="150" preserveAspectRatio="xMidYMid meet" version="1.0"><defs><g/><clipPath id="df9ec6abe1"><path d="M 0 0 L 112.003906 0 L 112.003906 112.003906 L 0 112.003906 Z M 0 0 " clip-rule="nonzero"/></clipPath><clipPath id="0448c00558"><path d="M 5.25 0 L 107.25 0 C 110.148438 0 112.5 2.351562 112.5 5.25 L 112.5 107.25 C 112.5 110.148438 110.148438 112.5 107.25 112.5 L 5.25 112.5 C 2.351562 112.5 0 110.148438 0 107.25 L 0 5.25 C 0 2.351562 2.351562 0 5.25 0 " clip-rule="nonzero"/></clipPath><clipPath id="8e34146eb6"><path d="M 33.75 22.09375 L 78.75 22.09375 L 78.75 67.09375 L 33.75 67.09375 Z M 33.75 22.09375 " clip-rule="nonzero"/></clipPath></defs><g clip-path="url(#df9ec6abe1)"><g clip-path="url(#0448c00558)"><path fill="#545454" d="M 0 0 L 112.324219 0 L 112.324219 112.324219 L 0 112.324219 Z M 0 0 " fill-opacity="1" fill-rule="nonzero"/></g></g><g clip-path="url(#8e34146eb6)"><path fill="#ffffff" d="M 75.894531 22.09375 L 36.609375 22.09375 C 35.03125 22.09375 33.75 23.375 33.75 24.953125 L 33.75 64.238281 C 33.75 65.816406 35.03125 67.09375 36.609375 67.09375 L 75.890625 67.09375 C 77.46875 67.09375 78.75 65.816406 78.75 64.242188 L 78.75 24.953125 C 78.75 23.375 77.46875 22.09375 75.894531 22.09375 Z M 58.394531 56.578125 C 58.394531 60.859375 55.882812 62.808594 52.214844 62.808594 C 48.902344 62.808594 46.511719 60.585938 45.535156 58.523438 L 48.90625 56.484375 C 49.554688 57.636719 50.542969 58.523438 51.964844 58.523438 C 53.324219 58.523438 54.105469 57.992188 54.105469 55.925781 L 54.105469 42.453125 L 58.394531 42.453125 Z M 67.6875 62.808594 C 63.890625 62.808594 61.738281 60.898438 60.535156 58.523438 L 63.75 56.382812 C 64.625 57.8125 65.578125 59.179688 67.597656 59.179688 C 69.292969 59.179688 70.179688 58.335938 70.179688 57.164062 C 70.179688 55.765625 69.257812 55.269531 67.394531 54.453125 L 66.375 54.011719 C 63.421875 52.757812 61.460938 51.183594 61.460938 47.851562 C 61.460938 44.789062 63.800781 42.453125 67.449219 42.453125 C 70.046875 42.453125 71.914062 43.355469 73.261719 45.726562 L 70.082031 47.773438 C 69.378906 46.511719 68.625 46.019531 67.449219 46.019531 C 66.253906 46.019531 65.496094 46.78125 65.496094 47.773438 C 65.496094 49 66.253906 49.492188 68.007812 50.253906 L 69.027344 50.695312 C 72.503906 52.179688 74.464844 53.699219 74.464844 57.113281 C 74.464844 60.792969 71.570312 62.808594 67.6875 62.808594 Z M 67.6875 62.808594 " fill-opacity="1" fill-rule="nonzero"/></g><g fill="#ffffff" fill-opacity="1"><g transform="translate(13.435547, 87.304437)"><g><path d="M 7.0625 -2.9375 C 7.0625 -1.914062 6.8125 -1.132812 6.3125 -0.59375 C 5.820312 -0.0625 5.09375 0.203125 4.125 0.203125 C 3.164062 0.203125 2.40625 -0.0625 1.84375 -0.59375 C 1.289062 -1.132812 1.015625 -1.914062 1.015625 -2.9375 L 1.015625 -3.703125 L 2.203125 -3.703125 L 2.203125 -2.9375 C 2.203125 -2.320312 2.359375 -1.828125 2.671875 -1.453125 C 2.992188 -1.078125 3.476562 -0.890625 4.125 -0.890625 C 4.78125 -0.890625 5.238281 -1.078125 5.5 -1.453125 C 5.757812 -1.828125 5.890625 -2.320312 5.890625 -2.9375 L 5.890625 -8.703125 L 4.890625 -8.703125 L 4.890625 -9.796875 L 7.90625 -9.796875 L 7.90625 -8.703125 L 7.0625 -8.703125 Z M 7.0625 -2.9375 "/></g></g></g><g fill="#ffffff" fill-opacity="1"><g transform="translate(21.998771, 87.304437)"><g><path d="M 6.265625 -1.171875 L 6.09375 -1.171875 C 5.863281 -0.703125 5.550781 -0.351562 5.15625 -0.125 C 4.757812 0.09375 4.34375 0.203125 3.90625 0.203125 C 3.445312 0.203125 3.019531 0.125 2.625 -0.03125 C 2.238281 -0.1875 1.894531 -0.414062 1.59375 -0.71875 C 1.300781 -1.019531 1.070312 -1.390625 0.90625 -1.828125 C 0.738281 -2.265625 0.65625 -2.773438 0.65625 -3.359375 L 0.65625 -3.578125 C 0.65625 -4.148438 0.738281 -4.65625 0.90625 -5.09375 C 1.070312 -5.53125 1.300781 -5.898438 1.59375 -6.203125 C 1.894531 -6.503906 2.238281 -6.734375 2.625 -6.890625 C 3.019531 -7.054688 3.4375 -7.140625 3.875 -7.140625 C 4.351562 -7.140625 4.785156 -7.035156 5.171875 -6.828125 C 5.554688 -6.617188 5.863281 -6.296875 6.09375 -5.859375 L 6.265625 -5.859375 L 6.265625 -6.9375 L 7.34375 -6.9375 L 7.34375 -1.421875 C 7.34375 -1.148438 7.472656 -1.015625 7.734375 -1.015625 L 8.078125 -1.015625 L 8.078125 0 L 7.34375 0 C 7.019531 0 6.757812 -0.0976562 6.5625 -0.296875 C 6.363281 -0.503906 6.265625 -0.769531 6.265625 -1.09375 Z M 4.015625 -0.84375 C 4.347656 -0.84375 4.648438 -0.898438 4.921875 -1.015625 C 5.191406 -1.140625 5.425781 -1.3125 5.625 -1.53125 C 5.820312 -1.757812 5.976562 -2.03125 6.09375 -2.34375 C 6.207031 -2.65625 6.265625 -3.003906 6.265625 -3.390625 L 6.265625 -3.5625 C 6.265625 -3.925781 6.207031 -4.265625 6.09375 -4.578125 C 5.976562 -4.890625 5.816406 -5.15625 5.609375 -5.375 C 5.410156 -5.601562 5.175781 -5.78125 4.90625 -5.90625 C 4.632812 -6.039062 4.335938 -6.109375 4.015625 -6.109375 C 3.691406 -6.109375 3.394531 -6.046875 3.125 -5.921875 C 2.851562 -5.796875 2.613281 -5.625 2.40625 -5.40625 C 2.207031 -5.1875 2.050781 -4.921875 1.9375 -4.609375 C 1.832031 -4.296875 1.78125 -3.953125 1.78125 -3.578125 L 1.78125 -3.359375 C 1.78125 -2.566406 1.988281 -1.945312 2.40625 -1.5 C 2.820312 -1.0625 3.359375 -0.84375 4.015625 -0.84375 Z M 4.015625 -0.84375 "/></g></g></g><g fill="#ffffff" fill-opacity="1"><g transform="translate(30.561995, 87.304437)"><g><path d="M 5.34375 0 L 3.1875 0 L 0.765625 -6.9375 L 2.0625 -6.9375 L 4.1875 -0.5 L 4.359375 -0.5 L 6.484375 -6.9375 L 7.765625 -6.9375 Z M 5.34375 0 "/></g></g></g><g fill="#ffffff" fill-opacity="1"><g transform="translate(39.125219, 87.304437)"><g><path d="M 6.265625 -1.171875 L 6.09375 -1.171875 C 5.863281 -0.703125 5.550781 -0.351562 5.15625 -0.125 C 4.757812 0.09375 4.34375 0.203125 3.90625 0.203125 C 3.445312 0.203125 3.019531 0.125 2.625 -0.03125 C 2.238281 -0.1875 1.894531 -0.414062 1.59375 -0.71875 C 1.300781 -1.019531 1.070312 -1.390625 0.90625 -1.828125 C 0.738281 -2.265625 0.65625 -2.773438 0.65625 -3.359375 L 0.65625 -3.578125 C 0.65625 -4.148438 0.738281 -4.65625 0.90625 -5.09375 C 1.070312 -5.53125 1.300781 -5.898438 1.59375 -6.203125 C 1.894531 -6.503906 2.238281 -6.734375 2.625 -6.890625 C 3.019531 -7.054688 3.4375 -7.140625 3.875 -7.140625 C 4.351562 -7.140625 4.785156 -7.035156 5.171875 -6.828125 C 5.554688 -6.617188 5.863281 -6.296875 6.09375 -5.859375 L 6.265625 -5.859375 L 6.265625 -6.9375 L 7.34375 -6.9375 L 7.34375 -1.421875 C 7.34375 -1.148438 7.472656 -1.015625 7.734375 -1.015625 L 8.078125 -1.015625 L 8.078125 0 L 7.34375 0 C 7.019531 0 6.757812 -0.0976562 6.5625 -0.296875 C 6.363281 -0.503906 6.265625 -0.769531 6.265625 -1.09375 Z M 4.015625 -0.84375 C 4.347656 -0.84375 4.648438 -0.898438 4.921875 -1.015625 C 5.191406 -1.140625 5.425781 -1.3125 5.625 -1.53125 C 5.820312 -1.757812 5.976562 -2.03125 6.09375 -2.34375 C 6.207031 -2.65625 6.265625 -3.003906 6.265625 -3.390625 L 6.265625 -3.5625 C 6.265625 -3.925781 6.207031 -4.265625 6.09375 -4.578125 C 5.976562 -4.890625 5.816406 -5.15625 5.609375 -5.375 C 5.410156 -5.601562 5.175781 -5.78125 4.90625 -5.90625 C 4.632812 -6.039062 4.335938 -6.109375 4.015625 -6.109375 C 3.691406 -6.109375 3.394531 -6.046875 3.125 -5.921875 C 2.851562 -5.796875 2.613281 -5.625 2.40625 -5.40625 C 2.207031 -5.1875 2.050781 -4.921875 1.9375 -4.609375 C 1.832031 -4.296875 1.78125 -3.953125 1.78125 -3.578125 L 1.78125 -3.359375 C 1.78125 -2.566406 1.988281 -1.945312 2.40625 -1.5 C 2.820312 -1.0625 3.359375 -0.84375 4.015625 -0.84375 Z M 4.015625 -0.84375 "/></g></g></g><g fill="#ffffff" fill-opacity="1"><g transform="translate(47.688443, 87.304437)"><g><path d="M 2.65625 -5.15625 C 2.65625 -4.8125 2.796875 -4.550781 3.078125 -4.375 C 3.367188 -4.195312 3.890625 -4.082031 4.640625 -4.03125 C 5.453125 -3.96875 6.070312 -3.773438 6.5 -3.453125 C 6.925781 -3.128906 7.140625 -2.660156 7.140625 -2.046875 L 7.140625 -1.953125 C 7.140625 -1.617188 7.070312 -1.316406 6.9375 -1.046875 C 6.800781 -0.785156 6.613281 -0.5625 6.375 -0.375 C 6.132812 -0.1875 5.84375 -0.046875 5.5 0.046875 C 5.164062 0.148438 4.796875 0.203125 4.390625 0.203125 C 3.847656 0.203125 3.382812 0.128906 3 -0.015625 C 2.613281 -0.160156 2.289062 -0.351562 2.03125 -0.59375 C 1.78125 -0.832031 1.585938 -1.101562 1.453125 -1.40625 C 1.328125 -1.707031 1.253906 -2.015625 1.234375 -2.328125 L 2.265625 -2.578125 C 2.316406 -2.046875 2.523438 -1.617188 2.890625 -1.296875 C 3.253906 -0.972656 3.738281 -0.8125 4.34375 -0.8125 C 4.851562 -0.8125 5.265625 -0.910156 5.578125 -1.109375 C 5.890625 -1.304688 6.046875 -1.585938 6.046875 -1.953125 C 6.046875 -2.347656 5.890625 -2.628906 5.578125 -2.796875 C 5.273438 -2.960938 4.78125 -3.070312 4.09375 -3.125 C 3.289062 -3.175781 2.671875 -3.359375 2.234375 -3.671875 C 1.804688 -3.992188 1.59375 -4.457031 1.59375 -5.0625 L 1.59375 -5.15625 C 1.59375 -5.476562 1.660156 -5.765625 1.796875 -6.015625 C 1.941406 -6.265625 2.132812 -6.472656 2.375 -6.640625 C 2.613281 -6.804688 2.878906 -6.929688 3.171875 -7.015625 C 3.472656 -7.097656 3.785156 -7.140625 4.109375 -7.140625 C 4.566406 -7.140625 4.96875 -7.078125 5.3125 -6.953125 C 5.664062 -6.828125 5.957031 -6.660156 6.1875 -6.453125 C 6.414062 -6.253906 6.59375 -6.023438 6.71875 -5.765625 C 6.851562 -5.503906 6.9375 -5.242188 6.96875 -4.984375 L 5.9375 -4.734375 C 5.882812 -5.179688 5.703125 -5.53125 5.390625 -5.78125 C 5.078125 -6.03125 4.671875 -6.15625 4.171875 -6.15625 C 3.972656 -6.15625 3.78125 -6.132812 3.59375 -6.09375 C 3.414062 -6.050781 3.253906 -5.988281 3.109375 -5.90625 C 2.972656 -5.820312 2.863281 -5.71875 2.78125 -5.59375 C 2.695312 -5.46875 2.65625 -5.320312 2.65625 -5.15625 Z M 2.65625 -5.15625 "/></g></g></g><g fill="#ffffff" fill-opacity="1"><g transform="translate(56.251667, 87.304437)"><g><path d="M 7.71875 -2.46875 C 7.644531 -2.082031 7.515625 -1.722656 7.328125 -1.390625 C 7.148438 -1.066406 6.921875 -0.785156 6.640625 -0.546875 C 6.359375 -0.316406 6.03125 -0.132812 5.65625 0 C 5.28125 0.132812 4.863281 0.203125 4.40625 0.203125 C 3.925781 0.203125 3.46875 0.125 3.03125 -0.03125 C 2.59375 -0.195312 2.210938 -0.429688 1.890625 -0.734375 C 1.566406 -1.035156 1.304688 -1.40625 1.109375 -1.84375 C 0.921875 -2.28125 0.828125 -2.785156 0.828125 -3.359375 L 0.828125 -3.53125 C 0.828125 -4.09375 0.921875 -4.597656 1.109375 -5.046875 C 1.304688 -5.492188 1.566406 -5.867188 1.890625 -6.171875 C 2.210938 -6.484375 2.59375 -6.722656 3.03125 -6.890625 C 3.46875 -7.054688 3.925781 -7.140625 4.40625 -7.140625 C 4.84375 -7.140625 5.25 -7.070312 5.625 -6.9375 C 6 -6.8125 6.328125 -6.628906 6.609375 -6.390625 C 6.898438 -6.148438 7.132812 -5.863281 7.3125 -5.53125 C 7.5 -5.207031 7.625 -4.859375 7.6875 -4.484375 L 6.59375 -4.234375 C 6.5625 -4.472656 6.492188 -4.707031 6.390625 -4.9375 C 6.285156 -5.164062 6.140625 -5.363281 5.953125 -5.53125 C 5.773438 -5.707031 5.554688 -5.847656 5.296875 -5.953125 C 5.035156 -6.054688 4.726562 -6.109375 4.375 -6.109375 C 4.039062 -6.109375 3.726562 -6.039062 3.4375 -5.90625 C 3.144531 -5.78125 2.882812 -5.601562 2.65625 -5.375 C 2.4375 -5.15625 2.265625 -4.882812 2.140625 -4.5625 C 2.015625 -4.25 1.953125 -3.90625 1.953125 -3.53125 L 1.953125 -3.359375 C 1.953125 -2.960938 2.015625 -2.609375 2.140625 -2.296875 C 2.265625 -1.984375 2.4375 -1.71875 2.65625 -1.5 C 2.882812 -1.289062 3.144531 -1.128906 3.4375 -1.015625 C 3.738281 -0.898438 4.0625 -0.84375 4.40625 -0.84375 C 4.75 -0.84375 5.050781 -0.894531 5.3125 -1 C 5.570312 -1.101562 5.789062 -1.242188 5.96875 -1.421875 C 6.15625 -1.597656 6.300781 -1.796875 6.40625 -2.015625 C 6.507812 -2.242188 6.582031 -2.476562 6.625 -2.71875 Z M 7.71875 -2.46875 "/></g></g></g><g fill="#ffffff" fill-opacity="1"><g transform="translate(64.814891, 87.304437)"><g><path d="M 0.828125 -6.9375 L 3.34375 -6.9375 L 3.34375 -6.015625 L 3.515625 -6.015625 C 3.691406 -6.398438 3.941406 -6.679688 4.265625 -6.859375 C 4.597656 -7.046875 4.972656 -7.140625 5.390625 -7.140625 C 6.085938 -7.140625 6.648438 -6.910156 7.078125 -6.453125 C 7.515625 -5.992188 7.742188 -5.328125 7.765625 -4.453125 L 6.625 -4.28125 C 6.625 -4.925781 6.46875 -5.390625 6.15625 -5.671875 C 5.851562 -5.960938 5.476562 -6.109375 5.03125 -6.109375 C 4.738281 -6.109375 4.488281 -6.050781 4.28125 -5.9375 C 4.070312 -5.820312 3.894531 -5.664062 3.75 -5.46875 C 3.613281 -5.28125 3.507812 -5.050781 3.4375 -4.78125 C 3.375 -4.519531 3.34375 -4.242188 3.34375 -3.953125 L 3.34375 -1.015625 L 5.109375 -1.015625 L 5.109375 0 L 0.65625 0 L 0.65625 -1.015625 L 2.25 -1.015625 L 2.25 -5.9375 L 0.828125 -5.9375 Z M 0.828125 -6.9375 "/></g></g></g><g fill="#ffffff" fill-opacity="1"><g transform="translate(73.378115, 87.304437)"><g><path d="M 3.375 -9.015625 C 3.375 -9.285156 3.46875 -9.515625 3.65625 -9.703125 C 3.851562 -9.898438 4.085938 -10 4.359375 -10 C 4.628906 -10 4.859375 -9.898438 5.046875 -9.703125 C 5.234375 -9.515625 5.328125 -9.285156 5.328125 -9.015625 C 5.328125 -8.742188 5.234375 -8.507812 5.046875 -8.3125 C 4.859375 -8.125 4.628906 -8.03125 4.359375 -8.03125 C 4.085938 -8.03125 3.851562 -8.125 3.65625 -8.3125 C 3.46875 -8.507812 3.375 -8.742188 3.375 -9.015625 Z M 1.390625 -1.015625 L 3.828125 -1.015625 L 3.828125 -5.9375 L 1.640625 -5.9375 L 1.640625 -6.9375 L 4.90625 -6.9375 L 4.90625 -1.015625 L 7.1875 -1.015625 L 7.1875 0 L 1.390625 0 Z M 1.390625 -1.015625 "/></g></g></g><g fill="#ffffff" fill-opacity="1"><g transform="translate(81.941339, 87.304437)"><g><path d="M 2.0625 2.796875 L 0.96875 2.796875 L 0.96875 -6.9375 L 2.0625 -6.9375 L 2.0625 -5.859375 L 2.21875 -5.859375 C 2.46875 -6.273438 2.804688 -6.59375 3.234375 -6.8125 C 3.660156 -7.03125 4.128906 -7.140625 4.640625 -7.140625 C 5.066406 -7.140625 5.46875 -7.054688 5.84375 -6.890625 C 6.226562 -6.734375 6.566406 -6.503906 6.859375 -6.203125 C 7.160156 -5.910156 7.394531 -5.546875 7.5625 -5.109375 C 7.738281 -4.671875 7.828125 -4.171875 7.828125 -3.609375 L 7.828125 -3.328125 C 7.828125 -2.765625 7.742188 -2.257812 7.578125 -1.8125 C 7.410156 -1.375 7.175781 -1.003906 6.875 -0.703125 C 6.582031 -0.410156 6.238281 -0.1875 5.84375 -0.03125 C 5.457031 0.125 5.046875 0.203125 4.609375 0.203125 C 4.378906 0.203125 4.144531 0.175781 3.90625 0.125 C 3.675781 0.0703125 3.457031 -0.00390625 3.25 -0.109375 C 3.039062 -0.222656 2.847656 -0.351562 2.671875 -0.5 C 2.492188 -0.65625 2.34375 -0.84375 2.21875 -1.0625 L 2.0625 -1.0625 Z M 4.375 -0.84375 C 4.71875 -0.84375 5.023438 -0.898438 5.296875 -1.015625 C 5.578125 -1.128906 5.820312 -1.289062 6.03125 -1.5 C 6.25 -1.71875 6.414062 -1.984375 6.53125 -2.296875 C 6.644531 -2.609375 6.703125 -2.953125 6.703125 -3.328125 L 6.703125 -3.609375 C 6.703125 -3.984375 6.644531 -4.320312 6.53125 -4.625 C 6.414062 -4.925781 6.25 -5.1875 6.03125 -5.40625 C 5.820312 -5.625 5.578125 -5.796875 5.296875 -5.921875 C 5.015625 -6.046875 4.707031 -6.109375 4.375 -6.109375 C 4.050781 -6.109375 3.75 -6.039062 3.46875 -5.90625 C 3.1875 -5.78125 2.941406 -5.601562 2.734375 -5.375 C 2.523438 -5.15625 2.359375 -4.890625 2.234375 -4.578125 C 2.117188 -4.265625 2.0625 -3.925781 2.0625 -3.5625 L 2.0625 -3.390625 C 2.0625 -3.003906 2.117188 -2.65625 2.234375 -2.34375 C 2.359375 -2.03125 2.523438 -1.757812 2.734375 -1.53125 C 2.941406 -1.3125 3.1875 -1.140625 3.46875 -1.015625 C 3.75 -0.898438 4.050781 -0.84375 4.375 -0.84375 Z M 4.375 -0.84375 "/></g></g></g><g fill="#ffffff" fill-opacity="1"><g transform="translate(90.504563, 87.304437)"><g><path d="M 0.984375 -6.9375 L 3.15625 -6.9375 L 3.15625 -9.796875 L 4.25 -9.796875 L 4.25 -6.9375 L 6.9375 -6.9375 L 6.9375 -5.9375 L 4.25 -5.9375 L 4.25 -1.421875 C 4.25 -1.148438 4.378906 -1.015625 4.640625 -1.015625 L 6.609375 -1.015625 L 6.609375 0 L 4.234375 0 C 3.921875 0 3.660156 -0.0976562 3.453125 -0.296875 C 3.253906 -0.503906 3.15625 -0.769531 3.15625 -1.09375 L 3.15625 -5.9375 L 0.984375 -5.9375 Z M 0.984375 -6.9375 "/></g></g></g></svg>