<svg xmlns="http://www.w3.org/2000/svg" xmlns:xlink="http://www.w3.org/1999/xlink" width="150" zoomAndPan="magnify" viewBox="0 0 112.5 112.499997" height="150" preserveAspectRatio="xMidYMid meet" version="1.0"><defs><g/><clipPath id="d8650aa7e4"><path d="M 0 0 L 112.003906 0 L 112.003906 112.003906 L 0 112.003906 Z M 0 0 " clip-rule="nonzero"/></clipPath><clipPath id="4d82405ddf"><path d="M 5.25 0 L 107.25 0 C 110.148438 0 112.5 2.351562 112.5 5.25 L 112.5 107.25 C 112.5 110.148438 110.148438 112.5 107.25 112.5 L 5.25 112.5 C 2.351562 112.5 0 110.148438 0 107.25 L 0 5.25 C 0 2.351562 2.351562 0 5.25 0 " clip-rule="nonzero"/></clipPath><clipPath id="a25ce6dfa3"><path d="M 33.75 22.09375 L 78.75 22.09375 L 78.75 67.09375 L 33.75 67.09375 Z M 33.75 22.09375 " clip-rule="nonzero"/></clipPath><clipPath id="8ee89b84d9"><path d="M 56.25 22.09375 C 43.824219 22.09375 33.75 32.167969 33.75 44.59375 C 33.75 57.023438 43.824219 67.09375 56.25 67.09375 C 68.675781 67.09375 78.75 57.023438 78.75 44.59375 C 78.75 32.167969 68.675781 22.09375 56.25 22.09375 " clip-rule="nonzero"/></clipPath></defs><g clip-path="url(#d8650aa7e4)"><g clip-path="url(#4d82405ddf)"><path fill="#545454" d="M 0 0 L 112.324219 0 L 112.324219 112.324219 L 0 112.324219 Z M 0 0 " fill-opacity="1" fill-rule="nonzero"/></g></g><g clip-path="url(#a25ce6dfa3)"><g clip-path="url(#8ee89b84d9)"><path fill="#ffffff" d="M 33.75 22.09375 L 78.75 22.09375 L 78.75 67.09375 L 33.75 67.09375 Z M 33.75 22.09375 " fill-opacity="1" fill-rule="nonzero"/></g></g><g fill="#ffffff" fill-opacity="1"><g transform="translate(26.279296, 87.304437)"><g><path d="M 1.3125 -9.796875 L 7.25 -9.796875 L 7.25 -8.703125 L 2.484375 -8.703125 L 2.484375 -5.453125 L 7.171875 -5.453125 L 7.171875 -4.375 L 2.484375 -4.375 L 2.484375 -1.09375 L 7.34375 -1.09375 L 7.34375 0 L 1.3125 0 Z M 1.3125 -9.796875 "/></g></g></g><g fill="#ffffff" fill-opacity="1"><g transform="translate(34.84252, 87.304437)"><g><path d="M 6.15625 -6.9375 L 7.40625 -6.9375 L 5.359375 -3.640625 L 5.359375 -3.46875 L 7.578125 0 L 6.296875 0 L 4.40625 -3.046875 L 4.15625 -3.046875 L 2.265625 0 L 1 0 L 3.203125 -3.46875 L 3.203125 -3.640625 L 1.15625 -6.9375 L 2.40625 -6.9375 L 4.15625 -4.0625 L 4.40625 -4.0625 Z M 6.15625 -6.9375 "/></g></g></g><g fill="#ffffff" fill-opacity="1"><g transform="translate(43.405744, 87.304437)"><g><path d="M 2.0625 2.796875 L 0.96875 2.796875 L 0.96875 -6.9375 L 2.0625 -6.9375 L 2.0625 -5.859375 L 2.21875 -5.859375 C 2.46875 -6.273438 2.804688 -6.59375 3.234375 -6.8125 C 3.660156 -7.03125 4.128906 -7.140625 4.640625 -7.140625 C 5.066406 -7.140625 5.46875 -7.054688 5.84375 -6.890625 C 6.226562 -6.734375 6.566406 -6.503906 6.859375 -6.203125 C 7.160156 -5.910156 7.394531 -5.546875 7.5625 -5.109375 C 7.738281 -4.671875 7.828125 -4.171875 7.828125 -3.609375 L 7.828125 -3.328125 C 7.828125 -2.765625 7.742188 -2.257812 7.578125 -1.8125 C 7.410156 -1.375 7.175781 -1.003906 6.875 -0.703125 C 6.582031 -0.410156 6.238281 -0.1875 5.84375 -0.03125 C 5.457031 0.125 5.046875 0.203125 4.609375 0.203125 C 4.378906 0.203125 4.144531 0.175781 3.90625 0.125 C 3.675781 0.0703125 3.457031 -0.00390625 3.25 -0.109375 C 3.039062 -0.222656 2.847656 -0.351562 2.671875 -0.5 C 2.492188 -0.65625 2.34375 -0.84375 2.21875 -1.0625 L 2.0625 -1.0625 Z M 4.375 -0.84375 C 4.71875 -0.84375 5.023438 -0.898438 5.296875 -1.015625 C 5.578125 -1.128906 5.820312 -1.289062 6.03125 -1.5 C 6.25 -1.71875 6.414062 -1.984375 6.53125 -2.296875 C 6.644531 -2.609375 6.703125 -2.953125 6.703125 -3.328125 L 6.703125 -3.609375 C 6.703125 -3.984375 6.644531 -4.320312 6.53125 -4.625 C 6.414062 -4.925781 6.25 -5.1875 6.03125 -5.40625 C 5.820312 -5.625 5.578125 -5.796875 5.296875 -5.921875 C 5.015625 -6.046875 4.707031 -6.109375 4.375 -6.109375 C 4.050781 -6.109375 3.75 -6.039062 3.46875 -5.90625 C 3.1875 -5.78125 2.941406 -5.601562 2.734375 -5.375 C 2.523438 -5.15625 2.359375 -4.890625 2.234375 -4.578125 C 2.117188 -4.265625 2.0625 -3.925781 2.0625 -3.5625 L 2.0625 -3.390625 C 2.0625 -3.003906 2.117188 -2.65625 2.234375 -2.34375 C 2.359375 -2.03125 2.523438 -1.757812 2.734375 -1.53125 C 2.941406 -1.3125 3.1875 -1.140625 3.46875 -1.015625 C 3.75 -0.898438 4.050781 -0.84375 4.375 -0.84375 Z M 4.375 -0.84375 "/></g></g></g><g fill="#ffffff" fill-opacity="1"><g transform="translate(51.968968, 87.304437)"><g><path d="M 0.828125 -6.9375 L 3.34375 -6.9375 L 3.34375 -6.015625 L 3.515625 -6.015625 C 3.691406 -6.398438 3.941406 -6.679688 4.265625 -6.859375 C 4.597656 -7.046875 4.972656 -7.140625 5.390625 -7.140625 C 6.085938 -7.140625 6.648438 -6.910156 7.078125 -6.453125 C 7.515625 -5.992188 7.742188 -5.328125 7.765625 -4.453125 L 6.625 -4.28125 C 6.625 -4.925781 6.46875 -5.390625 6.15625 -5.671875 C 5.851562 -5.960938 5.476562 -6.109375 5.03125 -6.109375 C 4.738281 -6.109375 4.488281 -6.050781 4.28125 -5.9375 C 4.070312 -5.820312 3.894531 -5.664062 3.75 -5.46875 C 3.613281 -5.28125 3.507812 -5.050781 3.4375 -4.78125 C 3.375 -4.519531 3.34375 -4.242188 3.34375 -3.953125 L 3.34375 -1.015625 L 5.109375 -1.015625 L 5.109375 0 L 0.65625 0 L 0.65625 -1.015625 L 2.25 -1.015625 L 2.25 -5.9375 L 0.828125 -5.9375 Z M 0.828125 -6.9375 "/></g></g></g><g fill="#ffffff" fill-opacity="1"><g transform="translate(60.532192, 87.304437)"><g><path d="M 2.015625 -3.140625 C 2.046875 -2.441406 2.257812 -1.882812 2.65625 -1.46875 C 3.0625 -1.050781 3.625 -0.84375 4.34375 -0.84375 C 4.664062 -0.84375 4.945312 -0.878906 5.1875 -0.953125 C 5.4375 -1.023438 5.644531 -1.125 5.8125 -1.25 C 5.988281 -1.382812 6.128906 -1.535156 6.234375 -1.703125 C 6.335938 -1.878906 6.425781 -2.066406 6.5 -2.265625 L 7.53125 -1.984375 C 7.332031 -1.335938 6.96875 -0.8125 6.4375 -0.40625 C 5.914062 0 5.207031 0.203125 4.3125 0.203125 C 3.8125 0.203125 3.351562 0.113281 2.9375 -0.0625 C 2.53125 -0.238281 2.175781 -0.484375 1.875 -0.796875 C 1.570312 -1.117188 1.335938 -1.5 1.171875 -1.9375 C 1.003906 -2.375 0.921875 -2.859375 0.921875 -3.390625 L 0.921875 -3.71875 C 0.921875 -4.207031 1.003906 -4.660156 1.171875 -5.078125 C 1.347656 -5.503906 1.585938 -5.867188 1.890625 -6.171875 C 2.203125 -6.472656 2.566406 -6.707031 2.984375 -6.875 C 3.398438 -7.050781 3.851562 -7.140625 4.34375 -7.140625 C 4.90625 -7.140625 5.394531 -7.035156 5.8125 -6.828125 C 6.226562 -6.617188 6.566406 -6.359375 6.828125 -6.046875 C 7.097656 -5.742188 7.296875 -5.410156 7.421875 -5.046875 C 7.546875 -4.679688 7.609375 -4.34375 7.609375 -4.03125 L 7.609375 -3.140625 Z M 4.34375 -6.109375 C 4.03125 -6.109375 3.738281 -6.054688 3.46875 -5.953125 C 3.207031 -5.859375 2.976562 -5.722656 2.78125 -5.546875 C 2.582031 -5.367188 2.414062 -5.160156 2.28125 -4.921875 C 2.15625 -4.679688 2.078125 -4.421875 2.046875 -4.140625 L 6.53125 -4.140625 C 6.507812 -4.441406 6.4375 -4.710938 6.3125 -4.953125 C 6.1875 -5.191406 6.019531 -5.394531 5.8125 -5.5625 C 5.613281 -5.738281 5.382812 -5.875 5.125 -5.96875 C 4.875 -6.0625 4.613281 -6.109375 4.34375 -6.109375 Z M 4.34375 -6.109375 "/></g></g></g><g fill="#ffffff" fill-opacity="1"><g transform="translate(69.095416, 87.304437)"><g><path d="M 2.65625 -5.15625 C 2.65625 -4.8125 2.796875 -4.550781 3.078125 -4.375 C 3.367188 -4.195312 3.890625 -4.082031 4.640625 -4.03125 C 5.453125 -3.96875 6.070312 -3.773438 6.5 -3.453125 C 6.925781 -3.128906 7.140625 -2.660156 7.140625 -2.046875 L 7.140625 -1.953125 C 7.140625 -1.617188 7.070312 -1.316406 6.9375 -1.046875 C 6.800781 -0.785156 6.613281 -0.5625 6.375 -0.375 C 6.132812 -0.1875 5.84375 -0.046875 5.5 0.046875 C 5.164062 0.148438 4.796875 0.203125 4.390625 0.203125 C 3.847656 0.203125 3.382812 0.128906 3 -0.015625 C 2.613281 -0.160156 2.289062 -0.351562 2.03125 -0.59375 C 1.78125 -0.832031 1.585938 -1.101562 1.453125 -1.40625 C 1.328125 -1.707031 1.253906 -2.015625 1.234375 -2.328125 L 2.265625 -2.578125 C 2.316406 -2.046875 2.523438 -1.617188 2.890625 -1.296875 C 3.253906 -0.972656 3.738281 -0.8125 4.34375 -0.8125 C 4.851562 -0.8125 5.265625 -0.910156 5.578125 -1.109375 C 5.890625 -1.304688 6.046875 -1.585938 6.046875 -1.953125 C 6.046875 -2.347656 5.890625 -2.628906 5.578125 -2.796875 C 5.273438 -2.960938 4.78125 -3.070312 4.09375 -3.125 C 3.289062 -3.175781 2.671875 -3.359375 2.234375 -3.671875 C 1.804688 -3.992188 1.59375 -4.457031 1.59375 -5.0625 L 1.59375 -5.15625 C 1.59375 -5.476562 1.660156 -5.765625 1.796875 -6.015625 C 1.941406 -6.265625 2.132812 -6.472656 2.375 -6.640625 C 2.613281 -6.804688 2.878906 -6.929688 3.171875 -7.015625 C 3.472656 -7.097656 3.785156 -7.140625 4.109375 -7.140625 C 4.566406 -7.140625 4.96875 -7.078125 5.3125 -6.953125 C 5.664062 -6.828125 5.957031 -6.660156 6.1875 -6.453125 C 6.414062 -6.253906 6.59375 -6.023438 6.71875 -5.765625 C 6.851562 -5.503906 6.9375 -5.242188 6.96875 -4.984375 L 5.9375 -4.734375 C 5.882812 -5.179688 5.703125 -5.53125 5.390625 -5.78125 C 5.078125 -6.03125 4.671875 -6.15625 4.171875 -6.15625 C 3.972656 -6.15625 3.78125 -6.132812 3.59375 -6.09375 C 3.414062 -6.050781 3.253906 -5.988281 3.109375 -5.90625 C 2.972656 -5.820312 2.863281 -5.71875 2.78125 -5.59375 C 2.695312 -5.46875 2.65625 -5.320312 2.65625 -5.15625 Z M 2.65625 -5.15625 "/></g></g></g><g fill="#ffffff" fill-opacity="1"><g transform="translate(77.65864, 87.304437)"><g><path d="M 2.65625 -5.15625 C 2.65625 -4.8125 2.796875 -4.550781 3.078125 -4.375 C 3.367188 -4.195312 3.890625 -4.082031 4.640625 -4.03125 C 5.453125 -3.96875 6.070312 -3.773438 6.5 -3.453125 C 6.925781 -3.128906 7.140625 -2.660156 7.140625 -2.046875 L 7.140625 -1.953125 C 7.140625 -1.617188 7.070312 -1.316406 6.9375 -1.046875 C 6.800781 -0.785156 6.613281 -0.5625 6.375 -0.375 C 6.132812 -0.1875 5.84375 -0.046875 5.5 0.046875 C 5.164062 0.148438 4.796875 0.203125 4.390625 0.203125 C 3.847656 0.203125 3.382812 0.128906 3 -0.015625 C 2.613281 -0.160156 2.289062 -0.351562 2.03125 -0.59375 C 1.78125 -0.832031 1.585938 -1.101562 1.453125 -1.40625 C 1.328125 -1.707031 1.253906 -2.015625 1.234375 -2.328125 L 2.265625 -2.578125 C 2.316406 -2.046875 2.523438 -1.617188 2.890625 -1.296875 C 3.253906 -0.972656 3.738281 -0.8125 4.34375 -0.8125 C 4.851562 -0.8125 5.265625 -0.910156 5.578125 -1.109375 C 5.890625 -1.304688 6.046875 -1.585938 6.046875 -1.953125 C 6.046875 -2.347656 5.890625 -2.628906 5.578125 -2.796875 C 5.273438 -2.960938 4.78125 -3.070312 4.09375 -3.125 C 3.289062 -3.175781 2.671875 -3.359375 2.234375 -3.671875 C 1.804688 -3.992188 1.59375 -4.457031 1.59375 -5.0625 L 1.59375 -5.15625 C 1.59375 -5.476562 1.660156 -5.765625 1.796875 -6.015625 C 1.941406 -6.265625 2.132812 -6.472656 2.375 -6.640625 C 2.613281 -6.804688 2.878906 -6.929688 3.171875 -7.015625 C 3.472656 -7.097656 3.785156 -7.140625 4.109375 -7.140625 C 4.566406 -7.140625 4.96875 -7.078125 5.3125 -6.953125 C 5.664062 -6.828125 5.957031 -6.660156 6.1875 -6.453125 C 6.414062 -6.253906 6.59375 -6.023438 6.71875 -5.765625 C 6.851562 -5.503906 6.9375 -5.242188 6.96875 -4.984375 L 5.9375 -4.734375 C 5.882812 -5.179688 5.703125 -5.53125 5.390625 -5.78125 C 5.078125 -6.03125 4.671875 -6.15625 4.171875 -6.15625 C 3.972656 -6.15625 3.78125 -6.132812 3.59375 -6.09375 C 3.414062 -6.050781 3.253906 -5.988281 3.109375 -5.90625 C 2.972656 -5.820312 2.863281 -5.71875 2.78125 -5.59375 C 2.695312 -5.46875 2.65625 -5.320312 2.65625 -5.15625 Z M 2.65625 -5.15625 "/></g></g></g><g fill="#545454" fill-opacity="1"><g transform="translate(40.091275, 52.305689)"><g><path d="M 4.3125 -6.71875 C 4.375 -5.238281 4.832031 -4.046875 5.6875 -3.140625 C 6.550781 -2.242188 7.753906 -1.796875 9.296875 -1.796875 C 9.992188 -1.796875 10.601562 -1.875 11.125 -2.03125 C 11.644531 -2.195312 12.085938 -2.421875 12.453125 -2.703125 C 12.828125 -2.984375 13.128906 -3.304688 13.359375 -3.671875 C 13.585938 -4.046875 13.773438 -4.441406 13.921875 -4.859375 L 16.140625 -4.265625 C 15.722656 -2.878906 14.945312 -1.75 13.8125 -0.875 C 12.6875 -0.0078125 11.160156 0.421875 9.234375 0.421875 C 8.179688 0.421875 7.207031 0.238281 6.3125 -0.125 C 5.425781 -0.5 4.660156 -1.023438 4.015625 -1.703125 C 3.378906 -2.390625 2.878906 -3.203125 2.515625 -4.140625 C 2.160156 -5.078125 1.984375 -6.117188 1.984375 -7.265625 L 1.984375 -7.984375 C 1.984375 -9.023438 2.164062 -9.992188 2.53125 -10.890625 C 2.90625 -11.785156 3.421875 -12.554688 4.078125 -13.203125 C 4.734375 -13.859375 5.503906 -14.367188 6.390625 -14.734375 C 7.285156 -15.109375 8.253906 -15.296875 9.296875 -15.296875 C 10.515625 -15.296875 11.566406 -15.070312 12.453125 -14.625 C 13.347656 -14.175781 14.082031 -13.617188 14.65625 -12.953125 C 15.226562 -12.296875 15.644531 -11.578125 15.90625 -10.796875 C 16.175781 -10.015625 16.3125 -9.296875 16.3125 -8.640625 L 16.3125 -6.71875 Z M 9.296875 -13.078125 C 8.640625 -13.078125 8.023438 -12.972656 7.453125 -12.765625 C 6.878906 -12.554688 6.378906 -12.257812 5.953125 -11.875 C 5.523438 -11.5 5.175781 -11.054688 4.90625 -10.546875 C 4.632812 -10.035156 4.457031 -9.476562 4.375 -8.875 L 13.984375 -8.875 C 13.941406 -9.519531 13.785156 -10.101562 13.515625 -10.625 C 13.242188 -11.144531 12.890625 -11.582031 12.453125 -11.9375 C 12.023438 -12.300781 11.535156 -12.582031 10.984375 -12.78125 C 10.441406 -12.976562 9.878906 -13.078125 9.296875 -13.078125 Z M 9.296875 -13.078125 "/></g></g></g><g fill="#545454" fill-opacity="1"><g transform="translate(54.064196, 52.305689)"><g><path d="M 13.203125 -14.875 L 15.875 -14.875 L 11.484375 -7.796875 L 11.484375 -7.4375 L 16.234375 0 L 13.5 0 L 9.453125 -6.546875 L 8.90625 -6.546875 L 4.859375 0 L 2.125 0 L 6.875 -7.4375 L 6.875 -7.796875 L 2.484375 -14.875 L 5.15625 -14.875 L 8.90625 -8.703125 L 9.453125 -8.703125 Z M 13.203125 -14.875 "/></g></g></g></svg>