<svg xmlns="http://www.w3.org/2000/svg" xmlns:xlink="http://www.w3.org/1999/xlink" width="150" zoomAndPan="magnify" viewBox="0 0 112.5 112.499997" height="150" preserveAspectRatio="xMidYMid meet" version="1.0"><defs><g/><clipPath id="34667b60db"><path d="M 0 0 L 112.003906 0 L 112.003906 112.003906 L 0 112.003906 Z M 0 0 " clip-rule="nonzero"/></clipPath><clipPath id="22203491cd"><path d="M 5.25 0 L 107.25 0 C 110.148438 0 112.5 2.351562 112.5 5.25 L 112.5 107.25 C 112.5 110.148438 110.148438 112.5 107.25 112.5 L 5.25 112.5 C 2.351562 112.5 0 110.148438 0 107.25 L 0 5.25 C 0 2.351562 2.351562 0 5.25 0 " clip-rule="nonzero"/></clipPath><clipPath id="04bb6ecece"><path d="M 38.617188 22.09375 L 73.867188 22.09375 L 73.867188 67.09375 L 38.617188 67.09375 Z M 38.617188 22.09375 " clip-rule="nonzero"/></clipPath></defs><g clip-path="url(#34667b60db)"><g clip-path="url(#22203491cd)"><path fill="#545454" d="M 0 0 L 112.324219 0 L 112.324219 112.324219 L 0 112.324219 Z M 0 0 " fill-opacity="1" fill-rule="nonzero"/></g></g><g clip-path="url(#04bb6ecece)"><path fill="#ffffff" d="M 39.617188 66.09375 L 72.863281 66.09375 L 72.863281 23.066406 L 39.617188 23.066406 Z M 73.351562 67.078125 L 39.128906 67.078125 C 38.855469 67.078125 38.636719 66.855469 38.636719 66.585938 L 38.636719 22.574219 C 38.636719 22.304688 38.855469 22.082031 39.128906 22.082031 L 73.351562 22.082031 C 73.625 22.082031 73.84375 22.304688 73.84375 22.574219 L 73.84375 66.585938 C 73.84375 66.855469 73.625 67.078125 73.351562 67.078125 Z M 73.351562 67.078125 " fill-opacity="1" fill-rule="evenodd"/></g><path fill="#ffffff" d="M 69.519531 53.78125 L 42.960938 53.78125 C 42.6875 53.78125 42.46875 53.5625 42.46875 53.292969 C 42.46875 53.019531 42.6875 52.800781 42.960938 52.800781 L 69.519531 52.800781 C 69.792969 52.800781 70.011719 53.019531 70.011719 53.292969 C 70.011719 53.5625 69.792969 53.78125 69.519531 53.78125 Z M 69.519531 53.78125 " fill-opacity="1" fill-rule="evenodd"/><path fill="#ffffff" d="M 69.519531 57.160156 L 42.960938 57.160156 C 42.6875 57.160156 42.46875 56.941406 42.46875 56.667969 C 42.46875 56.398438 42.6875 56.175781 42.960938 56.175781 L 69.519531 56.175781 C 69.792969 56.175781 70.011719 56.398438 70.011719 56.667969 C 70.011719 56.941406 69.792969 57.160156 69.519531 57.160156 Z M 69.519531 57.160156 " fill-opacity="1" fill-rule="evenodd"/><path fill="#ffffff" d="M 43.941406 26.691406 C 43.671875 26.691406 43.449219 26.910156 43.449219 27.179688 L 43.449219 36.730469 C 43.449219 37 43.671875 37.21875 43.941406 37.21875 L 53.484375 37.21875 C 53.757812 37.21875 53.976562 37 53.976562 36.730469 L 53.976562 27.179688 C 53.976562 26.910156 53.757812 26.691406 53.484375 26.691406 Z M 53.484375 38.203125 L 43.941406 38.203125 C 43.128906 38.203125 42.46875 37.542969 42.46875 36.730469 L 42.46875 27.179688 C 42.46875 26.367188 43.128906 25.707031 43.941406 25.707031 L 53.484375 25.707031 C 54.300781 25.707031 54.960938 26.367188 54.960938 27.179688 L 54.960938 36.730469 C 54.960938 37.542969 54.300781 38.203125 53.484375 38.203125 Z M 53.484375 38.203125 " fill-opacity="1" fill-rule="evenodd"/><path fill="#ffffff" d="M 52.550781 38.203125 C 52.277344 38.203125 52.058594 37.984375 52.058594 37.710938 L 52.058594 36.117188 C 52.058594 35.511719 51.566406 35.015625 50.957031 35.015625 L 50.0625 35.015625 C 49.667969 35.289062 49.195312 35.441406 48.714844 35.441406 C 48.230469 35.441406 47.757812 35.289062 47.363281 35.015625 L 46.46875 35.015625 C 45.863281 35.015625 45.367188 35.511719 45.367188 36.117188 L 45.367188 37.710938 C 45.367188 37.984375 45.148438 38.203125 44.878906 38.203125 C 44.605469 38.203125 44.386719 37.984375 44.386719 37.710938 L 44.386719 36.117188 C 44.386719 34.96875 45.320312 34.035156 46.46875 34.035156 L 47.527344 34.035156 C 47.640625 34.035156 47.75 34.074219 47.839844 34.144531 C 48.089844 34.347656 48.390625 34.457031 48.714844 34.457031 C 49.039062 34.457031 49.339844 34.347656 49.589844 34.144531 C 49.679688 34.074219 49.789062 34.035156 49.902344 34.035156 L 50.957031 34.035156 C 52.105469 34.035156 53.042969 34.96875 53.042969 36.117188 L 53.042969 37.710938 C 53.042969 37.984375 52.820312 38.203125 52.550781 38.203125 Z M 52.550781 38.203125 " fill-opacity="1" fill-rule="evenodd"/><path fill="#ffffff" d="M 48.714844 29.835938 C 47.949219 29.835938 47.324219 30.460938 47.324219 31.226562 C 47.324219 31.992188 47.949219 32.617188 48.714844 32.617188 C 49.480469 32.613281 50.101562 31.992188 50.101562 31.226562 C 50.101562 30.460938 49.480469 29.835938 48.714844 29.835938 Z M 48.714844 33.597656 C 47.40625 33.597656 46.34375 32.535156 46.34375 31.226562 C 46.34375 29.917969 47.40625 28.855469 48.714844 28.855469 C 50.023438 28.855469 51.085938 29.917969 51.085938 31.226562 C 51.085938 32.535156 50.019531 33.597656 48.714844 33.597656 Z M 48.714844 33.597656 " fill-opacity="1" fill-rule="evenodd"/><path fill="#ffffff" d="M 67.753906 30.546875 L 58.160156 30.546875 C 57.890625 30.546875 57.671875 30.328125 57.671875 30.054688 C 57.671875 29.785156 57.890625 29.566406 58.160156 29.566406 L 67.753906 29.566406 C 68.023438 29.566406 68.242188 29.785156 68.242188 30.054688 C 68.242188 30.328125 68.023438 30.546875 67.75 30.546875 Z M 67.753906 30.546875 " fill-opacity="1" fill-rule="evenodd"/><path fill="#ffffff" d="M 67.753906 34.34375 L 58.160156 34.34375 C 57.890625 34.34375 57.671875 34.125 57.671875 33.855469 C 57.671875 33.582031 57.890625 33.363281 58.160156 33.363281 L 67.753906 33.363281 C 68.023438 33.363281 68.242188 33.582031 68.242188 33.855469 C 68.242188 34.125 68.023438 34.34375 67.75 34.34375 Z M 67.753906 34.34375 " fill-opacity="1" fill-rule="evenodd"/><path fill="#ffffff" d="M 60.222656 42.269531 L 48.253906 42.269531 C 47.984375 42.269531 47.761719 42.050781 47.761719 41.777344 C 47.761719 41.507812 47.984375 41.289062 48.253906 41.289062 L 60.222656 41.289062 C 60.496094 41.289062 60.714844 41.507812 60.714844 41.777344 C 60.714844 42.050781 60.492188 42.269531 60.222656 42.269531 Z M 60.222656 42.269531 " fill-opacity="1" fill-rule="evenodd"/><path fill="#ffffff" d="M 45.109375 42.269531 L 42.960938 42.269531 C 42.6875 42.269531 42.46875 42.050781 42.46875 41.777344 C 42.46875 41.507812 42.6875 41.289062 42.960938 41.289062 L 45.109375 41.289062 C 45.378906 41.289062 45.597656 41.507812 45.597656 41.777344 C 45.597656 42.050781 45.378906 42.269531 45.109375 42.269531 Z M 45.109375 42.269531 " fill-opacity="1" fill-rule="evenodd"/><path fill="#ffffff" d="M 60.222656 45.800781 L 48.253906 45.800781 C 47.984375 45.800781 47.761719 45.582031 47.761719 45.308594 C 47.761719 45.039062 47.984375 44.816406 48.253906 44.816406 L 60.222656 44.816406 C 60.496094 44.816406 60.714844 45.039062 60.714844 45.308594 C 60.714844 45.582031 60.492188 45.800781 60.222656 45.800781 Z M 60.222656 45.800781 " fill-opacity="1" fill-rule="evenodd"/><path fill="#ffffff" d="M 45.109375 45.800781 L 42.960938 45.800781 C 42.6875 45.800781 42.46875 45.582031 42.46875 45.308594 C 42.46875 45.039062 42.6875 44.816406 42.960938 44.816406 L 45.109375 44.816406 C 45.378906 44.816406 45.597656 45.039062 45.597656 45.308594 C 45.597656 45.582031 45.378906 45.800781 45.109375 45.800781 Z M 45.109375 45.800781 " fill-opacity="1" fill-rule="evenodd"/><path fill="#ffffff" d="M 60.222656 49.332031 L 48.253906 49.332031 C 47.984375 49.332031 47.761719 49.109375 47.761719 48.839844 C 47.761719 48.570312 47.984375 48.347656 48.253906 48.347656 L 60.222656 48.347656 C 60.496094 48.347656 60.714844 48.570312 60.714844 48.839844 C 60.714844 49.109375 60.492188 49.332031 60.222656 49.332031 Z M 60.222656 49.332031 " fill-opacity="1" fill-rule="evenodd"/><path fill="#ffffff" d="M 45.109375 49.332031 L 42.960938 49.332031 C 42.6875 49.332031 42.46875 49.109375 42.46875 48.839844 C 42.46875 48.570312 42.6875 48.347656 42.960938 48.347656 L 45.109375 48.347656 C 45.378906 48.347656 45.597656 48.570312 45.597656 48.839844 C 45.597656 49.109375 45.378906 49.332031 45.109375 49.332031 Z M 45.109375 49.332031 " fill-opacity="1" fill-rule="evenodd"/><path fill="#ffffff" d="M 56.238281 60.535156 L 42.960938 60.535156 C 42.6875 60.535156 42.46875 60.316406 42.46875 60.046875 C 42.46875 59.773438 42.6875 59.554688 42.960938 59.554688 L 56.238281 59.554688 C 56.511719 59.554688 56.730469 59.773438 56.730469 60.046875 C 56.730469 60.316406 56.511719 60.535156 56.238281 60.535156 Z M 56.238281 60.535156 " fill-opacity="1" fill-rule="evenodd"/><path fill="#ffffff" d="M 69.519531 63.453125 L 62.769531 63.453125 C 62.496094 63.453125 62.277344 63.234375 62.277344 62.960938 C 62.277344 62.691406 62.496094 62.472656 62.769531 62.472656 L 69.519531 62.472656 C 69.792969 62.472656 70.011719 62.691406 70.011719 62.960938 C 70.011719 63.234375 69.792969 63.453125 69.519531 63.453125 Z M 69.519531 63.453125 " fill-opacity="1" fill-rule="evenodd"/><g fill="#ffffff" fill-opacity="1"><g transform="translate(17.718749, 87.304437)"><g><path d="M 4.34375 -0.890625 C 4.738281 -0.890625 5.078125 -0.957031 5.359375 -1.09375 C 5.648438 -1.226562 5.882812 -1.410156 6.0625 -1.640625 C 6.25 -1.867188 6.382812 -2.128906 6.46875 -2.421875 C 6.5625 -2.722656 6.609375 -3.035156 6.609375 -3.359375 L 6.609375 -3.53125 L 7.78125 -3.53125 L 7.78125 -3.359375 C 7.78125 -2.867188 7.707031 -2.40625 7.5625 -1.96875 C 7.414062 -1.53125 7.195312 -1.148438 6.90625 -0.828125 C 6.613281 -0.503906 6.253906 -0.25 5.828125 -0.0625 C 5.398438 0.113281 4.90625 0.203125 4.34375 0.203125 C 3.257812 0.203125 2.410156 -0.132812 1.796875 -0.8125 C 1.191406 -1.5 0.890625 -2.5 0.890625 -3.8125 L 0.890625 -5.984375 C 0.890625 -7.253906 1.191406 -8.238281 1.796875 -8.9375 C 2.410156 -9.644531 3.257812 -10 4.34375 -10 C 4.90625 -10 5.398438 -9.90625 5.828125 -9.71875 C 6.253906 -9.539062 6.613281 -9.289062 6.90625 -8.96875 C 7.195312 -8.644531 7.414062 -8.265625 7.5625 -7.828125 C 7.707031 -7.398438 7.78125 -6.9375 7.78125 -6.4375 L 7.78125 -6.265625 L 6.609375 -6.265625 L 6.609375 -6.4375 C 6.597656 -6.757812 6.546875 -7.066406 6.453125 -7.359375 C 6.367188 -7.660156 6.234375 -7.925781 6.046875 -8.15625 C 5.867188 -8.382812 5.640625 -8.566406 5.359375 -8.703125 C 5.078125 -8.835938 4.738281 -8.90625 4.34375 -8.90625 C 3.582031 -8.90625 3.015625 -8.628906 2.640625 -8.078125 C 2.265625 -7.523438 2.078125 -6.800781 2.078125 -5.90625 L 2.078125 -3.890625 C 2.078125 -2.929688 2.265625 -2.191406 2.640625 -1.671875 C 3.015625 -1.148438 3.582031 -0.890625 4.34375 -0.890625 Z M 4.34375 -0.890625 "/></g></g></g><g fill="#ffffff" fill-opacity="1"><g transform="translate(26.281973, 87.304437)"><g><path d="M 6.171875 -6.9375 L 7.265625 -6.9375 L 7.265625 0 L 6.171875 0 L 6.171875 -1.265625 L 6 -1.265625 C 5.78125 -0.816406 5.488281 -0.457031 5.125 -0.1875 C 4.757812 0.0703125 4.296875 0.203125 3.734375 0.203125 C 3.347656 0.203125 2.992188 0.132812 2.671875 0 C 2.359375 -0.125 2.085938 -0.3125 1.859375 -0.5625 C 1.628906 -0.8125 1.453125 -1.125 1.328125 -1.5 C 1.203125 -1.875 1.140625 -2.304688 1.140625 -2.796875 L 1.140625 -6.9375 L 2.21875 -6.9375 L 2.21875 -2.9375 C 2.21875 -2.207031 2.367188 -1.675781 2.671875 -1.34375 C 2.972656 -1.007812 3.429688 -0.84375 4.046875 -0.84375 C 4.710938 -0.84375 5.234375 -1.066406 5.609375 -1.515625 C 5.984375 -1.972656 6.171875 -2.578125 6.171875 -3.328125 Z M 6.171875 -6.9375 "/></g></g></g><g fill="#ffffff" fill-opacity="1"><g transform="translate(34.845197, 87.304437)"><g><path d="M 0.828125 -6.9375 L 3.34375 -6.9375 L 3.34375 -6.015625 L 3.515625 -6.015625 C 3.691406 -6.398438 3.941406 -6.679688 4.265625 -6.859375 C 4.597656 -7.046875 4.972656 -7.140625 5.390625 -7.140625 C 6.085938 -7.140625 6.648438 -6.910156 7.078125 -6.453125 C 7.515625 -5.992188 7.742188 -5.328125 7.765625 -4.453125 L 6.625 -4.28125 C 6.625 -4.925781 6.46875 -5.390625 6.15625 -5.671875 C 5.851562 -5.960938 5.476562 -6.109375 5.03125 -6.109375 C 4.738281 -6.109375 4.488281 -6.050781 4.28125 -5.9375 C 4.070312 -5.820312 3.894531 -5.664062 3.75 -5.46875 C 3.613281 -5.28125 3.507812 -5.050781 3.4375 -4.78125 C 3.375 -4.519531 3.34375 -4.242188 3.34375 -3.953125 L 3.34375 -1.015625 L 5.109375 -1.015625 L 5.109375 0 L 0.65625 0 L 0.65625 -1.015625 L 2.25 -1.015625 L 2.25 -5.9375 L 0.828125 -5.9375 Z M 0.828125 -6.9375 "/></g></g></g><g fill="#ffffff" fill-opacity="1"><g transform="translate(43.408421, 87.304437)"><g><path d="M 0.828125 -6.9375 L 3.34375 -6.9375 L 3.34375 -6.015625 L 3.515625 -6.015625 C 3.691406 -6.398438 3.941406 -6.679688 4.265625 -6.859375 C 4.597656 -7.046875 4.972656 -7.140625 5.390625 -7.140625 C 6.085938 -7.140625 6.648438 -6.910156 7.078125 -6.453125 C 7.515625 -5.992188 7.742188 -5.328125 7.765625 -4.453125 L 6.625 -4.28125 C 6.625 -4.925781 6.46875 -5.390625 6.15625 -5.671875 C 5.851562 -5.960938 5.476562 -6.109375 5.03125 -6.109375 C 4.738281 -6.109375 4.488281 -6.050781 4.28125 -5.9375 C 4.070312 -5.820312 3.894531 -5.664062 3.75 -5.46875 C 3.613281 -5.28125 3.507812 -5.050781 3.4375 -4.78125 C 3.375 -4.519531 3.34375 -4.242188 3.34375 -3.953125 L 3.34375 -1.015625 L 5.109375 -1.015625 L 5.109375 0 L 0.65625 0 L 0.65625 -1.015625 L 2.25 -1.015625 L 2.25 -5.9375 L 0.828125 -5.9375 Z M 0.828125 -6.9375 "/></g></g></g><g fill="#ffffff" fill-opacity="1"><g transform="translate(51.971645, 87.304437)"><g><path d="M 1.390625 -1.015625 L 3.828125 -1.015625 L 3.828125 -5.9375 L 1.640625 -5.9375 L 1.640625 -6.9375 L 4.90625 -6.9375 L 4.90625 -1.015625 L 7.1875 -1.015625 L 7.1875 0 L 1.390625 0 Z M 6.078125 -9.625 L 4.90625 -7.984375 L 3.890625 -7.984375 L 4.8125 -9.625 Z M 6.078125 -9.625 "/></g></g></g><g fill="#ffffff" fill-opacity="1"><g transform="translate(60.534869, 87.304437)"><g><path d="M 7.71875 -2.46875 C 7.644531 -2.082031 7.515625 -1.722656 7.328125 -1.390625 C 7.148438 -1.066406 6.921875 -0.785156 6.640625 -0.546875 C 6.359375 -0.316406 6.03125 -0.132812 5.65625 0 C 5.28125 0.132812 4.863281 0.203125 4.40625 0.203125 C 3.925781 0.203125 3.46875 0.125 3.03125 -0.03125 C 2.59375 -0.195312 2.210938 -0.429688 1.890625 -0.734375 C 1.566406 -1.035156 1.304688 -1.40625 1.109375 -1.84375 C 0.921875 -2.28125 0.828125 -2.785156 0.828125 -3.359375 L 0.828125 -3.53125 C 0.828125 -4.09375 0.921875 -4.597656 1.109375 -5.046875 C 1.304688 -5.492188 1.566406 -5.867188 1.890625 -6.171875 C 2.210938 -6.484375 2.59375 -6.722656 3.03125 -6.890625 C 3.46875 -7.054688 3.925781 -7.140625 4.40625 -7.140625 C 4.84375 -7.140625 5.25 -7.070312 5.625 -6.9375 C 6 -6.8125 6.328125 -6.628906 6.609375 -6.390625 C 6.898438 -6.148438 7.132812 -5.863281 7.3125 -5.53125 C 7.5 -5.207031 7.625 -4.859375 7.6875 -4.484375 L 6.59375 -4.234375 C 6.5625 -4.472656 6.492188 -4.707031 6.390625 -4.9375 C 6.285156 -5.164062 6.140625 -5.363281 5.953125 -5.53125 C 5.773438 -5.707031 5.554688 -5.847656 5.296875 -5.953125 C 5.035156 -6.054688 4.726562 -6.109375 4.375 -6.109375 C 4.039062 -6.109375 3.726562 -6.039062 3.4375 -5.90625 C 3.144531 -5.78125 2.882812 -5.601562 2.65625 -5.375 C 2.4375 -5.15625 2.265625 -4.882812 2.140625 -4.5625 C 2.015625 -4.25 1.953125 -3.90625 1.953125 -3.53125 L 1.953125 -3.359375 C 1.953125 -2.960938 2.015625 -2.609375 2.140625 -2.296875 C 2.265625 -1.984375 2.4375 -1.71875 2.65625 -1.5 C 2.882812 -1.289062 3.144531 -1.128906 3.4375 -1.015625 C 3.738281 -0.898438 4.0625 -0.84375 4.40625 -0.84375 C 4.75 -0.84375 5.050781 -0.894531 5.3125 -1 C 5.570312 -1.101562 5.789062 -1.242188 5.96875 -1.421875 C 6.15625 -1.597656 6.300781 -1.796875 6.40625 -2.015625 C 6.507812 -2.242188 6.582031 -2.476562 6.625 -2.71875 Z M 7.71875 -2.46875 "/></g></g></g><g fill="#ffffff" fill-opacity="1"><g transform="translate(69.098093, 87.304437)"><g><path d="M 6.171875 -6.9375 L 7.265625 -6.9375 L 7.265625 0 L 6.171875 0 L 6.171875 -1.265625 L 6 -1.265625 C 5.78125 -0.816406 5.488281 -0.457031 5.125 -0.1875 C 4.757812 0.0703125 4.296875 0.203125 3.734375 0.203125 C 3.347656 0.203125 2.992188 0.132812 2.671875 0 C 2.359375 -0.125 2.085938 -0.3125 1.859375 -0.5625 C 1.628906 -0.8125 1.453125 -1.125 1.328125 -1.5 C 1.203125 -1.875 1.140625 -2.304688 1.140625 -2.796875 L 1.140625 -6.9375 L 2.21875 -6.9375 L 2.21875 -2.9375 C 2.21875 -2.207031 2.367188 -1.675781 2.671875 -1.34375 C 2.972656 -1.007812 3.429688 -0.84375 4.046875 -0.84375 C 4.710938 -0.84375 5.234375 -1.066406 5.609375 -1.515625 C 5.984375 -1.972656 6.171875 -2.578125 6.171875 -3.328125 Z M 6.171875 -6.9375 "/></g></g></g><g fill="#ffffff" fill-opacity="1"><g transform="translate(77.661317, 87.304437)"><g><path d="M 1.21875 -1.015625 L 3.734375 -1.015625 L 3.734375 -8.796875 L 1.296875 -8.796875 L 1.296875 -9.796875 L 4.828125 -9.796875 L 4.828125 -1.015625 L 7.34375 -1.015625 L 7.34375 0 L 1.21875 0 Z M 1.21875 -1.015625 "/></g></g></g><g fill="#ffffff" fill-opacity="1"><g transform="translate(86.224541, 87.304437)"><g><path d="M 7.765625 -3.390625 C 7.765625 -2.804688 7.671875 -2.289062 7.484375 -1.84375 C 7.296875 -1.40625 7.039062 -1.035156 6.71875 -0.734375 C 6.40625 -0.429688 6.035156 -0.195312 5.609375 -0.03125 C 5.179688 0.125 4.738281 0.203125 4.28125 0.203125 C 3.8125 0.203125 3.367188 0.125 2.953125 -0.03125 C 2.535156 -0.195312 2.164062 -0.429688 1.84375 -0.734375 C 1.53125 -1.035156 1.273438 -1.40625 1.078125 -1.84375 C 0.890625 -2.289062 0.796875 -2.804688 0.796875 -3.390625 L 0.796875 -3.5625 C 0.796875 -4.125 0.890625 -4.625 1.078125 -5.0625 C 1.273438 -5.507812 1.535156 -5.882812 1.859375 -6.1875 C 2.179688 -6.5 2.550781 -6.734375 2.96875 -6.890625 C 3.382812 -7.054688 3.820312 -7.140625 4.28125 -7.140625 C 4.738281 -7.140625 5.175781 -7.054688 5.59375 -6.890625 C 6.019531 -6.734375 6.394531 -6.5 6.71875 -6.1875 C 7.039062 -5.882812 7.296875 -5.507812 7.484375 -5.0625 C 7.671875 -4.625 7.765625 -4.125 7.765625 -3.5625 Z M 4.28125 -0.84375 C 4.613281 -0.84375 4.921875 -0.898438 5.203125 -1.015625 C 5.492188 -1.128906 5.742188 -1.296875 5.953125 -1.515625 C 6.171875 -1.742188 6.34375 -2.015625 6.46875 -2.328125 C 6.59375 -2.640625 6.65625 -2.992188 6.65625 -3.390625 L 6.65625 -3.5625 C 6.65625 -3.925781 6.59375 -4.265625 6.46875 -4.578125 C 6.34375 -4.890625 6.171875 -5.15625 5.953125 -5.375 C 5.742188 -5.601562 5.492188 -5.78125 5.203125 -5.90625 C 4.921875 -6.039062 4.613281 -6.109375 4.28125 -6.109375 C 3.957031 -6.109375 3.648438 -6.039062 3.359375 -5.90625 C 3.066406 -5.78125 2.8125 -5.601562 2.59375 -5.375 C 2.382812 -5.15625 2.21875 -4.890625 2.09375 -4.578125 C 1.976562 -4.265625 1.921875 -3.925781 1.921875 -3.5625 L 1.921875 -3.390625 C 1.921875 -2.992188 1.976562 -2.640625 2.09375 -2.328125 C 2.21875 -2.015625 2.382812 -1.742188 2.59375 -1.515625 C 2.8125 -1.296875 3.0625 -1.128906 3.34375 -1.015625 C 3.632812 -0.898438 3.945312 -0.84375 4.28125 -0.84375 Z M 4.28125 -0.84375 "/></g></g></g></svg>