<svg xmlns="http://www.w3.org/2000/svg" xmlns:xlink="http://www.w3.org/1999/xlink" width="150" zoomAndPan="magnify" viewBox="0 0 112.5 112.499997" height="150" preserveAspectRatio="xMidYMid meet" version="1.0"><defs><g/><clipPath id="3edeaa6a86"><path d="M 0 0 L 112.003906 0 L 112.003906 112.003906 L 0 112.003906 Z M 0 0 " clip-rule="nonzero"/></clipPath><clipPath id="7de2aff8dc"><path d="M 5.25 0 L 107.25 0 C 110.148438 0 112.5 2.351562 112.5 5.25 L 112.5 107.25 C 112.5 110.148438 110.148438 112.5 107.25 112.5 L 5.25 112.5 C 2.351562 112.5 0 110.148438 0 107.25 L 0 5.25 C 0 2.351562 2.351562 0 5.25 0 " clip-rule="nonzero"/></clipPath><clipPath id="51fcb4fb85"><path d="M 34 23.78125 L 78 23.78125 L 78 67.28125 L 34 67.28125 Z M 34 23.78125 " clip-rule="nonzero"/></clipPath></defs><g clip-path="url(#3edeaa6a86)"><g clip-path="url(#7de2aff8dc)"><path fill="#545454" d="M 0 0 L 112.324219 0 L 112.324219 112.324219 L 0 112.324219 Z M 0 0 " fill-opacity="1" fill-rule="nonzero"/></g></g><g clip-path="url(#51fcb4fb85)"><path fill="#ffffff" d="M 66.835938 23.738281 C 66.296875 23.738281 66.101562 23.761719 65.859375 23.78125 C 65.847656 23.78125 65.839844 23.78125 65.828125 23.78125 C 61.039062 23.78125 59.164062 25.457031 59.164062 25.457031 C 59.179688 25.46875 59.199219 25.476562 59.210938 25.488281 C 58.976562 25.476562 58.761719 25.457031 58.519531 25.449219 C 58.5 25.449219 58.480469 25.449219 58.460938 25.449219 C 56.984375 25.449219 55.554688 25.683594 54.207031 26.097656 C 52.988281 25.449219 51.078125 24.664062 48.546875 24.203125 C 47.4375 23.945312 46.164062 23.769531 44.710938 23.769531 C 44.535156 23.769531 44.359375 23.777344 44.183594 23.78125 C 44.179688 23.78125 44.179688 23.78125 44.171875 23.78125 C 44.132812 23.78125 44.09375 23.78125 44.054688 23.78125 C 41.53125 23.875 38.660156 24.273438 36.558594 26.582031 C 34.742188 28.566406 33.960938 31.539062 34.175781 35.671875 C 34.261719 37.15625 34.828125 41.957031 36.011719 46.558594 C 37.191406 51.148438 39.324219 57.246094 44.171875 57.246094 C 46.484375 57.246094 49.945312 56.589844 52.488281 55.128906 C 52.496094 55.128906 52.5 55.121094 52.5 55.121094 C 52.507812 55.765625 52.507812 56.1875 52.5 57.21875 C 52.5 57.304688 52.5 57.394531 52.507812 57.480469 L 52.585938 58.550781 C 52.65625 59.421875 52.730469 60.328125 52.730469 60.8125 C 52.730469 64.199219 56.144531 67.28125 59.894531 67.28125 C 63.550781 67.28125 67.496094 64.460938 67.496094 58.269531 L 67.496094 55.644531 C 67.742188 55.636719 68.132812 55.636719 68.132812 55.636719 C 69.367188 55.703125 70.996094 55.296875 71.945312 54.789062 C 73.996094 53.675781 75.113281 51.949219 73.089844 52.433594 C 72.113281 52.667969 71.386719 52.734375 70.769531 52.742188 C 72.1875 51.792969 73.675781 50.140625 74.917969 47.269531 C 77.398438 41.546875 78.433594 31.527344 76.089844 28 C 73.636719 24.292969 69.238281 23.738281 66.835938 23.738281 Z M 66.835938 27.082031 C 68.476562 27.082031 71.710938 27.417969 73.324219 29.847656 C 75.011719 32.402344 73.921875 44.382812 70.097656 48.871094 C 70.460938 48.179688 70.730469 47.152344 70.828125 45.53125 C 70.828125 44.140625 70.75 39.480469 70.828125 38.839844 C 70.929688 37.972656 70.859375 36.417969 70.828125 35.496094 C 70.851562 35.371094 70.851562 35.238281 70.851562 35.089844 C 70.851562 33.539062 70.300781 32.179688 69.578125 31.019531 C 69.519531 30.90625 69.453125 30.796875 69.382812 30.683594 C 69.316406 30.585938 69.257812 30.488281 69.191406 30.398438 C 68.664062 29.601562 67.988281 28.839844 67.136719 28.15625 C 66.402344 27.507812 65.828125 27.128906 65.828125 27.128906 C 65.828125 27.128906 66.21875 27.082031 66.835938 27.082031 Z M 44.710938 27.117188 C 46.890625 27.117188 48.570312 27.59375 50.0625 28.148438 C 49.871094 28.285156 49.675781 28.429688 49.5 28.582031 C 47.945312 29.527344 47.015625 30.875 46.488281 32.449219 C 46.074219 33.417969 45.839844 34.441406 45.839844 35.496094 C 45.839844 35.617188 45.859375 35.738281 45.871094 35.859375 C 45.851562 36.292969 45.839844 36.730469 45.839844 37.167969 C 45.839844 37.167969 45.839844 37.175781 45.839844 37.175781 C 45.839844 37.1875 45.839844 37.195312 45.839844 37.199219 C 45.839844 37.351562 45.890625 37.613281 45.890625 37.972656 C 45.890625 39.675781 45.839844 43.375 45.839844 45.53125 C 45.839844 49.210938 49.753906 52.230469 50.777344 52.230469 C 50.796875 52.230469 50.816406 52.230469 50.835938 52.226562 C 48.890625 53.34375 45.976562 53.898438 44.171875 53.898438 C 39.753906 53.898438 37.652344 38.234375 37.507812 35.496094 C 37.125 28.195312 40.25 27.265625 44.171875 27.128906 C 44.355469 27.121094 44.535156 27.117188 44.710938 27.117188 Z M 58.460938 28.796875 C 61.382812 28.839844 63.40625 29.558594 64.789062 30.554688 C 65.359375 31.023438 66.101562 31.75 66.695312 32.660156 C 67.261719 33.671875 67.496094 34.699219 67.496094 35.496094 C 65.398438 35.671875 63.65625 35.761719 62.882812 36.996094 C 61.117188 39.820312 62.4375 44.59375 63.675781 46.734375 C 63.804688 46.972656 65.25 48.335938 65.828125 48.878906 C 66.035156 49.074219 65.0625 49.34375 64.867188 49.550781 C 64.304688 50.132812 64.3125 51.890625 64.195312 53.871094 C 64.175781 53.890625 64.164062 53.898438 64.164062 53.898438 C 64.164062 53.898438 64.167969 54.082031 64.183594 54.335938 C 64.175781 54.527344 64.164062 54.695312 64.164062 54.898438 L 64.164062 58.269531 C 64.164062 62.472656 61.832031 63.9375 59.894531 63.9375 C 57.832031 63.9375 56.0625 62.246094 56.0625 60.8125 C 56.0625 59.96875 55.925781 58.53125 55.832031 57.246094 C 55.851562 54.269531 55.832031 53.191406 55.832031 52.226562 C 55.832031 51.289062 54.167969 50.550781 54.167969 50.550781 C 54.375 50.0625 55.050781 49.0625 55.050781 49.0625 C 55.554688 47.792969 55.820312 46.589844 55.832031 43.859375 C 55.839844 42.613281 55.671875 41.253906 55.320312 39.695312 C 54.839844 37.574219 53.238281 35.515625 50.835938 35.496094 L 49.25 35.496094 C 49.3125 34.816406 49.417969 34.253906 49.558594 33.777344 C 49.988281 32.789062 50.777344 31.859375 51.785156 31.078125 C 52.019531 30.9375 52.242188 30.800781 52.429688 30.621094 C 54.101562 29.527344 56.222656 28.796875 58.460938 28.796875 Z M 49.214844 38.839844 L 49.308594 38.839844 C 49.269531 38.886719 49.222656 38.925781 49.214844 38.972656 C 49.214844 38.933594 49.210938 38.878906 49.214844 38.839844 Z M 67.496094 38.855469 L 67.5 38.855469 C 67.460938 39.480469 67.449219 40.554688 67.480469 43.75 C 67.488281 44.492188 67.496094 45.140625 67.496094 45.53125 C 67.496094 45.675781 67.515625 45.75 67.527344 45.871094 C 67.105469 45.472656 66.628906 45.023438 66.421875 44.808594 C 65.800781 43.613281 65.386719 41.875 65.378906 40.488281 C 65.53125 40.515625 65.6875 40.519531 65.847656 40.496094 C 66.804688 40.363281 67.539062 39.363281 67.496094 38.992188 C 67.488281 38.9375 67.4375 38.90625 67.402344 38.867188 C 67.4375 38.859375 67.460938 38.855469 67.496094 38.855469 Z M 49.214844 39.070312 C 49.230469 39.480469 49.917969 40.382812 50.835938 40.515625 C 51.285156 40.578125 51.675781 40.414062 52 40.214844 C 52.019531 40.285156 52.054688 40.363281 52.066406 40.433594 C 52.363281 41.734375 52.507812 42.855469 52.5 43.847656 C 52.496094 45.972656 52.3125 46.832031 52.066406 47.519531 C 51.824219 47.898438 51.546875 48.375 51.3125 48.828125 C 50.550781 48.289062 49.171875 46.851562 49.171875 45.53125 C 49.171875 44.394531 49.183594 42.832031 49.195312 41.363281 C 49.203125 40.460938 49.210938 39.78125 49.214844 39.070312 Z M 49.214844 39.070312 " fill-opacity="1" fill-rule="nonzero"/></g><g fill="#ffffff" fill-opacity="1"><g transform="translate(13.435547, 87.304437)"><g><path d="M 2.359375 -4.03125 L 2.359375 0 L 1.1875 0 L 1.1875 -9.796875 L 4.6875 -9.796875 C 5.195312 -9.796875 5.632812 -9.722656 6 -9.578125 C 6.375 -9.429688 6.6875 -9.238281 6.9375 -9 C 7.1875 -8.757812 7.375 -8.476562 7.5 -8.15625 C 7.625 -7.832031 7.6875 -7.492188 7.6875 -7.140625 L 7.6875 -6.71875 C 7.6875 -6.363281 7.625 -6.019531 7.5 -5.6875 C 7.375 -5.363281 7.179688 -5.078125 6.921875 -4.828125 C 6.671875 -4.585938 6.359375 -4.394531 5.984375 -4.25 C 5.617188 -4.101562 5.1875 -4.03125 4.6875 -4.03125 Z M 2.359375 -5.125 L 4.546875 -5.125 C 5.859375 -5.125 6.515625 -5.679688 6.515625 -6.796875 L 6.515625 -7.0625 C 6.515625 -7.550781 6.351562 -7.945312 6.03125 -8.25 C 5.707031 -8.550781 5.210938 -8.703125 4.546875 -8.703125 L 2.359375 -8.703125 Z M 2.359375 -5.125 "/></g></g></g><g fill="#ffffff" fill-opacity="1"><g transform="translate(21.998771, 87.304437)"><g><path d="M 7.765625 -3.390625 C 7.765625 -2.804688 7.671875 -2.289062 7.484375 -1.84375 C 7.296875 -1.40625 7.039062 -1.035156 6.71875 -0.734375 C 6.40625 -0.429688 6.035156 -0.195312 5.609375 -0.03125 C 5.179688 0.125 4.738281 0.203125 4.28125 0.203125 C 3.8125 0.203125 3.367188 0.125 2.953125 -0.03125 C 2.535156 -0.195312 2.164062 -0.429688 1.84375 -0.734375 C 1.53125 -1.035156 1.273438 -1.40625 1.078125 -1.84375 C 0.890625 -2.289062 0.796875 -2.804688 0.796875 -3.390625 L 0.796875 -3.5625 C 0.796875 -4.125 0.890625 -4.625 1.078125 -5.0625 C 1.273438 -5.507812 1.535156 -5.882812 1.859375 -6.1875 C 2.179688 -6.5 2.550781 -6.734375 2.96875 -6.890625 C 3.382812 -7.054688 3.820312 -7.140625 4.28125 -7.140625 C 4.738281 -7.140625 5.175781 -7.054688 5.59375 -6.890625 C 6.019531 -6.734375 6.394531 -6.5 6.71875 -6.1875 C 7.039062 -5.882812 7.296875 -5.507812 7.484375 -5.0625 C 7.671875 -4.625 7.765625 -4.125 7.765625 -3.5625 Z M 4.28125 -0.84375 C 4.613281 -0.84375 4.921875 -0.898438 5.203125 -1.015625 C 5.492188 -1.128906 5.742188 -1.296875 5.953125 -1.515625 C 6.171875 -1.742188 6.34375 -2.015625 6.46875 -2.328125 C 6.59375 -2.640625 6.65625 -2.992188 6.65625 -3.390625 L 6.65625 -3.5625 C 6.65625 -3.925781 6.59375 -4.265625 6.46875 -4.578125 C 6.34375 -4.890625 6.171875 -5.15625 5.953125 -5.375 C 5.742188 -5.601562 5.492188 -5.78125 5.203125 -5.90625 C 4.921875 -6.039062 4.613281 -6.109375 4.28125 -6.109375 C 3.957031 -6.109375 3.648438 -6.039062 3.359375 -5.90625 C 3.066406 -5.78125 2.8125 -5.601562 2.59375 -5.375 C 2.382812 -5.15625 2.21875 -4.890625 2.09375 -4.578125 C 1.976562 -4.265625 1.921875 -3.925781 1.921875 -3.5625 L 1.921875 -3.390625 C 1.921875 -2.992188 1.976562 -2.640625 2.09375 -2.328125 C 2.21875 -2.015625 2.382812 -1.742188 2.59375 -1.515625 C 2.8125 -1.296875 3.0625 -1.128906 3.34375 -1.015625 C 3.632812 -0.898438 3.945312 -0.84375 4.28125 -0.84375 Z M 4.28125 -0.84375 "/></g></g></g><g fill="#ffffff" fill-opacity="1"><g transform="translate(30.561995, 87.304437)"><g><path d="M 2.65625 -5.15625 C 2.65625 -4.8125 2.796875 -4.550781 3.078125 -4.375 C 3.367188 -4.195312 3.890625 -4.082031 4.640625 -4.03125 C 5.453125 -3.96875 6.070312 -3.773438 6.5 -3.453125 C 6.925781 -3.128906 7.140625 -2.660156 7.140625 -2.046875 L 7.140625 -1.953125 C 7.140625 -1.617188 7.070312 -1.316406 6.9375 -1.046875 C 6.800781 -0.785156 6.613281 -0.5625 6.375 -0.375 C 6.132812 -0.1875 5.84375 -0.046875 5.5 0.046875 C 5.164062 0.148438 4.796875 0.203125 4.390625 0.203125 C 3.847656 0.203125 3.382812 0.128906 3 -0.015625 C 2.613281 -0.160156 2.289062 -0.351562 2.03125 -0.59375 C 1.78125 -0.832031 1.585938 -1.101562 1.453125 -1.40625 C 1.328125 -1.707031 1.253906 -2.015625 1.234375 -2.328125 L 2.265625 -2.578125 C 2.316406 -2.046875 2.523438 -1.617188 2.890625 -1.296875 C 3.253906 -0.972656 3.738281 -0.8125 4.34375 -0.8125 C 4.851562 -0.8125 5.265625 -0.910156 5.578125 -1.109375 C 5.890625 -1.304688 6.046875 -1.585938 6.046875 -1.953125 C 6.046875 -2.347656 5.890625 -2.628906 5.578125 -2.796875 C 5.273438 -2.960938 4.78125 -3.070312 4.09375 -3.125 C 3.289062 -3.175781 2.671875 -3.359375 2.234375 -3.671875 C 1.804688 -3.992188 1.59375 -4.457031 1.59375 -5.0625 L 1.59375 -5.15625 C 1.59375 -5.476562 1.660156 -5.765625 1.796875 -6.015625 C 1.941406 -6.265625 2.132812 -6.472656 2.375 -6.640625 C 2.613281 -6.804688 2.878906 -6.929688 3.171875 -7.015625 C 3.472656 -7.097656 3.785156 -7.140625 4.109375 -7.140625 C 4.566406 -7.140625 4.96875 -7.078125 5.3125 -6.953125 C 5.664062 -6.828125 5.957031 -6.660156 6.1875 -6.453125 C 6.414062 -6.253906 6.59375 -6.023438 6.71875 -5.765625 C 6.851562 -5.503906 6.9375 -5.242188 6.96875 -4.984375 L 5.9375 -4.734375 C 5.882812 -5.179688 5.703125 -5.53125 5.390625 -5.78125 C 5.078125 -6.03125 4.671875 -6.15625 4.171875 -6.15625 C 3.972656 -6.15625 3.78125 -6.132812 3.59375 -6.09375 C 3.414062 -6.050781 3.253906 -5.988281 3.109375 -5.90625 C 2.972656 -5.820312 2.863281 -5.71875 2.78125 -5.59375 C 2.695312 -5.46875 2.65625 -5.320312 2.65625 -5.15625 Z M 2.65625 -5.15625 "/></g></g></g><g fill="#ffffff" fill-opacity="1"><g transform="translate(39.125219, 87.304437)"><g><path d="M 0.984375 -6.9375 L 3.15625 -6.9375 L 3.15625 -9.796875 L 4.25 -9.796875 L 4.25 -6.9375 L 6.9375 -6.9375 L 6.9375 -5.9375 L 4.25 -5.9375 L 4.25 -1.421875 C 4.25 -1.148438 4.378906 -1.015625 4.640625 -1.015625 L 6.609375 -1.015625 L 6.609375 0 L 4.234375 0 C 3.921875 0 3.660156 -0.0976562 3.453125 -0.296875 C 3.253906 -0.503906 3.15625 -0.769531 3.15625 -1.09375 L 3.15625 -5.9375 L 0.984375 -5.9375 Z M 0.984375 -6.9375 "/></g></g></g><g fill="#ffffff" fill-opacity="1"><g transform="translate(47.688443, 87.304437)"><g><path d="M 6.5 -1.0625 L 6.328125 -1.0625 C 6.097656 -0.644531 5.789062 -0.328125 5.40625 -0.109375 C 5.019531 0.0976562 4.597656 0.203125 4.140625 0.203125 C 3.671875 0.203125 3.234375 0.125 2.828125 -0.03125 C 2.421875 -0.195312 2.0625 -0.425781 1.75 -0.71875 C 1.4375 -1.019531 1.1875 -1.390625 1 -1.828125 C 0.820312 -2.273438 0.734375 -2.785156 0.734375 -3.359375 L 0.734375 -3.578125 C 0.734375 -4.140625 0.820312 -4.640625 1 -5.078125 C 1.1875 -5.523438 1.4375 -5.898438 1.75 -6.203125 C 2.0625 -6.503906 2.421875 -6.734375 2.828125 -6.890625 C 3.234375 -7.054688 3.660156 -7.140625 4.109375 -7.140625 C 4.617188 -7.140625 5.0625 -7.03125 5.4375 -6.8125 C 5.8125 -6.59375 6.109375 -6.273438 6.328125 -5.859375 L 6.5 -5.859375 L 6.5 -6.9375 L 7.59375 -6.9375 L 7.59375 1.703125 C 7.59375 2.023438 7.488281 2.285156 7.28125 2.484375 C 7.082031 2.691406 6.828125 2.796875 6.515625 2.796875 L 1.984375 2.796875 L 1.984375 1.796875 L 6.125 1.796875 C 6.375 1.796875 6.5 1.65625 6.5 1.375 Z M 4.171875 -0.84375 C 4.492188 -0.84375 4.796875 -0.898438 5.078125 -1.015625 C 5.359375 -1.140625 5.601562 -1.3125 5.8125 -1.53125 C 6.019531 -1.757812 6.1875 -2.03125 6.3125 -2.34375 C 6.4375 -2.65625 6.5 -3.003906 6.5 -3.390625 L 6.5 -3.5625 C 6.5 -3.925781 6.4375 -4.265625 6.3125 -4.578125 C 6.1875 -4.890625 6.019531 -5.15625 5.8125 -5.375 C 5.601562 -5.601562 5.351562 -5.78125 5.0625 -5.90625 C 4.78125 -6.039062 4.484375 -6.109375 4.171875 -6.109375 C 3.847656 -6.109375 3.539062 -6.046875 3.25 -5.921875 C 2.96875 -5.796875 2.722656 -5.617188 2.515625 -5.390625 C 2.304688 -5.171875 2.140625 -4.90625 2.015625 -4.59375 C 1.898438 -4.289062 1.84375 -3.953125 1.84375 -3.578125 L 1.84375 -3.359375 C 1.84375 -2.960938 1.898438 -2.609375 2.015625 -2.296875 C 2.140625 -1.992188 2.304688 -1.734375 2.515625 -1.515625 C 2.722656 -1.296875 2.96875 -1.128906 3.25 -1.015625 C 3.53125 -0.898438 3.835938 -0.84375 4.171875 -0.84375 Z M 4.171875 -0.84375 "/></g></g></g><g fill="#ffffff" fill-opacity="1"><g transform="translate(56.251667, 87.304437)"><g><path d="M 0.828125 -6.9375 L 3.34375 -6.9375 L 3.34375 -6.015625 L 3.515625 -6.015625 C 3.691406 -6.398438 3.941406 -6.679688 4.265625 -6.859375 C 4.597656 -7.046875 4.972656 -7.140625 5.390625 -7.140625 C 6.085938 -7.140625 6.648438 -6.910156 7.078125 -6.453125 C 7.515625 -5.992188 7.742188 -5.328125 7.765625 -4.453125 L 6.625 -4.28125 C 6.625 -4.925781 6.46875 -5.390625 6.15625 -5.671875 C 5.851562 -5.960938 5.476562 -6.109375 5.03125 -6.109375 C 4.738281 -6.109375 4.488281 -6.050781 4.28125 -5.9375 C 4.070312 -5.820312 3.894531 -5.664062 3.75 -5.46875 C 3.613281 -5.28125 3.507812 -5.050781 3.4375 -4.78125 C 3.375 -4.519531 3.34375 -4.242188 3.34375 -3.953125 L 3.34375 -1.015625 L 5.109375 -1.015625 L 5.109375 0 L 0.65625 0 L 0.65625 -1.015625 L 2.25 -1.015625 L 2.25 -5.9375 L 0.828125 -5.9375 Z M 0.828125 -6.9375 "/></g></g></g><g fill="#ffffff" fill-opacity="1"><g transform="translate(64.814891, 87.304437)"><g><path d="M 2.015625 -3.140625 C 2.046875 -2.441406 2.257812 -1.882812 2.65625 -1.46875 C 3.0625 -1.050781 3.625 -0.84375 4.34375 -0.84375 C 4.664062 -0.84375 4.945312 -0.878906 5.1875 -0.953125 C 5.4375 -1.023438 5.644531 -1.125 5.8125 -1.25 C 5.988281 -1.382812 6.128906 -1.535156 6.234375 -1.703125 C 6.335938 -1.878906 6.425781 -2.066406 6.5 -2.265625 L 7.53125 -1.984375 C 7.332031 -1.335938 6.96875 -0.8125 6.4375 -0.40625 C 5.914062 0 5.207031 0.203125 4.3125 0.203125 C 3.8125 0.203125 3.351562 0.113281 2.9375 -0.0625 C 2.53125 -0.238281 2.175781 -0.484375 1.875 -0.796875 C 1.570312 -1.117188 1.335938 -1.5 1.171875 -1.9375 C 1.003906 -2.375 0.921875 -2.859375 0.921875 -3.390625 L 0.921875 -3.71875 C 0.921875 -4.207031 1.003906 -4.660156 1.171875 -5.078125 C 1.347656 -5.503906 1.585938 -5.867188 1.890625 -6.171875 C 2.203125 -6.472656 2.566406 -6.707031 2.984375 -6.875 C 3.398438 -7.050781 3.851562 -7.140625 4.34375 -7.140625 C 4.90625 -7.140625 5.394531 -7.035156 5.8125 -6.828125 C 6.226562 -6.617188 6.566406 -6.359375 6.828125 -6.046875 C 7.097656 -5.742188 7.296875 -5.410156 7.421875 -5.046875 C 7.546875 -4.679688 7.609375 -4.34375 7.609375 -4.03125 L 7.609375 -3.140625 Z M 4.34375 -6.109375 C 4.03125 -6.109375 3.738281 -6.054688 3.46875 -5.953125 C 3.207031 -5.859375 2.976562 -5.722656 2.78125 -5.546875 C 2.582031 -5.367188 2.414062 -5.160156 2.28125 -4.921875 C 2.15625 -4.679688 2.078125 -4.421875 2.046875 -4.140625 L 6.53125 -4.140625 C 6.507812 -4.441406 6.4375 -4.710938 6.3125 -4.953125 C 6.1875 -5.191406 6.019531 -5.394531 5.8125 -5.5625 C 5.613281 -5.738281 5.382812 -5.875 5.125 -5.96875 C 4.875 -6.0625 4.613281 -6.109375 4.34375 -6.109375 Z M 4.34375 -6.109375 "/></g></g></g><g fill="#ffffff" fill-opacity="1"><g transform="translate(73.378115, 87.304437)"><g><path d="M 6.59375 -6.96875 C 6.59375 -7.289062 6.53125 -7.570312 6.40625 -7.8125 C 6.28125 -8.050781 6.109375 -8.25 5.890625 -8.40625 C 5.679688 -8.570312 5.4375 -8.695312 5.15625 -8.78125 C 4.875 -8.863281 4.578125 -8.90625 4.265625 -8.90625 C 3.992188 -8.90625 3.738281 -8.867188 3.5 -8.796875 C 3.257812 -8.722656 3.039062 -8.617188 2.84375 -8.484375 C 2.65625 -8.359375 2.503906 -8.203125 2.390625 -8.015625 C 2.273438 -7.828125 2.21875 -7.601562 2.21875 -7.34375 L 2.21875 -7.265625 C 2.21875 -6.992188 2.273438 -6.757812 2.390625 -6.5625 C 2.503906 -6.375 2.671875 -6.210938 2.890625 -6.078125 C 3.109375 -5.941406 3.378906 -5.828125 3.703125 -5.734375 C 4.035156 -5.648438 4.421875 -5.578125 4.859375 -5.515625 C 5.878906 -5.359375 6.632812 -5.054688 7.125 -4.609375 C 7.613281 -4.171875 7.859375 -3.578125 7.859375 -2.828125 L 7.859375 -2.65625 C 7.859375 -2.238281 7.785156 -1.851562 7.640625 -1.5 C 7.492188 -1.15625 7.273438 -0.851562 6.984375 -0.59375 C 6.703125 -0.34375 6.351562 -0.144531 5.9375 0 C 5.519531 0.132812 5.035156 0.203125 4.484375 0.203125 C 3.859375 0.203125 3.300781 0.113281 2.8125 -0.0625 C 2.332031 -0.25 1.929688 -0.503906 1.609375 -0.828125 C 1.296875 -1.148438 1.050781 -1.53125 0.875 -1.96875 C 0.707031 -2.40625 0.625 -2.878906 0.625 -3.390625 L 0.625 -3.8125 L 1.8125 -3.8125 L 1.8125 -3.46875 C 1.8125 -2.613281 2.046875 -1.96875 2.515625 -1.53125 C 2.984375 -1.101562 3.640625 -0.890625 4.484375 -0.890625 C 5.210938 -0.890625 5.757812 -1.050781 6.125 -1.375 C 6.488281 -1.695312 6.671875 -2.125 6.671875 -2.65625 L 6.671875 -2.75 C 6.671875 -3.257812 6.484375 -3.648438 6.109375 -3.921875 C 5.734375 -4.191406 5.117188 -4.390625 4.265625 -4.515625 C 3.773438 -4.578125 3.332031 -4.675781 2.9375 -4.8125 C 2.539062 -4.945312 2.203125 -5.125 1.921875 -5.34375 C 1.640625 -5.5625 1.421875 -5.820312 1.265625 -6.125 C 1.117188 -6.4375 1.046875 -6.800781 1.046875 -7.21875 L 1.046875 -7.390625 C 1.046875 -7.773438 1.125 -8.125 1.28125 -8.4375 C 1.445312 -8.757812 1.671875 -9.035156 1.953125 -9.265625 C 2.234375 -9.503906 2.570312 -9.6875 2.96875 -9.8125 C 3.363281 -9.9375 3.800781 -10 4.28125 -10 C 4.832031 -10 5.320312 -9.914062 5.75 -9.75 C 6.1875 -9.59375 6.554688 -9.378906 6.859375 -9.109375 C 7.160156 -8.847656 7.382812 -8.535156 7.53125 -8.171875 C 7.6875 -7.816406 7.765625 -7.445312 7.765625 -7.0625 L 7.765625 -6.46875 L 6.59375 -6.46875 Z M 6.59375 -6.96875 "/></g></g></g><g fill="#ffffff" fill-opacity="1"><g transform="translate(81.941339, 87.304437)"><g><path d="M 0.84375 -5.984375 C 0.84375 -7.253906 1.144531 -8.238281 1.75 -8.9375 C 2.351562 -9.644531 3.195312 -10 4.28125 -10 C 5.363281 -10 6.207031 -9.644531 6.8125 -8.9375 C 7.425781 -8.238281 7.734375 -7.253906 7.734375 -5.984375 L 7.734375 -3.8125 C 7.734375 -2.613281 7.476562 -1.675781 6.96875 -1 C 6.457031 -0.320312 5.742188 0.0664062 4.828125 0.171875 L 4.828125 0.75 C 4.828125 1.03125 4.953125 1.171875 5.203125 1.171875 L 6.390625 1.171875 L 6.390625 2.1875 L 4.8125 2.1875 C 4.5 2.1875 4.238281 2.082031 4.03125 1.875 C 3.832031 1.664062 3.734375 1.40625 3.734375 1.09375 L 3.734375 0.171875 C 2.816406 0.0546875 2.101562 -0.332031 1.59375 -1 C 1.09375 -1.675781 0.84375 -2.613281 0.84375 -3.8125 Z M 4.28125 -0.890625 C 5.039062 -0.890625 5.609375 -1.148438 5.984375 -1.671875 C 6.359375 -2.191406 6.546875 -2.929688 6.546875 -3.890625 L 6.546875 -5.90625 C 6.546875 -6.800781 6.359375 -7.523438 5.984375 -8.078125 C 5.609375 -8.628906 5.039062 -8.90625 4.28125 -8.90625 C 3.53125 -8.90625 2.960938 -8.628906 2.578125 -8.078125 C 2.203125 -7.523438 2.015625 -6.800781 2.015625 -5.90625 L 2.015625 -3.890625 C 2.015625 -2.929688 2.203125 -2.191406 2.578125 -1.671875 C 2.960938 -1.148438 3.53125 -0.890625 4.28125 -0.890625 Z M 4.28125 -0.890625 "/></g></g></g><g fill="#ffffff" fill-opacity="1"><g transform="translate(90.504563, 87.304437)"><g><path d="M 1.21875 -9.796875 L 2.390625 -9.796875 L 2.390625 -1.09375 L 7.515625 -1.09375 L 7.515625 0 L 1.21875 0 Z M 1.21875 -9.796875 "/></g></g></g></svg>