<svg xmlns="http://www.w3.org/2000/svg" xmlns:xlink="http://www.w3.org/1999/xlink" width="150" zoomAndPan="magnify" viewBox="0 0 112.5 112.499997" height="150" preserveAspectRatio="xMidYMid meet" version="1.0"><defs><g/><clipPath id="1a5e56d3d6"><path d="M 0 0 L 112.003906 0 L 112.003906 112.003906 L 0 112.003906 Z M 0 0 " clip-rule="nonzero"/></clipPath><clipPath id="840a65e88b"><path d="M 5.25 0 L 107.25 0 C 110.148438 0 112.5 2.351562 112.5 5.25 L 112.5 107.25 C 112.5 110.148438 110.148438 112.5 107.25 112.5 L 5.25 112.5 C 2.351562 112.5 0 110.148438 0 107.25 L 0 5.25 C 0 2.351562 2.351562 0 5.25 0 " clip-rule="nonzero"/></clipPath><clipPath id="7f57717af6"><path d="M 35.464844 22.09375 L 76.714844 22.09375 L 76.714844 67.09375 L 35.464844 67.09375 Z M 35.464844 22.09375 " clip-rule="nonzero"/></clipPath></defs><g clip-path="url(#1a5e56d3d6)"><g clip-path="url(#840a65e88b)"><path fill="#545454" d="M 0 0 L 112.324219 0 L 112.324219 112.324219 L 0 112.324219 Z M 0 0 " fill-opacity="1" fill-rule="nonzero"/></g></g><g clip-path="url(#7f57717af6)"><path fill="#ffffff" d="M 56.082031 22.09375 C 55.453125 22.09375 54.828125 22.25 54.285156 22.5625 L 37.265625 32.464844 C 36.164062 33.105469 35.480469 34.316406 35.480469 35.597656 L 35.480469 53.558594 C 35.480469 54.859375 36.164062 56.054688 37.265625 56.695312 L 41.734375 59.289062 C 43.898438 60.363281 44.667969 60.363281 45.648438 60.363281 C 48.859375 60.363281 50.695312 58.40625 50.695312 55.015625 L 50.695312 36.480469 C 50.695312 36.203125 50.476562 35.976562 50.199219 35.976562 L 48.054688 35.976562 C 47.761719 35.976562 47.554688 36.203125 47.554688 36.480469 L 47.554688 54.996094 C 47.554688 56.519531 45.992188 58.007812 43.46875 56.746094 L 38.792969 54.027344 C 38.621094 53.941406 38.519531 53.75 38.519531 53.558594 L 38.519531 35.613281 C 38.519531 35.40625 38.621094 35.230469 38.792969 35.128906 L 55.816406 25.230469 C 55.96875 25.125 56.175781 25.125 56.347656 25.230469 L 73.371094 35.128906 C 73.542969 35.230469 73.644531 35.40625 73.644531 35.597656 L 73.644531 53.558594 C 73.644531 53.75 73.542969 53.941406 73.386719 54.027344 L 56.347656 63.945312 C 56.195312 64.03125 55.96875 64.03125 55.816406 63.945312 L 51.433594 61.332031 C 51.3125 61.246094 51.144531 61.230469 51.023438 61.296875 C 49.804688 61.992188 49.582031 62.078125 48.449219 62.472656 C 48.175781 62.5625 47.746094 62.734375 48.601562 63.21875 L 54.285156 66.613281 C 54.835938 66.921875 55.457031 67.09375 56.074219 67.09375 C 56.710938 67.09375 57.324219 66.921875 57.875 66.613281 L 74.917969 56.695312 C 76.015625 56.054688 76.703125 54.859375 76.703125 53.558594 L 76.703125 35.613281 C 76.703125 34.316406 76.015625 33.121094 74.917969 32.480469 L 57.875 22.5625 C 57.335938 22.25 56.707031 22.09375 56.082031 22.09375 Z M 60.660156 35.953125 C 55.800781 35.953125 52.898438 38.027344 52.898438 41.488281 C 52.898438 45.246094 55.78125 46.28125 60.453125 46.75 C 66.035156 47.300781 66.464844 48.136719 66.464844 49.242188 C 66.464844 51.148438 64.9375 51.960938 61.347656 51.960938 C 56.832031 51.960938 55.832031 50.816406 55.507812 48.566406 C 55.472656 48.324219 55.269531 48.152344 55.027344 48.152344 L 52.808594 48.152344 C 52.535156 48.152344 52.328125 48.378906 52.328125 48.636719 C 52.328125 51.527344 53.894531 54.96875 61.347656 54.96875 C 66.742188 54.96875 69.832031 52.828125 69.832031 49.089844 C 69.832031 45.382812 67.339844 44.394531 62.117188 43.6875 C 56.8125 42.992188 56.277344 42.628906 56.277344 41.382812 C 56.277344 40.34375 56.742188 38.980469 60.660156 38.980469 C 64.144531 38.980469 65.449219 39.738281 65.984375 42.109375 C 66.035156 42.335938 66.222656 42.511719 66.464844 42.511719 L 68.679688 42.511719 C 68.816406 42.511719 68.9375 42.441406 69.039062 42.335938 C 69.125 42.25 69.175781 42.109375 69.160156 41.957031 C 68.816406 37.871094 66.121094 35.953125 60.660156 35.953125 Z M 60.660156 35.953125 " fill-opacity="1" fill-rule="nonzero"/></g><g fill="#ffffff" fill-opacity="1"><g transform="translate(26.279296, 87.304437)"><g><path d="M 6.203125 -0.5 L 6.375 -0.5 L 6.375 -9.796875 L 7.546875 -9.796875 L 7.546875 0 L 5.1875 0 L 2.359375 -9.296875 L 2.203125 -9.296875 L 2.203125 0 L 1.015625 0 L 1.015625 -9.796875 L 3.375 -9.796875 Z M 6.203125 -0.5 "/></g></g></g><g fill="#ffffff" fill-opacity="1"><g transform="translate(34.84252, 87.304437)"><g><path d="M 7.765625 -3.390625 C 7.765625 -2.804688 7.671875 -2.289062 7.484375 -1.84375 C 7.296875 -1.40625 7.039062 -1.035156 6.71875 -0.734375 C 6.40625 -0.429688 6.035156 -0.195312 5.609375 -0.03125 C 5.179688 0.125 4.738281 0.203125 4.28125 0.203125 C 3.8125 0.203125 3.367188 0.125 2.953125 -0.03125 C 2.535156 -0.195312 2.164062 -0.429688 1.84375 -0.734375 C 1.53125 -1.035156 1.273438 -1.40625 1.078125 -1.84375 C 0.890625 -2.289062 0.796875 -2.804688 0.796875 -3.390625 L 0.796875 -3.5625 C 0.796875 -4.125 0.890625 -4.625 1.078125 -5.0625 C 1.273438 -5.507812 1.535156 -5.882812 1.859375 -6.1875 C 2.179688 -6.5 2.550781 -6.734375 2.96875 -6.890625 C 3.382812 -7.054688 3.820312 -7.140625 4.28125 -7.140625 C 4.738281 -7.140625 5.175781 -7.054688 5.59375 -6.890625 C 6.019531 -6.734375 6.394531 -6.5 6.71875 -6.1875 C 7.039062 -5.882812 7.296875 -5.507812 7.484375 -5.0625 C 7.671875 -4.625 7.765625 -4.125 7.765625 -3.5625 Z M 4.28125 -0.84375 C 4.613281 -0.84375 4.921875 -0.898438 5.203125 -1.015625 C 5.492188 -1.128906 5.742188 -1.296875 5.953125 -1.515625 C 6.171875 -1.742188 6.34375 -2.015625 6.46875 -2.328125 C 6.59375 -2.640625 6.65625 -2.992188 6.65625 -3.390625 L 6.65625 -3.5625 C 6.65625 -3.925781 6.59375 -4.265625 6.46875 -4.578125 C 6.34375 -4.890625 6.171875 -5.15625 5.953125 -5.375 C 5.742188 -5.601562 5.492188 -5.78125 5.203125 -5.90625 C 4.921875 -6.039062 4.613281 -6.109375 4.28125 -6.109375 C 3.957031 -6.109375 3.648438 -6.039062 3.359375 -5.90625 C 3.066406 -5.78125 2.8125 -5.601562 2.59375 -5.375 C 2.382812 -5.15625 2.21875 -4.890625 2.09375 -4.578125 C 1.976562 -4.265625 1.921875 -3.925781 1.921875 -3.5625 L 1.921875 -3.390625 C 1.921875 -2.992188 1.976562 -2.640625 2.09375 -2.328125 C 2.21875 -2.015625 2.382812 -1.742188 2.59375 -1.515625 C 2.8125 -1.296875 3.0625 -1.128906 3.34375 -1.015625 C 3.632812 -0.898438 3.945312 -0.84375 4.28125 -0.84375 Z M 4.28125 -0.84375 "/></g></g></g><g fill="#ffffff" fill-opacity="1"><g transform="translate(43.405744, 87.304437)"><g><path d="M 6.59375 -1.0625 L 6.421875 -1.0625 C 6.316406 -0.84375 6.175781 -0.65625 6 -0.5 C 5.820312 -0.34375 5.632812 -0.210938 5.4375 -0.109375 C 5.238281 -0.00390625 5.023438 0.0703125 4.796875 0.125 C 4.578125 0.175781 4.363281 0.203125 4.15625 0.203125 C 3.6875 0.203125 3.25 0.125 2.84375 -0.03125 C 2.445312 -0.195312 2.097656 -0.425781 1.796875 -0.71875 C 1.492188 -1.019531 1.253906 -1.390625 1.078125 -1.828125 C 0.910156 -2.273438 0.828125 -2.785156 0.828125 -3.359375 L 0.828125 -3.578125 C 0.828125 -4.140625 0.914062 -4.640625 1.09375 -5.078125 C 1.269531 -5.523438 1.503906 -5.898438 1.796875 -6.203125 C 2.097656 -6.503906 2.445312 -6.734375 2.84375 -6.890625 C 3.25 -7.054688 3.675781 -7.140625 4.125 -7.140625 C 4.601562 -7.140625 5.050781 -7.035156 5.46875 -6.828125 C 5.882812 -6.617188 6.203125 -6.296875 6.421875 -5.859375 L 6.59375 -5.859375 L 6.59375 -9.796875 L 7.6875 -9.796875 L 7.6875 0 L 6.59375 0 Z M 4.265625 -0.84375 C 4.597656 -0.84375 4.898438 -0.898438 5.171875 -1.015625 C 5.453125 -1.140625 5.695312 -1.3125 5.90625 -1.53125 C 6.125 -1.757812 6.289062 -2.03125 6.40625 -2.34375 C 6.53125 -2.65625 6.59375 -3.003906 6.59375 -3.390625 L 6.59375 -3.5625 C 6.59375 -3.925781 6.53125 -4.265625 6.40625 -4.578125 C 6.289062 -4.890625 6.125 -5.15625 5.90625 -5.375 C 5.695312 -5.601562 5.453125 -5.78125 5.171875 -5.90625 C 4.890625 -6.039062 4.585938 -6.109375 4.265625 -6.109375 C 3.941406 -6.109375 3.632812 -6.046875 3.34375 -5.921875 C 3.0625 -5.796875 2.816406 -5.617188 2.609375 -5.390625 C 2.398438 -5.171875 2.238281 -4.90625 2.125 -4.59375 C 2.007812 -4.289062 1.953125 -3.953125 1.953125 -3.578125 L 1.953125 -3.359375 C 1.953125 -2.960938 2.007812 -2.609375 2.125 -2.296875 C 2.238281 -1.992188 2.398438 -1.734375 2.609375 -1.515625 C 2.816406 -1.296875 3.0625 -1.128906 3.34375 -1.015625 C 3.625 -0.898438 3.929688 -0.84375 4.265625 -0.84375 Z M 4.265625 -0.84375 "/></g></g></g><g fill="#ffffff" fill-opacity="1"><g transform="translate(51.968968, 87.304437)"><g><path d="M 2.015625 -3.140625 C 2.046875 -2.441406 2.257812 -1.882812 2.65625 -1.46875 C 3.0625 -1.050781 3.625 -0.84375 4.34375 -0.84375 C 4.664062 -0.84375 4.945312 -0.878906 5.1875 -0.953125 C 5.4375 -1.023438 5.644531 -1.125 5.8125 -1.25 C 5.988281 -1.382812 6.128906 -1.535156 6.234375 -1.703125 C 6.335938 -1.878906 6.425781 -2.066406 6.5 -2.265625 L 7.53125 -1.984375 C 7.332031 -1.335938 6.96875 -0.8125 6.4375 -0.40625 C 5.914062 0 5.207031 0.203125 4.3125 0.203125 C 3.8125 0.203125 3.351562 0.113281 2.9375 -0.0625 C 2.53125 -0.238281 2.175781 -0.484375 1.875 -0.796875 C 1.570312 -1.117188 1.335938 -1.5 1.171875 -1.9375 C 1.003906 -2.375 0.921875 -2.859375 0.921875 -3.390625 L 0.921875 -3.71875 C 0.921875 -4.207031 1.003906 -4.660156 1.171875 -5.078125 C 1.347656 -5.503906 1.585938 -5.867188 1.890625 -6.171875 C 2.203125 -6.472656 2.566406 -6.707031 2.984375 -6.875 C 3.398438 -7.050781 3.851562 -7.140625 4.34375 -7.140625 C 4.90625 -7.140625 5.394531 -7.035156 5.8125 -6.828125 C 6.226562 -6.617188 6.566406 -6.359375 6.828125 -6.046875 C 7.097656 -5.742188 7.296875 -5.410156 7.421875 -5.046875 C 7.546875 -4.679688 7.609375 -4.34375 7.609375 -4.03125 L 7.609375 -3.140625 Z M 4.34375 -6.109375 C 4.03125 -6.109375 3.738281 -6.054688 3.46875 -5.953125 C 3.207031 -5.859375 2.976562 -5.722656 2.78125 -5.546875 C 2.582031 -5.367188 2.414062 -5.160156 2.28125 -4.921875 C 2.15625 -4.679688 2.078125 -4.421875 2.046875 -4.140625 L 6.53125 -4.140625 C 6.507812 -4.441406 6.4375 -4.710938 6.3125 -4.953125 C 6.1875 -5.191406 6.019531 -5.394531 5.8125 -5.5625 C 5.613281 -5.738281 5.382812 -5.875 5.125 -5.96875 C 4.875 -6.0625 4.613281 -6.109375 4.34375 -6.109375 Z M 4.34375 -6.109375 "/></g></g></g><g fill="#ffffff" fill-opacity="1"><g transform="translate(60.532192, 87.304437)"><g><path d="M 3.296875 -0.78125 C 3.296875 -1.050781 3.390625 -1.28125 3.578125 -1.46875 C 3.773438 -1.664062 4.007812 -1.765625 4.28125 -1.765625 C 4.550781 -1.765625 4.78125 -1.664062 4.96875 -1.46875 C 5.164062 -1.28125 5.265625 -1.050781 5.265625 -0.78125 C 5.265625 -0.507812 5.164062 -0.273438 4.96875 -0.078125 C 4.78125 0.109375 4.550781 0.203125 4.28125 0.203125 C 4.007812 0.203125 3.773438 0.109375 3.578125 -0.078125 C 3.390625 -0.273438 3.296875 -0.507812 3.296875 -0.78125 Z M 3.296875 -0.78125 "/></g></g></g><g fill="#ffffff" fill-opacity="1"><g transform="translate(69.095416, 87.304437)"><g><path d="M 4.296875 -9.015625 C 4.296875 -9.285156 4.390625 -9.515625 4.578125 -9.703125 C 4.773438 -9.898438 5.007812 -10 5.28125 -10 C 5.550781 -10 5.78125 -9.898438 5.96875 -9.703125 C 6.164062 -9.515625 6.265625 -9.285156 6.265625 -9.015625 C 6.265625 -8.742188 6.164062 -8.507812 5.96875 -8.3125 C 5.78125 -8.125 5.550781 -8.03125 5.28125 -8.03125 C 5.007812 -8.03125 4.773438 -8.125 4.578125 -8.3125 C 4.390625 -8.507812 4.296875 -8.742188 4.296875 -9.015625 Z M 1.96875 -6.9375 L 5.84375 -6.9375 L 5.84375 1.703125 C 5.84375 2.023438 5.738281 2.285156 5.53125 2.484375 C 5.332031 2.691406 5.078125 2.796875 4.765625 2.796875 L 1.640625 2.796875 L 1.640625 1.796875 L 4.375 1.796875 C 4.625 1.796875 4.75 1.65625 4.75 1.375 L 4.75 -5.9375 L 1.96875 -5.9375 Z M 1.96875 -6.9375 "/></g></g></g><g fill="#ffffff" fill-opacity="1"><g transform="translate(77.65864, 87.304437)"><g><path d="M 2.65625 -5.15625 C 2.65625 -4.8125 2.796875 -4.550781 3.078125 -4.375 C 3.367188 -4.195312 3.890625 -4.082031 4.640625 -4.03125 C 5.453125 -3.96875 6.070312 -3.773438 6.5 -3.453125 C 6.925781 -3.128906 7.140625 -2.660156 7.140625 -2.046875 L 7.140625 -1.953125 C 7.140625 -1.617188 7.070312 -1.316406 6.9375 -1.046875 C 6.800781 -0.785156 6.613281 -0.5625 6.375 -0.375 C 6.132812 -0.1875 5.84375 -0.046875 5.5 0.046875 C 5.164062 0.148438 4.796875 0.203125 4.390625 0.203125 C 3.847656 0.203125 3.382812 0.128906 3 -0.015625 C 2.613281 -0.160156 2.289062 -0.351562 2.03125 -0.59375 C 1.78125 -0.832031 1.585938 -1.101562 1.453125 -1.40625 C 1.328125 -1.707031 1.253906 -2.015625 1.234375 -2.328125 L 2.265625 -2.578125 C 2.316406 -2.046875 2.523438 -1.617188 2.890625 -1.296875 C 3.253906 -0.972656 3.738281 -0.8125 4.34375 -0.8125 C 4.851562 -0.8125 5.265625 -0.910156 5.578125 -1.109375 C 5.890625 -1.304688 6.046875 -1.585938 6.046875 -1.953125 C 6.046875 -2.347656 5.890625 -2.628906 5.578125 -2.796875 C 5.273438 -2.960938 4.78125 -3.070312 4.09375 -3.125 C 3.289062 -3.175781 2.671875 -3.359375 2.234375 -3.671875 C 1.804688 -3.992188 1.59375 -4.457031 1.59375 -5.0625 L 1.59375 -5.15625 C 1.59375 -5.476562 1.660156 -5.765625 1.796875 -6.015625 C 1.941406 -6.265625 2.132812 -6.472656 2.375 -6.640625 C 2.613281 -6.804688 2.878906 -6.929688 3.171875 -7.015625 C 3.472656 -7.097656 3.785156 -7.140625 4.109375 -7.140625 C 4.566406 -7.140625 4.96875 -7.078125 5.3125 -6.953125 C 5.664062 -6.828125 5.957031 -6.660156 6.1875 -6.453125 C 6.414062 -6.253906 6.59375 -6.023438 6.71875 -5.765625 C 6.851562 -5.503906 6.9375 -5.242188 6.96875 -4.984375 L 5.9375 -4.734375 C 5.882812 -5.179688 5.703125 -5.53125 5.390625 -5.78125 C 5.078125 -6.03125 4.671875 -6.15625 4.171875 -6.15625 C 3.972656 -6.15625 3.78125 -6.132812 3.59375 -6.09375 C 3.414062 -6.050781 3.253906 -5.988281 3.109375 -5.90625 C 2.972656 -5.820312 2.863281 -5.71875 2.78125 -5.59375 C 2.695312 -5.46875 2.65625 -5.320312 2.65625 -5.15625 Z M 2.65625 -5.15625 "/></g></g></g></svg>