<svg xmlns="http://www.w3.org/2000/svg" xmlns:xlink="http://www.w3.org/1999/xlink" width="150" zoomAndPan="magnify" viewBox="0 0 112.5 112.499997" height="150" preserveAspectRatio="xMidYMid meet" version="1.0"><defs><g/><clipPath id="f7df4ad731"><path d="M 0 0 L 112.003906 0 L 112.003906 112.003906 L 0 112.003906 Z M 0 0 " clip-rule="nonzero"/></clipPath><clipPath id="5bfdc3c06e"><path d="M 5.25 0 L 107.25 0 C 110.148438 0 112.5 2.351562 112.5 5.25 L 112.5 107.25 C 112.5 110.148438 110.148438 112.5 107.25 112.5 L 5.25 112.5 C 2.351562 112.5 0 110.148438 0 107.25 L 0 5.25 C 0 2.351562 2.351562 0 5.25 0 " clip-rule="nonzero"/></clipPath><clipPath id="a619b3bbba"><path d="M 33.75 22.09375 L 78.75 22.09375 L 78.75 67.09375 L 33.75 67.09375 Z M 33.75 22.09375 " clip-rule="nonzero"/></clipPath></defs><g clip-path="url(#f7df4ad731)"><g clip-path="url(#5bfdc3c06e)"><path fill="#545454" d="M 0 0 L 112.324219 0 L 112.324219 112.324219 L 0 112.324219 Z M 0 0 " fill-opacity="1" fill-rule="nonzero"/></g></g><g clip-path="url(#a619b3bbba)"><path fill="#ffffff" d="M 71.25 67.09375 L 41.25 67.09375 C 40.757812 67.09375 40.269531 67.046875 39.789062 66.949219 C 39.304688 66.855469 38.835938 66.710938 38.382812 66.523438 C 37.925781 66.335938 37.496094 66.101562 37.085938 65.828125 C 36.675781 65.554688 36.296875 65.246094 35.949219 64.898438 C 35.601562 64.546875 35.289062 64.167969 35.015625 63.761719 C 34.742188 63.351562 34.511719 62.917969 34.324219 62.464844 C 34.132812 62.011719 33.992188 61.539062 33.894531 61.058594 C 33.800781 60.574219 33.75 60.085938 33.75 59.59375 L 33.75 29.59375 C 33.75 29.101562 33.800781 28.617188 33.894531 28.132812 C 33.992188 27.648438 34.132812 27.179688 34.324219 26.726562 C 34.511719 26.273438 34.742188 25.839844 35.015625 25.429688 C 35.289062 25.019531 35.601562 24.640625 35.949219 24.292969 C 36.296875 23.945312 36.675781 23.636719 37.085938 23.363281 C 37.496094 23.089844 37.925781 22.855469 38.382812 22.667969 C 38.835938 22.480469 39.304688 22.335938 39.789062 22.242188 C 40.269531 22.144531 40.757812 22.097656 41.25 22.09375 L 71.25 22.09375 C 71.742188 22.097656 72.230469 22.144531 72.710938 22.242188 C 73.195312 22.335938 73.664062 22.480469 74.117188 22.667969 C 74.574219 22.855469 75.003906 23.089844 75.414062 23.363281 C 75.824219 23.636719 76.203125 23.945312 76.550781 24.292969 C 76.898438 24.640625 77.210938 25.019531 77.484375 25.429688 C 77.757812 25.839844 77.988281 26.273438 78.175781 26.726562 C 78.367188 27.179688 78.507812 27.648438 78.605469 28.132812 C 78.699219 28.617188 78.75 29.101562 78.75 29.59375 L 78.75 59.59375 C 78.75 60.085938 78.699219 60.574219 78.605469 61.058594 C 78.507812 61.539062 78.367188 62.007812 78.175781 62.464844 C 77.988281 62.917969 77.757812 63.351562 77.484375 63.761719 C 77.210938 64.167969 76.898438 64.546875 76.550781 64.898438 C 76.203125 65.246094 75.824219 65.554688 75.414062 65.828125 C 75.003906 66.101562 74.574219 66.335938 74.117188 66.523438 C 73.664062 66.710938 73.195312 66.855469 72.710938 66.949219 C 72.230469 67.046875 71.742188 67.09375 71.25 67.09375 Z M 41.25 27.09375 C 40.917969 27.09375 40.597656 27.160156 40.292969 27.285156 C 39.988281 27.414062 39.714844 27.59375 39.480469 27.828125 C 39.246094 28.0625 39.066406 28.332031 38.941406 28.640625 C 38.8125 28.945312 38.75 29.265625 38.75 29.59375 L 38.75 59.59375 C 38.75 59.925781 38.8125 60.246094 38.941406 60.550781 C 39.066406 60.859375 39.246094 61.128906 39.480469 61.363281 C 39.714844 61.597656 39.988281 61.777344 40.292969 61.90625 C 40.597656 62.03125 40.917969 62.09375 41.25 62.09375 L 71.25 62.09375 C 71.582031 62.09375 71.902344 62.03125 72.207031 61.90625 C 72.511719 61.777344 72.785156 61.597656 73.019531 61.363281 C 73.253906 61.128906 73.433594 60.859375 73.558594 60.550781 C 73.6875 60.246094 73.75 59.925781 73.75 59.59375 L 73.75 29.59375 C 73.75 29.265625 73.6875 28.945312 73.558594 28.640625 C 73.433594 28.332031 73.253906 28.0625 73.019531 27.828125 C 72.785156 27.59375 72.511719 27.414062 72.207031 27.285156 C 71.902344 27.160156 71.582031 27.09375 71.25 27.09375 Z M 41.25 27.09375 " fill-opacity="1" fill-rule="nonzero"/></g><path fill="#ffffff" d="M 46.25 57.09375 C 45.917969 57.09375 45.597656 57.03125 45.292969 56.90625 C 44.988281 56.777344 44.714844 56.597656 44.480469 56.363281 C 44.246094 56.128906 44.066406 55.859375 43.941406 55.550781 C 43.8125 55.246094 43.75 54.925781 43.75 54.59375 L 43.75 42.09375 C 43.75 41.765625 43.8125 41.445312 43.941406 41.140625 C 44.066406 40.832031 44.246094 40.5625 44.480469 40.328125 C 44.714844 40.09375 44.988281 39.914062 45.292969 39.785156 C 45.597656 39.660156 45.917969 39.59375 46.25 39.59375 C 46.582031 39.59375 46.902344 39.660156 47.207031 39.785156 C 47.511719 39.914062 47.785156 40.09375 48.019531 40.328125 C 48.253906 40.5625 48.433594 40.832031 48.558594 41.140625 C 48.6875 41.445312 48.75 41.765625 48.75 42.09375 L 48.75 54.59375 C 48.75 54.925781 48.6875 55.246094 48.558594 55.550781 C 48.433594 55.859375 48.253906 56.128906 48.019531 56.363281 C 47.785156 56.597656 47.511719 56.777344 47.207031 56.90625 C 46.902344 57.03125 46.582031 57.09375 46.25 57.09375 Z M 46.25 57.09375 " fill-opacity="1" fill-rule="nonzero"/><path fill="#ffffff" d="M 46.25 37.121094 C 45.917969 37.121094 45.597656 37.058594 45.292969 36.933594 C 44.984375 36.804688 44.714844 36.625 44.476562 36.390625 C 44.242188 36.160156 44.058594 35.886719 43.933594 35.582031 C 43.804688 35.277344 43.738281 34.957031 43.738281 34.625 C 43.734375 34.292969 43.796875 33.972656 43.925781 33.664062 C 44.050781 33.359375 44.230469 33.085938 44.460938 32.851562 C 44.695312 32.613281 44.964844 32.433594 45.273438 32.304688 C 45.578125 32.175781 45.898438 32.109375 46.230469 32.109375 C 46.5625 32.105469 46.882812 32.167969 47.1875 32.292969 C 47.496094 32.417969 47.769531 32.597656 48.003906 32.832031 C 48.242188 33.0625 48.421875 33.332031 48.550781 33.640625 C 48.683594 33.945312 48.746094 34.261719 48.75 34.59375 L 48.75 34.621094 C 48.75 34.953125 48.6875 35.269531 48.558594 35.578125 C 48.433594 35.882812 48.253906 36.152344 48.019531 36.386719 C 47.785156 36.621094 47.511719 36.804688 47.207031 36.929688 C 46.902344 37.058594 46.582031 37.121094 46.25 37.121094 Z M 46.25 37.121094 " fill-opacity="1" fill-rule="nonzero"/><path fill="#ffffff" d="M 56.25 57.09375 C 55.917969 57.09375 55.597656 57.03125 55.292969 56.90625 C 54.988281 56.777344 54.714844 56.597656 54.480469 56.363281 C 54.246094 56.128906 54.066406 55.859375 53.941406 55.550781 C 53.8125 55.246094 53.75 54.925781 53.75 54.59375 L 53.75 42.09375 C 53.75 41.765625 53.8125 41.445312 53.941406 41.140625 C 54.066406 40.832031 54.246094 40.5625 54.480469 40.328125 C 54.714844 40.09375 54.988281 39.914062 55.292969 39.785156 C 55.597656 39.660156 55.917969 39.59375 56.25 39.59375 C 56.582031 39.59375 56.902344 39.660156 57.207031 39.785156 C 57.511719 39.914062 57.785156 40.09375 58.019531 40.328125 C 58.253906 40.5625 58.433594 40.832031 58.558594 41.140625 C 58.6875 41.445312 58.75 41.765625 58.75 42.09375 L 58.75 54.59375 C 58.75 54.925781 58.6875 55.246094 58.558594 55.550781 C 58.433594 55.859375 58.253906 56.128906 58.019531 56.363281 C 57.785156 56.597656 57.511719 56.777344 57.207031 56.90625 C 56.902344 57.03125 56.582031 57.09375 56.25 57.09375 Z M 56.25 57.09375 " fill-opacity="1" fill-rule="nonzero"/><path fill="#ffffff" d="M 66.25 57.09375 C 65.917969 57.09375 65.597656 57.03125 65.292969 56.90625 C 64.988281 56.777344 64.714844 56.597656 64.480469 56.363281 C 64.246094 56.128906 64.066406 55.859375 63.941406 55.550781 C 63.8125 55.246094 63.75 54.925781 63.75 54.59375 L 63.75 47.09375 C 63.75 46.765625 63.6875 46.445312 63.558594 46.140625 C 63.433594 45.832031 63.253906 45.5625 63.019531 45.328125 C 62.785156 45.09375 62.511719 44.914062 62.207031 44.785156 C 61.902344 44.660156 61.582031 44.59375 61.25 44.59375 C 60.917969 44.59375 60.597656 44.660156 60.292969 44.785156 C 59.988281 44.914062 59.714844 45.09375 59.480469 45.328125 C 59.246094 45.5625 59.066406 45.832031 58.941406 46.140625 C 58.8125 46.445312 58.75 46.765625 58.75 47.09375 C 58.75 47.425781 58.6875 47.746094 58.558594 48.050781 C 58.433594 48.359375 58.253906 48.628906 58.019531 48.863281 C 57.785156 49.097656 57.511719 49.277344 57.207031 49.40625 C 56.902344 49.53125 56.582031 49.59375 56.25 49.59375 C 55.917969 49.59375 55.597656 49.53125 55.292969 49.40625 C 54.988281 49.277344 54.714844 49.097656 54.480469 48.863281 C 54.246094 48.628906 54.066406 48.359375 53.941406 48.050781 C 53.8125 47.746094 53.75 47.425781 53.75 47.09375 C 53.75 46.601562 53.796875 46.117188 53.894531 45.632812 C 53.988281 45.148438 54.132812 44.679688 54.320312 44.226562 C 54.507812 43.769531 54.742188 43.339844 55.015625 42.929688 C 55.289062 42.519531 55.597656 42.140625 55.945312 41.792969 C 56.292969 41.445312 56.671875 41.132812 57.082031 40.859375 C 57.492188 40.585938 57.925781 40.355469 58.378906 40.167969 C 58.835938 39.976562 59.304688 39.835938 59.785156 39.738281 C 60.269531 39.644531 60.757812 39.59375 61.25 39.59375 C 61.742188 39.59375 62.230469 39.644531 62.714844 39.738281 C 63.195312 39.835938 63.664062 39.976562 64.121094 40.167969 C 64.574219 40.355469 65.007812 40.585938 65.417969 40.859375 C 65.828125 41.132812 66.203125 41.445312 66.554688 41.792969 C 66.902344 42.140625 67.210938 42.519531 67.484375 42.929688 C 67.757812 43.339844 67.992188 43.769531 68.179688 44.226562 C 68.367188 44.679688 68.511719 45.148438 68.605469 45.632812 C 68.703125 46.117188 68.75 46.601562 68.75 47.09375 L 68.75 54.59375 C 68.75 54.925781 68.6875 55.246094 68.558594 55.550781 C 68.433594 55.859375 68.253906 56.128906 68.019531 56.363281 C 67.785156 56.597656 67.511719 56.777344 67.207031 56.90625 C 66.902344 57.03125 66.582031 57.09375 66.25 57.09375 Z M 66.25 57.09375 " fill-opacity="1" fill-rule="nonzero"/><g fill="#ffffff" fill-opacity="1"><g transform="translate(22.001953, 87.304437)"><g><path d="M 1.21875 -9.796875 L 2.390625 -9.796875 L 2.390625 -1.09375 L 7.515625 -1.09375 L 7.515625 0 L 1.21875 0 Z M 1.21875 -9.796875 "/></g></g></g><g fill="#ffffff" fill-opacity="1"><g transform="translate(30.565177, 87.304437)"><g><path d="M 3.375 -9.015625 C 3.375 -9.285156 3.46875 -9.515625 3.65625 -9.703125 C 3.851562 -9.898438 4.085938 -10 4.359375 -10 C 4.628906 -10 4.859375 -9.898438 5.046875 -9.703125 C 5.234375 -9.515625 5.328125 -9.285156 5.328125 -9.015625 C 5.328125 -8.742188 5.234375 -8.507812 5.046875 -8.3125 C 4.859375 -8.125 4.628906 -8.03125 4.359375 -8.03125 C 4.085938 -8.03125 3.851562 -8.125 3.65625 -8.3125 C 3.46875 -8.507812 3.375 -8.742188 3.375 -9.015625 Z M 1.390625 -1.015625 L 3.828125 -1.015625 L 3.828125 -5.9375 L 1.640625 -5.9375 L 1.640625 -6.9375 L 4.90625 -6.9375 L 4.90625 -1.015625 L 7.1875 -1.015625 L 7.1875 0 L 1.390625 0 Z M 1.390625 -1.015625 "/></g></g></g><g fill="#ffffff" fill-opacity="1"><g transform="translate(39.128401, 87.304437)"><g><path d="M 2.3125 0 L 1.21875 0 L 1.21875 -6.9375 L 2.3125 -6.9375 L 2.3125 -5.765625 L 2.484375 -5.765625 C 2.910156 -6.679688 3.65625 -7.140625 4.71875 -7.140625 C 5.519531 -7.140625 6.15625 -6.890625 6.625 -6.390625 C 7.101562 -5.890625 7.34375 -5.140625 7.34375 -4.140625 L 7.34375 0 L 6.265625 0 L 6.265625 -3.921875 C 6.265625 -4.648438 6.097656 -5.195312 5.765625 -5.5625 C 5.441406 -5.925781 5 -6.109375 4.4375 -6.109375 C 3.769531 -6.109375 3.25 -5.878906 2.875 -5.421875 C 2.5 -4.972656 2.3125 -4.367188 2.3125 -3.609375 Z M 2.3125 0 "/></g></g></g><g fill="#ffffff" fill-opacity="1"><g transform="translate(47.691625, 87.304437)"><g><path d="M 3.015625 -4.0625 L 3.25 -4.0625 L 5.890625 -6.9375 L 7.234375 -6.9375 L 7.234375 -6.859375 L 4.359375 -3.6875 L 4.359375 -3.4375 L 7.578125 -0.078125 L 7.578125 0 L 6.234375 0 L 3.28125 -3.046875 L 3.015625 -3.046875 L 3.015625 0 L 1.921875 0 L 1.921875 -9.796875 L 3.015625 -9.796875 Z M 3.015625 -4.0625 "/></g></g></g><g fill="#ffffff" fill-opacity="1"><g transform="translate(56.254849, 87.304437)"><g><path d="M 2.015625 -3.140625 C 2.046875 -2.441406 2.257812 -1.882812 2.65625 -1.46875 C 3.0625 -1.050781 3.625 -0.84375 4.34375 -0.84375 C 4.664062 -0.84375 4.945312 -0.878906 5.1875 -0.953125 C 5.4375 -1.023438 5.644531 -1.125 5.8125 -1.25 C 5.988281 -1.382812 6.128906 -1.535156 6.234375 -1.703125 C 6.335938 -1.878906 6.425781 -2.066406 6.5 -2.265625 L 7.53125 -1.984375 C 7.332031 -1.335938 6.96875 -0.8125 6.4375 -0.40625 C 5.914062 0 5.207031 0.203125 4.3125 0.203125 C 3.8125 0.203125 3.351562 0.113281 2.9375 -0.0625 C 2.53125 -0.238281 2.175781 -0.484375 1.875 -0.796875 C 1.570312 -1.117188 1.335938 -1.5 1.171875 -1.9375 C 1.003906 -2.375 0.921875 -2.859375 0.921875 -3.390625 L 0.921875 -3.71875 C 0.921875 -4.207031 1.003906 -4.660156 1.171875 -5.078125 C 1.347656 -5.503906 1.585938 -5.867188 1.890625 -6.171875 C 2.203125 -6.472656 2.566406 -6.707031 2.984375 -6.875 C 3.398438 -7.050781 3.851562 -7.140625 4.34375 -7.140625 C 4.90625 -7.140625 5.394531 -7.035156 5.8125 -6.828125 C 6.226562 -6.617188 6.566406 -6.359375 6.828125 -6.046875 C 7.097656 -5.742188 7.296875 -5.410156 7.421875 -5.046875 C 7.546875 -4.679688 7.609375 -4.34375 7.609375 -4.03125 L 7.609375 -3.140625 Z M 4.34375 -6.109375 C 4.03125 -6.109375 3.738281 -6.054688 3.46875 -5.953125 C 3.207031 -5.859375 2.976562 -5.722656 2.78125 -5.546875 C 2.582031 -5.367188 2.414062 -5.160156 2.28125 -4.921875 C 2.15625 -4.679688 2.078125 -4.421875 2.046875 -4.140625 L 6.53125 -4.140625 C 6.507812 -4.441406 6.4375 -4.710938 6.3125 -4.953125 C 6.1875 -5.191406 6.019531 -5.394531 5.8125 -5.5625 C 5.613281 -5.738281 5.382812 -5.875 5.125 -5.96875 C 4.875 -6.0625 4.613281 -6.109375 4.34375 -6.109375 Z M 4.34375 -6.109375 "/></g></g></g><g fill="#ffffff" fill-opacity="1"><g transform="translate(64.818073, 87.304437)"><g><path d="M 6.59375 -1.0625 L 6.421875 -1.0625 C 6.316406 -0.84375 6.175781 -0.65625 6 -0.5 C 5.820312 -0.34375 5.632812 -0.210938 5.4375 -0.109375 C 5.238281 -0.00390625 5.023438 0.0703125 4.796875 0.125 C 4.578125 0.175781 4.363281 0.203125 4.15625 0.203125 C 3.6875 0.203125 3.25 0.125 2.84375 -0.03125 C 2.445312 -0.195312 2.097656 -0.425781 1.796875 -0.71875 C 1.492188 -1.019531 1.253906 -1.390625 1.078125 -1.828125 C 0.910156 -2.273438 0.828125 -2.785156 0.828125 -3.359375 L 0.828125 -3.578125 C 0.828125 -4.140625 0.914062 -4.640625 1.09375 -5.078125 C 1.269531 -5.523438 1.503906 -5.898438 1.796875 -6.203125 C 2.097656 -6.503906 2.445312 -6.734375 2.84375 -6.890625 C 3.25 -7.054688 3.675781 -7.140625 4.125 -7.140625 C 4.601562 -7.140625 5.050781 -7.035156 5.46875 -6.828125 C 5.882812 -6.617188 6.203125 -6.296875 6.421875 -5.859375 L 6.59375 -5.859375 L 6.59375 -9.796875 L 7.6875 -9.796875 L 7.6875 0 L 6.59375 0 Z M 4.265625 -0.84375 C 4.597656 -0.84375 4.898438 -0.898438 5.171875 -1.015625 C 5.453125 -1.140625 5.695312 -1.3125 5.90625 -1.53125 C 6.125 -1.757812 6.289062 -2.03125 6.40625 -2.34375 C 6.53125 -2.65625 6.59375 -3.003906 6.59375 -3.390625 L 6.59375 -3.5625 C 6.59375 -3.925781 6.53125 -4.265625 6.40625 -4.578125 C 6.289062 -4.890625 6.125 -5.15625 5.90625 -5.375 C 5.695312 -5.601562 5.453125 -5.78125 5.171875 -5.90625 C 4.890625 -6.039062 4.585938 -6.109375 4.265625 -6.109375 C 3.941406 -6.109375 3.632812 -6.046875 3.34375 -5.921875 C 3.0625 -5.796875 2.816406 -5.617188 2.609375 -5.390625 C 2.398438 -5.171875 2.238281 -4.90625 2.125 -4.59375 C 2.007812 -4.289062 1.953125 -3.953125 1.953125 -3.578125 L 1.953125 -3.359375 C 1.953125 -2.960938 2.007812 -2.609375 2.125 -2.296875 C 2.238281 -1.992188 2.398438 -1.734375 2.609375 -1.515625 C 2.816406 -1.296875 3.0625 -1.128906 3.34375 -1.015625 C 3.625 -0.898438 3.929688 -0.84375 4.265625 -0.84375 Z M 4.265625 -0.84375 "/></g></g></g><g fill="#ffffff" fill-opacity="1"><g transform="translate(73.381297, 87.304437)"><g><path d="M 1.171875 -9.796875 L 7.390625 -9.796875 L 7.390625 -8.703125 L 4.875 -8.703125 L 4.875 -1.09375 L 7.390625 -1.09375 L 7.390625 0 L 1.171875 0 L 1.171875 -1.09375 L 3.703125 -1.09375 L 3.703125 -8.703125 L 1.171875 -8.703125 Z M 1.171875 -9.796875 "/></g></g></g><g fill="#ffffff" fill-opacity="1"><g transform="translate(81.944521, 87.304437)"><g><path d="M 2.3125 0 L 1.21875 0 L 1.21875 -6.9375 L 2.3125 -6.9375 L 2.3125 -5.765625 L 2.484375 -5.765625 C 2.910156 -6.679688 3.65625 -7.140625 4.71875 -7.140625 C 5.519531 -7.140625 6.15625 -6.890625 6.625 -6.390625 C 7.101562 -5.890625 7.34375 -5.140625 7.34375 -4.140625 L 7.34375 0 L 6.265625 0 L 6.265625 -3.921875 C 6.265625 -4.648438 6.097656 -5.195312 5.765625 -5.5625 C 5.441406 -5.925781 5 -6.109375 4.4375 -6.109375 C 3.769531 -6.109375 3.25 -5.878906 2.875 -5.421875 C 2.5 -4.972656 2.3125 -4.367188 2.3125 -3.609375 Z M 2.3125 0 "/></g></g></g></svg>