<svg xmlns="http://www.w3.org/2000/svg" xmlns:xlink="http://www.w3.org/1999/xlink" width="150" zoomAndPan="magnify" viewBox="0 0 112.5 112.499997" height="150" preserveAspectRatio="xMidYMid meet" version="1.0"><defs><g/><clipPath id="c5af421cfc"><path d="M 0 0 L 112.003906 0 L 112.003906 112.003906 L 0 112.003906 Z M 0 0 " clip-rule="nonzero"/></clipPath><clipPath id="57add7a860"><path d="M 5.25 0 L 107.25 0 C 110.148438 0 112.5 2.351562 112.5 5.25 L 112.5 107.25 C 112.5 110.148438 110.148438 112.5 107.25 112.5 L 5.25 112.5 C 2.351562 112.5 0 110.148438 0 107.25 L 0 5.25 C 0 2.351562 2.351562 0 5.25 0 " clip-rule="nonzero"/></clipPath><clipPath id="974400e8b7"><path d="M 34.363281 22.09375 L 77.863281 22.09375 L 77.863281 67.09375 L 34.363281 67.09375 Z M 34.363281 22.09375 " clip-rule="nonzero"/></clipPath></defs><g clip-path="url(#c5af421cfc)"><g clip-path="url(#57add7a860)"><path fill="#545454" d="M 0 0 L 112.324219 0 L 112.324219 112.324219 L 0 112.324219 Z M 0 0 " fill-opacity="1" fill-rule="nonzero"/></g></g><g clip-path="url(#974400e8b7)"><path fill="#ffffff" d="M 56.175781 67.027344 C 55.914062 67.027344 55.660156 66.988281 55.414062 66.90625 L 40.953125 62.054688 C 40.515625 61.910156 40.152344 61.660156 39.859375 61.304688 C 39.566406 60.949219 39.390625 60.542969 39.328125 60.085938 L 34.507812 24.925781 C 34.457031 24.578125 34.484375 24.234375 34.582031 23.898438 C 34.683594 23.5625 34.847656 23.261719 35.074219 23 C 35.304688 22.734375 35.578125 22.527344 35.894531 22.382812 C 36.210938 22.238281 36.546875 22.164062 36.894531 22.164062 L 75.453125 22.164062 C 75.800781 22.164062 76.132812 22.238281 76.453125 22.382812 C 76.769531 22.527344 77.042969 22.734375 77.269531 22.996094 C 77.5 23.261719 77.664062 23.5625 77.761719 23.898438 C 77.863281 24.234375 77.886719 24.574219 77.839844 24.921875 L 73.019531 60.082031 C 72.957031 60.539062 72.78125 60.945312 72.488281 61.300781 C 72.195312 61.65625 71.832031 61.910156 71.394531 62.054688 L 56.933594 66.90625 C 56.6875 66.988281 56.433594 67.027344 56.175781 67.027344 Z M 43.898438 57.933594 L 56.175781 62.046875 L 68.449219 57.921875 L 72.6875 27.015625 L 39.664062 27.015625 Z M 43.898438 57.933594 " fill-opacity="1" fill-rule="nonzero"/></g><path fill="#ffffff" d="M 56.175781 56.71875 C 55.9375 56.71875 55.707031 56.6875 55.480469 56.617188 L 49.457031 54.800781 C 49.03125 54.671875 48.667969 54.441406 48.367188 54.109375 C 48.066406 53.777344 47.875 53.390625 47.785156 52.953125 L 47.546875 51.742188 C 47.484375 51.433594 47.480469 51.128906 47.539062 50.824219 C 47.597656 50.515625 47.707031 50.230469 47.871094 49.96875 C 48.039062 49.703125 48.246094 49.480469 48.5 49.300781 C 48.75 49.117188 49.023438 48.988281 49.324219 48.914062 C 49.625 48.835938 49.929688 48.820312 50.238281 48.863281 C 50.542969 48.90625 50.832031 49.003906 51.101562 49.160156 C 51.371094 49.3125 51.601562 49.511719 51.792969 49.753906 C 51.988281 50 52.128906 50.269531 52.214844 50.570312 L 56.175781 51.761719 L 60.03125 50.601562 L 60.625 46.414062 L 48.945312 46.414062 C 48.648438 46.414062 48.367188 46.363281 48.089844 46.257812 C 47.816406 46.152344 47.570312 46.003906 47.347656 45.808594 C 47.128906 45.613281 46.949219 45.382812 46.8125 45.121094 C 46.675781 44.859375 46.589844 44.582031 46.554688 44.289062 L 45.347656 34.589844 C 45.304688 34.246094 45.335938 33.90625 45.4375 33.574219 C 45.539062 33.242188 45.703125 32.945312 45.933594 32.683594 C 46.160156 32.425781 46.433594 32.222656 46.75 32.078125 C 47.0625 31.9375 47.394531 31.863281 47.738281 31.863281 L 64.609375 31.863281 C 64.929688 31.863281 65.234375 31.925781 65.53125 32.050781 C 65.828125 32.171875 66.085938 32.347656 66.3125 32.574219 C 66.539062 32.800781 66.714844 33.066406 66.835938 33.363281 C 66.957031 33.660156 67.019531 33.96875 67.019531 34.289062 C 67.019531 34.609375 66.957031 34.921875 66.835938 35.21875 C 66.714844 35.515625 66.539062 35.777344 66.3125 36.003906 C 66.085938 36.230469 65.828125 36.40625 65.53125 36.53125 C 65.234375 36.652344 64.929688 36.714844 64.609375 36.714844 L 50.46875 36.714844 L 51.070312 41.5625 L 63.402344 41.5625 C 63.753906 41.5625 64.085938 41.636719 64.40625 41.785156 C 64.722656 41.929688 64.996094 42.136719 65.222656 42.402344 C 65.453125 42.667969 65.617188 42.96875 65.714844 43.304688 C 65.816406 43.640625 65.839844 43.984375 65.789062 44.332031 L 64.585938 52.820312 C 64.519531 53.289062 64.332031 53.699219 64.027344 54.058594 C 63.71875 54.417969 63.339844 54.664062 62.890625 54.800781 L 56.867188 56.617188 C 56.640625 56.6875 56.410156 56.71875 56.175781 56.71875 Z M 56.175781 56.71875 " fill-opacity="1" fill-rule="nonzero"/><g fill="#ffffff" fill-opacity="1"><g transform="translate(39.128906, 87.304437)"><g><path d="M 1.015625 -9.796875 L 2.203125 -9.796875 L 2.203125 -5.453125 L 6.375 -5.453125 L 6.375 -9.796875 L 7.546875 -9.796875 L 7.546875 0 L 6.375 0 L 6.375 -4.375 L 2.203125 -4.375 L 2.203125 0 L 1.015625 0 Z M 1.015625 -9.796875 "/></g></g></g><g fill="#ffffff" fill-opacity="1"><g transform="translate(47.69213, 87.304437)"><g><path d="M 0.84375 -9.796875 L 7.734375 -9.796875 L 7.734375 -8.703125 L 4.875 -8.703125 L 4.875 0 L 3.703125 0 L 3.703125 -8.703125 L 0.84375 -8.703125 Z M 0.84375 -9.796875 "/></g></g></g><g fill="#ffffff" fill-opacity="1"><g transform="translate(56.255354, 87.304437)"><g><path d="M 0.640625 -9.796875 L 2.890625 -9.796875 L 4.203125 -0.5 L 4.375 -0.5 L 5.6875 -9.796875 L 7.921875 -9.796875 L 7.921875 0 L 6.828125 0 L 6.828125 -9.296875 L 6.65625 -9.296875 L 5.34375 0 L 3.21875 0 L 1.90625 -9.296875 L 1.734375 -9.296875 L 1.734375 0 L 0.640625 0 Z M 0.640625 -9.796875 "/></g></g></g><g fill="#ffffff" fill-opacity="1"><g transform="translate(64.818578, 87.304437)"><g><path d="M 1.21875 -9.796875 L 2.390625 -9.796875 L 2.390625 -1.09375 L 7.515625 -1.09375 L 7.515625 0 L 1.21875 0 Z M 1.21875 -9.796875 "/></g></g></g></svg>