<svg width="22" height="22" viewBox="0 0 22 22" fill="none" xmlns="http://www.w3.org/2000/svg">
<g clip-path="url(#clip0_61_74)">
<path d="M15.6253 19.0024L14.8771 18.8066C14.6131 18.7334 14.3872 18.5613 14.247 18.3259C14.1104 18.0881 14.074 17.8058 14.1455 17.541C14.1775 17.4605 14.1893 17.3734 14.1804 17.2872C14.1715 17.201 14.1423 17.1182 14.0945 17.046C14.0227 16.9972 13.9396 16.9667 13.8533 16.9571C13.767 16.9475 13.68 16.9592 13.5992 16.991C13.4686 17.0264 13.3322 17.0357 13.198 17.0183C13.0638 17.001 12.9344 16.9573 12.8171 16.8898C12.6999 16.8223 12.5972 16.7323 12.5147 16.625C12.4323 16.5177 12.3719 16.3951 12.3369 16.2644L12.157 15.601C12.0884 15.336 12.127 15.0545 12.2644 14.8177C12.4019 14.5809 12.6271 14.4079 12.8913 14.336C13.1113 14.2749 13.2568 14.171 13.2893 14.0461C13.2976 13.9597 13.2837 13.8725 13.2485 13.7931C13.2132 13.7137 13.1582 13.6447 13.0884 13.5929C12.9931 13.4973 12.918 13.3834 12.8682 13.258C12.8846 13.4497 12.8662 13.6427 12.8134 13.8277C12.7608 14.0377 12.6655 14.2346 12.5335 14.4062C12.4015 14.5777 12.2353 14.7203 12.0458 14.825L10.9705 15.441C10.7416 15.5688 10.4843 15.6362 10.2222 15.6368C10.0892 15.6364 9.95633 15.6207 9.82691 15.5901C9.44509 15.4857 9.11858 15.2382 8.91431 14.8992L8.84234 14.7749C8.47272 14.1424 7.96942 14.1424 7.60585 14.7749L7.5371 14.8937C7.43834 15.0643 7.30706 15.2135 7.15036 15.3331C6.99366 15.4526 6.81509 15.5399 6.6245 15.5901C6.4977 15.6246 6.36703 15.6431 6.23562 15.6451C5.97167 15.6442 5.71263 15.5726 5.48577 15.4377L4.41795 14.8216C4.23015 14.7138 4.06558 14.57 3.93345 14.3984C3.80132 14.2268 3.70453 14.0308 3.64823 13.8217C3.53681 13.4003 3.59444 12.9521 3.80883 12.5726C3.89349 12.4631 3.94933 12.3341 3.97105 12.1974C3.99277 12.0607 3.97946 11.9208 3.93291 11.7904C3.84354 11.685 3.7294 11.6037 3.60043 11.554C3.47145 11.5043 3.33189 11.4879 3.19489 11.5061C2.75859 11.5049 2.34039 11.331 2.03199 11.0224C1.72358 10.7138 1.54997 10.2956 1.5491 9.8593V8.76804C1.54997 8.33175 1.72358 7.91355 2.03199 7.60494C2.34039 7.29633 2.75859 7.12241 3.19489 7.12125C3.33218 7.13908 3.47197 7.1221 3.60096 7.07183C3.72996 7.02156 3.84389 6.93964 3.93291 6.83361C3.98102 6.70362 3.99497 6.56342 3.9732 6.42653C3.95143 6.28964 3.8949 6.16067 3.80883 6.05201C3.59466 5.67245 3.53704 5.2243 3.64823 4.8029C3.70291 4.59308 3.79901 4.3964 3.9313 4.22461C4.0636 4.05281 4.22906 3.90942 4.41795 3.80296L5.49222 3.18968C5.83632 2.99113 6.24509 2.93634 6.62934 3.03727C7.01358 3.1382 7.3425 3.38668 7.54462 3.7287L7.61659 3.85304C7.98456 4.48833 8.48672 4.48833 8.85469 3.85304L8.9213 3.73696C9.02023 3.56609 9.15162 3.41649 9.30857 3.29671C9.46552 3.17692 9.64459 3.08929 9.8355 3.03895C10.0264 2.9886 10.2259 2.97649 10.4215 3.00329C10.6171 3.0301 10.8055 3.09533 10.9758 3.19519L12.0458 3.80846C12.2339 3.91621 12.3986 4.06036 12.5303 4.23253C12.6621 4.4047 12.7586 4.60142 12.8134 4.81116C12.928 5.23106 12.8714 5.67927 12.656 6.05752C12.5714 6.16757 12.5153 6.29696 12.4933 6.43398C12.4712 6.57101 12.4835 6.71136 12.5292 6.84241C12.6196 6.94718 12.7347 7.02804 12.8639 7.07774C12.993 7.12745 13.1326 7.14449 13.27 7.12736C13.7061 7.12881 14.1236 7.30281 14.4318 7.61139C14.7399 7.91997 14.9133 8.33798 14.9141 8.77409V9.86535C14.9133 10.3015 14.7399 10.7195 14.4318 11.0281C14.1236 11.3367 13.7061 11.5107 13.27 11.5121C13.1326 11.4943 12.9926 11.511 12.8633 11.5606C12.7341 11.6103 12.6193 11.6913 12.5292 11.7965C12.4819 11.9268 12.469 12.0671 12.4911 12.204C12.5132 12.3409 12.57 12.4698 12.656 12.5786C12.71 12.6738 12.755 12.7738 12.7903 12.8773C12.7903 12.8718 12.7903 12.8658 12.7903 12.8603C12.7895 12.7253 12.8155 12.5915 12.8671 12.4667C12.9187 12.3419 12.9947 12.2287 13.0905 12.1337L13.6454 11.5836C13.8208 11.4076 14.0587 11.3083 14.3072 11.3072C14.5557 11.3062 14.7947 11.4036 14.9716 11.5781L15.0414 11.6441C15.3654 11.9648 15.6719 11.8845 15.7902 11.4428L15.8128 11.3598C15.8446 11.2402 15.8995 11.1281 15.975 11.0301C16.0504 10.932 16.1447 10.8499 16.2521 10.7885C16.3596 10.7271 16.4779 10.6876 16.6007 10.6724C16.7235 10.6572 16.8484 10.6665 16.9676 10.6998L17.7164 10.8961C17.981 10.9671 18.2066 11.1399 18.3443 11.3768C18.4826 11.6139 18.5222 11.8958 18.4544 12.1617C18.4187 12.2408 18.4045 12.3278 18.413 12.4141C18.4215 12.5004 18.4523 12.5829 18.5027 12.6535C18.5734 12.7036 18.6556 12.735 18.7418 12.7446C18.8279 12.7542 18.9148 12.7418 18.9948 12.7085C19.2597 12.6372 19.5422 12.6739 19.78 12.8107C20.0179 12.9474 20.1919 13.1729 20.2635 13.4378L20.4375 14.0978C20.4728 14.2288 20.4824 14.3655 20.4649 14.5C20.4474 14.6345 20.4032 14.7641 20.3354 14.8817C20.2677 14.9992 20.1777 15.1022 20.0701 15.1847C19.9625 15.2673 19.8396 15.3278 19.7086 15.3629C19.4886 15.4261 19.3425 15.5312 19.3095 15.6561C19.2994 15.7428 19.3131 15.8306 19.3487 15.9103C19.3843 15.99 19.4406 16.0585 19.512 16.1087C19.6076 16.205 19.683 16.3194 19.7338 16.4452C19.7847 16.571 19.8099 16.7057 19.808 16.8413C19.8104 16.9771 19.7847 17.1119 19.7328 17.2374C19.6808 17.3629 19.6038 17.4763 19.5061 17.5707L18.9593 18.1207C18.8381 18.2341 18.6911 18.3166 18.5312 18.3611C18.4512 18.3835 18.3683 18.3946 18.2852 18.3941C18.0389 18.393 17.8029 18.2971 17.6256 18.1262L17.5563 18.063C17.2329 17.7396 16.9258 17.8171 16.8075 18.2593L16.786 18.3451C16.7215 18.5853 16.5643 18.7901 16.3488 18.9144C16.2762 18.9555 16.199 18.988 16.1189 19.0112C16.0424 19.03 15.964 19.0392 15.8853 19.0387C15.7975 19.0384 15.7098 19.0262 15.6253 19.0024ZM14.6311 16.5048C14.7472 16.6376 14.8263 16.7988 14.8599 16.9721C14.8935 17.1453 14.8803 17.3243 14.8223 17.4909C14.8089 17.5435 14.8063 17.5982 14.8142 17.6518C14.8222 17.7054 14.8405 17.7569 14.8685 17.8033C14.921 17.8976 15.0081 17.968 15.1113 17.9997L15.8144 18.1845C15.8984 18.206 15.9873 18.1963 16.0647 18.1571C16.1397 18.1085 16.195 18.0354 16.2221 17.9503L16.2435 17.8754C16.276 17.703 16.353 17.5422 16.467 17.409C16.581 17.2757 16.7283 17.1746 16.8935 17.1158C17.0673 17.08 17.2474 17.0917 17.415 17.1498C17.5827 17.2079 17.7314 17.3101 17.8458 17.4458L17.9011 17.5042C17.9642 17.5652 18.0486 17.599 18.1364 17.5982C18.2221 17.5927 18.3036 17.5597 18.369 17.5042L18.8766 16.9877C18.9154 16.9499 18.9466 16.9047 18.9679 16.8549C18.9892 16.8051 19.0006 16.7515 19.0012 16.6972C19.001 16.5862 18.9586 16.4794 18.8825 16.3986C18.7478 16.2852 18.6457 16.1376 18.5876 15.9713C18.5295 15.8051 18.5174 15.6263 18.5522 15.4536C18.6084 15.2867 18.7084 15.1379 18.8417 15.0228C18.975 14.9077 19.1367 14.8305 19.31 14.7991C19.4166 14.7697 19.5074 14.6997 19.563 14.6042C19.6187 14.5087 19.6346 14.3953 19.6076 14.2881L19.4427 13.6721C19.428 13.6193 19.4029 13.5699 19.3691 13.5268C19.3354 13.4837 19.2938 13.4476 19.2461 13.4207C19.1984 13.3938 19.1458 13.3766 19.0914 13.37C19.0371 13.3634 18.982 13.3675 18.9292 13.3822C18.7628 13.4391 18.5841 13.4514 18.4114 13.4179C18.2388 13.3844 18.0783 13.3063 17.9452 13.1914C17.8289 13.0586 17.7499 12.8971 17.7174 12.7236C17.6849 12.5501 17.7001 12.371 17.7604 12.2052C17.7734 12.1526 17.7755 12.098 17.7674 12.0445C17.7593 11.991 17.7406 11.9396 17.7126 11.8933C17.6597 11.7981 17.5717 11.7275 17.4671 11.697L16.7678 11.5121C16.7255 11.5002 16.6814 11.4968 16.6378 11.5022C16.5942 11.5076 16.5518 11.5216 16.5137 11.5435C16.4756 11.5654 16.4426 11.5946 16.416 11.6296C16.3893 11.6645 16.3695 11.7045 16.3585 11.747L16.337 11.8245C16.3036 11.9977 16.2252 12.1591 16.1093 12.292C15.9933 12.4249 15.8444 12.5247 15.6774 12.5814C15.5053 12.614 15.3276 12.6006 15.1623 12.5427C14.997 12.4848 14.8499 12.3843 14.7358 12.2514L14.6805 12.1964C14.6388 12.1561 14.5873 12.1273 14.5311 12.1129C14.475 12.0984 14.4163 12.0988 14.3603 12.1139C14.3069 12.1324 14.2574 12.1604 14.2137 12.1964L13.7061 12.7107C13.6659 12.7481 13.6337 12.7935 13.6121 12.844C13.5905 12.8945 13.5797 12.9489 13.5804 13.0038C13.5805 13.1142 13.6236 13.2202 13.7007 13.2992C13.8339 13.4144 13.9345 13.5626 13.9924 13.7289C14.0503 13.8952 14.0639 14.0739 14.0311 14.2469C13.974 14.4132 13.874 14.5613 13.741 14.6763C13.6081 14.7913 13.447 14.8689 13.2742 14.9014C13.2211 14.9153 13.1708 14.9395 13.1271 14.9728C13.0833 15.006 13.0468 15.0476 13.0191 15.095C12.9915 15.1425 12.9732 15.195 12.9659 15.2495C12.9586 15.3039 12.9625 15.3593 12.9767 15.4124L13.1416 16.0257C13.1703 16.1317 13.2398 16.222 13.3349 16.2768C13.4301 16.3316 13.5431 16.3466 13.6492 16.3183C13.7635 16.2865 13.8813 16.2699 13.9999 16.2688C14.1153 16.2641 14.2307 16.2825 14.3389 16.323C14.447 16.3635 14.5461 16.4253 14.63 16.5048H14.6311ZM5.95469 3.98834L4.88096 4.60712C4.79934 4.6544 4.72769 4.71729 4.6704 4.79223C4.61311 4.86716 4.57109 4.95265 4.54686 5.04381C4.52201 5.13373 4.51518 5.22769 4.52699 5.32023C4.53879 5.41277 4.56899 5.50202 4.61561 5.58282C4.78554 5.8325 4.88643 6.12263 4.90835 6.42385C4.93028 6.72507 4.87222 7.02672 4.74023 7.29837C4.5723 7.54987 4.34086 7.75206 4.06881 7.88412C3.79676 8.01618 3.49422 8.07339 3.19274 8.04976C3.0031 8.04976 2.82139 8.12508 2.68729 8.25917C2.5532 8.39327 2.47781 8.57511 2.47781 8.76475V9.85601C2.47781 10.0457 2.5532 10.2275 2.68729 10.3616C2.82139 10.4957 3.0031 10.5711 3.19274 10.5711C3.49443 10.5481 3.79681 10.6059 4.06881 10.7384C4.34081 10.8709 4.57235 11.0734 4.74023 11.3251C4.87225 11.5963 4.93028 11.8975 4.90835 12.1983C4.88643 12.4991 4.78557 12.7888 4.61561 13.0379C4.56899 13.1192 4.53879 13.209 4.52699 13.3019C4.51519 13.3949 4.52203 13.4893 4.54686 13.5797C4.59594 13.7619 4.71418 13.9177 4.87666 14.0136L5.95093 14.6269C6.01385 14.6669 6.08457 14.6932 6.15827 14.7042C6.23197 14.7152 6.3072 14.7106 6.37903 14.6908C6.52805 14.6519 6.65535 14.5556 6.73354 14.4229L6.80283 14.3069C6.9331 14.035 7.13356 13.8025 7.38294 13.6332C7.63232 13.4638 7.92174 13.3635 8.22248 13.3426C8.52429 13.3614 8.81596 13.4607 9.06632 13.6303C9.31669 13.7999 9.51653 14.0335 9.64589 14.3069L9.71572 14.4229C9.7523 14.488 9.80195 14.5448 9.86182 14.5895C9.9217 14.6342 9.99038 14.6659 10.0632 14.6825C10.1338 14.7023 10.2076 14.7075 10.2803 14.6981C10.3529 14.6886 10.4228 14.6647 10.486 14.6275L11.5602 14.0087C11.7251 13.9133 11.8457 13.7564 11.8954 13.5725C11.9206 13.4826 11.9272 13.3886 11.9153 13.296C11.9034 13.2034 11.8732 13.1141 11.8261 13.0335C11.6558 12.784 11.5542 12.4938 11.5323 12.1925C11.5105 11.8912 11.5689 11.5894 11.7015 11.318C11.8692 11.0664 12.1009 10.8642 12.3729 10.7321C12.6449 10.6 12.9476 10.5429 13.249 10.5666C13.343 10.5672 13.436 10.549 13.5229 10.5133C13.6099 10.4775 13.689 10.4249 13.7555 10.3584C13.822 10.2919 13.875 10.2128 13.9108 10.1259C13.9465 10.0389 13.9644 9.94569 13.9639 9.85165V8.75703C13.9639 8.56739 13.8885 8.38555 13.7544 8.25145C13.6204 8.11736 13.4386 8.04204 13.249 8.04204C12.9477 8.0657 12.6454 8.00854 12.3735 7.87646C12.1016 7.74439 11.8697 7.54221 11.7021 7.29072C11.5694 7.01918 11.511 6.71728 11.5329 6.41586C11.5547 6.11443 11.6562 5.82422 11.8267 5.57463C11.8737 5.49409 11.9039 5.40488 11.9158 5.31238C11.9277 5.21988 11.9211 5.12598 11.896 5.03615C11.8467 4.85331 11.7281 4.69669 11.5656 4.5994L10.4908 3.98612C10.4261 3.94803 10.3547 3.92313 10.2803 3.9128C10.2058 3.90247 10.13 3.90688 10.0573 3.92589C9.98467 3.94491 9.9168 3.97814 9.85699 4.02359C9.79717 4.06903 9.74654 4.12578 9.70874 4.1907L9.64321 4.30954C9.51244 4.58225 9.31122 4.81511 9.06042 4.98412C8.80961 5.15313 8.51843 5.2522 8.21657 5.27102C7.9156 5.25232 7.6251 5.15322 7.37542 4.98412C7.12574 4.81502 6.92598 4.58209 6.79692 4.30954L6.72763 4.18251C6.67589 4.09965 6.60414 4.03132 6.51869 3.98397C6.43324 3.93663 6.33707 3.91179 6.23938 3.91186C6.13903 3.91083 6.04002 3.93729 5.95362 3.98834H5.95469ZM14.8824 15.2281C14.7819 14.8547 14.8336 14.4567 15.0264 14.1215C15.2192 13.7863 15.5372 13.5414 15.9105 13.4405C16.0959 13.39 16.2893 13.3766 16.4799 13.401C16.6705 13.4255 16.8542 13.4874 17.0208 13.5832C17.1874 13.679 17.3334 13.8068 17.4505 13.9592C17.5675 14.1116 17.6534 14.2856 17.7029 14.4713C17.7522 14.6568 17.7645 14.8503 17.7389 15.0406C17.7134 15.2309 17.6506 15.4143 17.5542 15.5803C17.4577 15.7463 17.3297 15.8917 17.1771 16.0081C17.0244 16.1245 16.8502 16.2097 16.6647 16.2589C16.543 16.2914 16.4173 16.308 16.2913 16.3084C15.9701 16.3087 15.6579 16.203 15.4029 16.0077C15.1479 15.8124 14.9647 15.5383 14.8814 15.2281H14.8824ZM16.076 14.0621C15.9729 14.0898 15.8763 14.1377 15.7918 14.2029C15.7073 14.2682 15.6369 14.3495 15.5839 14.4422C15.531 14.5349 15.4967 14.6371 15.4835 14.743C15.4703 14.8489 15.4781 14.9564 15.5066 15.0593C15.5628 15.2678 15.6994 15.4457 15.8863 15.5539C16.0733 15.6621 16.2957 15.6919 16.5046 15.6368C16.712 15.5796 16.888 15.4425 16.9945 15.2556C17.101 15.0687 17.1294 14.8472 17.0729 14.6396C17.0288 14.4661 16.9276 14.3123 16.786 14.2027C16.6445 14.093 16.4704 14.0339 16.2913 14.0346C16.2182 14.0341 16.1456 14.0433 16.0749 14.0621H16.076ZM5.89453 9.30981C5.89446 9.0043 5.95439 8.70178 6.07125 8.41951C6.18812 8.13723 6.35962 7.88075 6.57562 7.6647C6.79163 7.44864 7.04805 7.27726 7.3303 7.16033C7.61255 7.0434 7.91482 6.98321 8.22033 6.98321C8.52606 6.98292 8.82891 7.04293 9.11144 7.15972C9.39398 7.27652 9.65092 7.44782 9.86719 7.66389C10.0835 7.87997 10.255 8.13655 10.3721 8.41897C10.4892 8.70139 10.5494 9.00409 10.5494 9.30981C10.5496 9.6157 10.4896 9.91868 10.3726 10.2013C10.2557 10.484 10.084 10.7408 9.86773 10.9571C9.65144 11.1734 9.39462 11.3449 9.11198 11.4618C8.82934 11.5788 8.52622 11.6389 8.22033 11.6386C7.91447 11.6387 7.61178 11.5785 7.32923 11.4614C7.04667 11.3443 6.79016 11.1726 6.57401 10.9562C6.35786 10.7398 6.1864 10.4829 6.06964 10.2002C5.95288 9.91755 5.89303 9.6146 5.89346 9.30874L5.89453 9.30981ZM6.82432 9.30981C6.82461 9.68016 6.97195 10.0353 7.23362 10.2974C7.49528 10.5595 7.84999 10.7071 8.22033 10.708C8.59102 10.7075 8.94655 10.5601 9.20867 10.298C9.47078 10.0359 9.61806 9.6805 9.6185 9.30981C9.61821 8.93908 9.47081 8.58363 9.20867 8.32148C8.94652 8.05934 8.59106 7.91194 8.22033 7.91165C7.85027 7.91266 7.49567 8.06026 7.23415 8.32209C6.97263 8.58391 6.82544 8.93868 6.82485 9.30874L6.82432 9.30981Z" fill="#D2F200"/>
</g>
<defs>
<clipPath id="clip0_61_74">
<rect width="22" height="22" fill="white"/>
</clipPath>
</defs>
</svg>
