<svg width="20" height="20" viewBox="0 0 20 20" fill="none" xmlns="http://www.w3.org/2000/svg">
<g clip-path="url(#clip0_48_68)">
<path fill-rule="evenodd" clip-rule="evenodd" d="M7.2673 17.1585C7.46767 16.8586 7.61466 16.5287 7.70386 16.1832H12.653C12.7703 16.7579 13.054 17.2856 13.4689 17.7006C13.8874 18.119 14.4205 18.404 15.0009 18.5195C15.5814 18.6349 16.183 18.5757 16.7297 18.3492C17.2765 18.1227 17.7438 17.7392 18.0726 17.2472C18.4013 16.7551 18.5768 16.1766 18.5768 15.5848C18.5766 14.7913 18.2612 14.0304 17.7002 13.4693C17.1391 12.9082 16.3782 12.5929 15.5847 12.5927C14.9929 12.5927 14.4144 12.7681 13.9223 13.0969C13.4303 13.4257 13.0468 13.893 12.8203 14.4398C12.7473 14.616 12.6917 14.798 12.6537 14.9831H9.58484C9.66991 14.8929 9.75084 14.7983 9.82728 14.6996C10.3471 14.028 10.6292 13.2029 10.6293 12.3536V12.3376L10.6213 9.60098V9.58498C10.6207 8.71849 10.8901 7.87335 11.3919 7.16697C11.7953 6.59913 12.3327 6.14363 12.9532 5.83888C13.09 6.09177 13.2634 6.32498 13.4689 6.53053C13.8874 6.94899 14.4205 7.23396 15.0009 7.34941C15.5814 7.46487 16.183 7.40561 16.7297 7.17914C17.2765 6.95267 17.7438 6.56916 18.0726 6.07711C18.4013 5.58505 18.5768 5.00655 18.5768 4.41476C18.5766 3.62127 18.2612 2.86036 17.7002 2.29928C17.1391 1.7382 16.3782 1.42287 15.5847 1.42261C14.9929 1.42261 14.4144 1.59809 13.9223 1.92688C13.4303 2.25566 13.0468 2.72297 12.8203 3.26971C12.6337 3.72012 12.5606 4.20778 12.6052 4.69014C11.7354 5.07919 10.9822 5.69439 10.4264 6.47524C9.77995 7.38333 9.43263 8.47031 9.4327 9.58498V9.60898L9.44071 12.3456V12.3536C9.44066 12.9382 9.24639 13.5062 8.88843 13.9683C8.59307 14.3496 8.20008 14.641 7.75371 14.8134C7.71331 14.5912 7.64932 14.3734 7.56251 14.1637C7.40216 13.7765 7.16707 13.4246 6.87067 13.1282C6.57427 12.8318 6.22238 12.5967 5.83509 12.4363C5.4478 12.276 5.03271 12.1935 4.61354 12.1936C3.98229 12.1936 3.36521 12.3808 2.84035 12.7315C2.31548 13.0822 1.9064 13.5807 1.66483 14.1639C1.42326 14.7471 1.36005 15.3888 1.4832 16.008C1.60635 16.6271 1.91033 17.1958 2.35669 17.6421C2.80305 18.0885 3.37175 18.3925 3.99087 18.5156C4.61 18.6388 5.25173 18.5756 5.83493 18.334C6.41813 18.0924 6.9166 17.6833 7.2673 17.1585ZM13.7896 15.5892L13.7897 15.5831L13.7896 15.5783C13.7926 15.105 13.982 14.6518 14.3168 14.3169C14.6532 13.9806 15.109 13.791 15.5847 13.7897C15.9397 13.7897 16.2868 13.895 16.582 14.0922C16.8772 14.2895 17.1073 14.5698 17.2431 14.8979C17.379 15.2259 17.4145 15.5868 17.3453 15.935C17.276 16.2832 17.105 16.6031 16.854 16.8541C16.603 17.1052 16.2831 17.2761 15.9349 17.3454C15.5867 17.4147 15.2257 17.3791 14.8977 17.2432C14.5697 17.1074 14.2894 16.8773 14.0921 16.5821C13.8957 16.2881 13.7905 15.9427 13.7896 15.5892ZM2.61894 15.3853C2.61894 15.7798 2.73592 16.1654 2.95509 16.4934C3.17426 16.8214 3.48577 17.0771 3.85024 17.2281C4.2147 17.379 4.61575 17.4185 5.00266 17.3416C5.38958 17.2646 5.74498 17.0746 6.02393 16.7957C6.30288 16.5167 6.49285 16.1613 6.56981 15.7744C6.64677 15.3875 6.60727 14.9865 6.45631 14.622C6.30534 14.2575 6.04969 13.946 5.72168 13.7268C5.39367 13.5077 5.00803 13.3907 4.61354 13.3907C4.08462 13.391 3.57744 13.6012 3.20343 13.9752C2.82943 14.3492 2.6192 14.8564 2.61894 15.3853ZM13.7896 4.41476C13.7896 4.76979 13.8949 5.11685 14.0921 5.41206C14.2894 5.70726 14.5697 5.93734 14.8977 6.0732C15.2257 6.20907 15.5867 6.24462 15.9349 6.17535C16.2831 6.10609 16.603 5.93513 16.854 5.68408C17.105 5.43303 17.276 5.11318 17.3453 4.76496C17.4145 4.41675 17.379 4.05582 17.2431 3.72781C17.1073 3.3998 16.8772 3.11944 16.582 2.92219C16.2868 2.72495 15.9397 2.61967 15.5847 2.61967C15.109 2.62099 14.6532 2.81054 14.3168 3.14689C13.9805 3.48325 13.7909 3.93908 13.7896 4.41476Z" fill="#D2F200"/>
</g>
<defs>
<clipPath id="clip0_48_68">
<rect width="20" height="20" fill="white"/>
</clipPath>
</defs>
</svg>
