<svg xmlns="http://www.w3.org/2000/svg" xmlns:xlink="http://www.w3.org/1999/xlink" width="60" zoomAndPan="magnify" viewBox="0 0 45 44.999999" height="60" preserveAspectRatio="xMidYMid meet" version="1.0"><defs><clipPath id="6abd160173"><path d="M 0 3 L 39 3 L 39 43.875 L 0 43.875 Z M 0 3 " clip-rule="nonzero"/></clipPath></defs><path fill="#e5f92d" d="M 17.425781 26.988281 C 17.386719 26.90625 17.335938 26.839844 17.277344 26.800781 C 17.21875 26.761719 17.152344 26.738281 17.078125 26.738281 L 12.925781 26.738281 L 14.082031 25.550781 C 14.722656 24.917969 15.246094 24.347656 15.644531 23.859375 C 16.035156 23.371094 16.34375 22.921875 16.558594 22.523438 C 16.777344 22.121094 16.921875 21.738281 16.992188 21.382812 C 17.058594 21.035156 17.09375 20.675781 17.09375 20.316406 C 17.09375 19.902344 17.023438 19.511719 16.882812 19.144531 C 16.738281 18.78125 16.519531 18.464844 16.230469 18.199219 C 15.9375 17.9375 15.570312 17.726562 15.136719 17.582031 C 14.699219 17.433594 14.1875 17.359375 13.613281 17.359375 C 13.242188 17.359375 12.886719 17.394531 12.554688 17.464844 C 12.214844 17.535156 11.902344 17.617188 11.625 17.71875 C 11.339844 17.820312 11.101562 17.921875 10.914062 18.027344 C 10.710938 18.140625 10.582031 18.226562 10.507812 18.300781 C 10.429688 18.371094 10.375 18.433594 10.34375 18.488281 C 10.3125 18.542969 10.289062 18.605469 10.269531 18.679688 C 10.25 18.742188 10.238281 18.820312 10.226562 18.921875 C 10.21875 19.011719 10.214844 19.121094 10.214844 19.253906 C 10.214844 19.445312 10.222656 19.609375 10.238281 19.75 C 10.25 19.882812 10.269531 19.996094 10.296875 20.082031 C 10.320312 20.175781 10.359375 20.242188 10.40625 20.289062 C 10.519531 20.394531 10.679688 20.386719 10.9375 20.214844 C 11.070312 20.125 11.234375 20.027344 11.417969 19.929688 C 11.613281 19.824219 11.839844 19.730469 12.085938 19.648438 C 12.335938 19.566406 12.625 19.527344 12.949219 19.527344 C 13.175781 19.527344 13.375 19.558594 13.539062 19.625 C 13.710938 19.695312 13.84375 19.785156 13.953125 19.902344 C 14.058594 20.019531 14.144531 20.15625 14.199219 20.3125 C 14.253906 20.472656 14.28125 20.640625 14.28125 20.816406 C 14.28125 21.015625 14.257812 21.230469 14.210938 21.445312 C 14.164062 21.667969 14.078125 21.910156 13.953125 22.171875 C 13.824219 22.4375 13.640625 22.734375 13.414062 23.054688 C 13.1875 23.371094 12.882812 23.730469 12.503906 24.128906 L 10.601562 26.164062 C 10.488281 26.285156 10.390625 26.398438 10.320312 26.5 C 10.246094 26.605469 10.183594 26.710938 10.136719 26.820312 C 10.089844 26.933594 10.054688 27.054688 10.039062 27.195312 C 10.019531 27.332031 10.011719 27.492188 10.011719 27.6875 C 10.011719 27.886719 10.023438 28.054688 10.050781 28.1875 C 10.082031 28.328125 10.125 28.433594 10.191406 28.507812 C 10.253906 28.582031 10.34375 28.632812 10.453125 28.660156 C 10.546875 28.6875 10.664062 28.699219 10.792969 28.699219 L 17.113281 28.699219 C 17.183594 28.699219 17.25 28.679688 17.304688 28.636719 C 17.367188 28.597656 17.414062 28.535156 17.445312 28.445312 C 17.476562 28.367188 17.5 28.265625 17.515625 28.140625 C 17.527344 28.023438 17.535156 27.878906 17.535156 27.714844 C 17.535156 27.550781 17.527344 27.410156 17.511719 27.292969 C 17.492188 27.164062 17.464844 27.070312 17.425781 26.988281 " fill-opacity="1" fill-rule="nonzero"/><path fill="#e5f92d" d="M 23.96875 19.765625 L 23.96875 24.484375 L 21.265625 24.484375 Z M 27.171875 24.484375 L 26.269531 24.484375 L 26.269531 17.945312 C 26.269531 17.859375 26.230469 17.785156 26.15625 17.726562 C 26.089844 17.671875 25.996094 17.628906 25.859375 17.597656 C 25.734375 17.566406 25.5625 17.542969 25.359375 17.527344 C 25.148438 17.511719 24.898438 17.503906 24.613281 17.503906 C 24.351562 17.503906 24.121094 17.511719 23.933594 17.523438 C 23.742188 17.535156 23.585938 17.550781 23.457031 17.578125 C 23.324219 17.605469 23.226562 17.640625 23.152344 17.679688 C 23.070312 17.722656 23.011719 17.777344 22.976562 17.839844 L 19.5625 23.867188 C 19.507812 23.960938 19.460938 24.066406 19.417969 24.175781 C 19.378906 24.28125 19.347656 24.386719 19.328125 24.496094 C 19.308594 24.605469 19.292969 24.726562 19.285156 24.867188 C 19.277344 24.996094 19.273438 25.152344 19.273438 25.34375 C 19.273438 25.574219 19.285156 25.75 19.304688 25.886719 C 19.324219 26.027344 19.359375 26.140625 19.40625 26.21875 C 19.460938 26.308594 19.527344 26.363281 19.605469 26.386719 C 19.675781 26.410156 19.753906 26.421875 19.84375 26.421875 L 23.96875 26.421875 L 23.96875 28.332031 C 23.96875 28.410156 23.992188 28.472656 24.03125 28.527344 C 24.070312 28.582031 24.136719 28.625 24.238281 28.660156 C 24.328125 28.691406 24.445312 28.714844 24.585938 28.730469 C 24.734375 28.742188 24.910156 28.75 25.109375 28.75 C 25.316406 28.75 25.496094 28.742188 25.640625 28.730469 C 25.78125 28.714844 25.898438 28.691406 25.988281 28.660156 C 26.089844 28.625 26.160156 28.585938 26.199219 28.53125 C 26.246094 28.476562 26.269531 28.410156 26.269531 28.332031 L 26.269531 26.421875 L 27.171875 26.421875 C 27.308594 26.421875 27.414062 26.328125 27.484375 26.148438 C 27.546875 25.992188 27.578125 25.761719 27.578125 25.460938 C 27.578125 25.125 27.542969 24.886719 27.472656 24.738281 C 27.398438 24.570312 27.292969 24.484375 27.171875 24.484375 " fill-opacity="1" fill-rule="nonzero"/><path fill="#e5f92d" d="M 36.496094 21.179688 C 36.273438 20.878906 35.976562 20.636719 35.609375 20.460938 C 35.25 20.285156 34.800781 20.199219 34.273438 20.199219 C 33.851562 20.199219 33.4375 20.289062 33.046875 20.472656 C 32.703125 20.632812 32.363281 20.867188 32.03125 21.175781 L 32.03125 17.164062 C 32.03125 17.09375 32.011719 17.023438 31.964844 16.964844 C 31.921875 16.910156 31.855469 16.863281 31.757812 16.824219 C 31.671875 16.792969 31.558594 16.769531 31.410156 16.75 C 31.273438 16.730469 31.09375 16.722656 30.886719 16.722656 C 30.675781 16.722656 30.496094 16.730469 30.359375 16.75 C 30.210938 16.769531 30.097656 16.792969 30.011719 16.824219 C 29.917969 16.863281 29.847656 16.90625 29.804688 16.964844 C 29.761719 17.023438 29.738281 17.09375 29.738281 17.164062 L 29.738281 28.332031 C 29.738281 28.410156 29.761719 28.472656 29.808594 28.53125 C 29.851562 28.585938 29.917969 28.628906 30.015625 28.660156 C 30.105469 28.691406 30.21875 28.714844 30.359375 28.730469 C 30.503906 28.742188 30.679688 28.75 30.886719 28.75 C 31.085938 28.75 31.265625 28.742188 31.410156 28.730469 C 31.550781 28.714844 31.664062 28.691406 31.753906 28.660156 C 31.847656 28.625 31.921875 28.585938 31.964844 28.527344 C 32.011719 28.472656 32.03125 28.410156 32.03125 28.332031 L 32.03125 23.324219 C 32.320312 22.960938 32.601562 22.679688 32.867188 22.492188 C 33.128906 22.304688 33.390625 22.210938 33.644531 22.210938 C 33.84375 22.210938 34.023438 22.25 34.175781 22.324219 C 34.324219 22.398438 34.449219 22.507812 34.539062 22.648438 C 34.636719 22.789062 34.710938 22.960938 34.765625 23.160156 C 34.820312 23.367188 34.84375 23.652344 34.84375 24.011719 L 34.84375 28.332031 C 34.84375 28.410156 34.867188 28.472656 34.910156 28.527344 C 34.953125 28.582031 35.019531 28.625 35.113281 28.660156 C 35.199219 28.691406 35.316406 28.714844 35.460938 28.730469 C 35.609375 28.742188 35.785156 28.75 35.988281 28.75 C 36.1875 28.75 36.363281 28.742188 36.511719 28.730469 C 36.652344 28.714844 36.769531 28.691406 36.855469 28.660156 C 36.949219 28.625 37.015625 28.585938 37.058594 28.527344 C 37.105469 28.472656 37.125 28.410156 37.125 28.332031 L 37.125 23.6875 C 37.125 23.125 37.078125 22.636719 36.980469 22.238281 C 36.882812 21.835938 36.71875 21.480469 36.496094 21.179688 " fill-opacity="1" fill-rule="nonzero"/><path fill="#e5f92d" d="M 44.96875 20.976562 C 44.960938 20.839844 44.953125 20.753906 44.941406 20.699219 C 44.933594 20.632812 44.917969 20.582031 44.902344 20.539062 C 44.882812 20.496094 44.855469 20.457031 44.8125 20.417969 C 44.773438 20.386719 44.714844 20.355469 44.640625 20.324219 C 44.558594 20.296875 44.476562 20.273438 44.390625 20.253906 C 44.300781 20.234375 44.207031 20.21875 44.121094 20.210938 C 43.875 20.183594 43.621094 20.199219 43.378906 20.261719 C 43.214844 20.308594 43.046875 20.386719 42.878906 20.5 C 42.71875 20.609375 42.546875 20.761719 42.367188 20.945312 C 42.230469 21.089844 42.085938 21.265625 41.9375 21.464844 L 41.9375 20.757812 C 41.9375 20.683594 41.921875 20.621094 41.882812 20.566406 C 41.847656 20.511719 41.789062 20.46875 41.707031 20.433594 C 41.640625 20.402344 41.542969 20.378906 41.410156 20.363281 C 41.289062 20.347656 41.132812 20.339844 40.953125 20.339844 C 40.777344 20.339844 40.628906 20.347656 40.503906 20.363281 C 40.378906 20.378906 40.28125 20.402344 40.203125 20.433594 C 40.113281 20.464844 40.050781 20.511719 40.011719 20.566406 C 39.976562 20.621094 39.960938 20.6875 39.960938 20.757812 L 39.960938 28.332031 C 39.960938 28.410156 39.980469 28.472656 40.027344 28.53125 C 40.070312 28.585938 40.140625 28.628906 40.234375 28.660156 C 40.324219 28.691406 40.441406 28.714844 40.578125 28.730469 C 40.722656 28.742188 40.902344 28.75 41.105469 28.75 C 41.308594 28.75 41.488281 28.742188 41.632812 28.730469 C 41.769531 28.714844 41.886719 28.691406 41.976562 28.660156 C 42.070312 28.628906 42.140625 28.585938 42.183594 28.527344 C 42.230469 28.472656 42.253906 28.410156 42.253906 28.332031 L 42.253906 23.632812 C 42.402344 23.398438 42.546875 23.195312 42.683594 23.03125 C 42.816406 22.863281 42.945312 22.730469 43.070312 22.636719 C 43.191406 22.539062 43.308594 22.464844 43.417969 22.421875 C 43.621094 22.335938 43.839844 22.34375 44.011719 22.382812 C 44.09375 22.402344 44.167969 22.421875 44.238281 22.441406 L 44.300781 22.464844 C 44.34375 22.480469 44.386719 22.492188 44.425781 22.507812 C 44.582031 22.5625 44.699219 22.550781 44.789062 22.484375 C 44.84375 22.445312 44.878906 22.382812 44.90625 22.292969 C 44.933594 22.214844 44.949219 22.105469 44.960938 21.96875 C 44.972656 21.828125 44.980469 21.660156 44.980469 21.464844 C 44.980469 21.257812 44.976562 21.09375 44.96875 20.976562 " fill-opacity="1" fill-rule="nonzero"/><g clip-path="url(#6abd160173)"><path fill="#e5f92d" d="M 38.359375 32.601562 L 34.855469 32.601562 C 34.746094 32.601562 34.644531 32.65625 34.585938 32.75 C 32.238281 36.367188 28.625 38.871094 24.410156 39.808594 C 20.132812 40.761719 15.746094 39.992188 12.050781 37.636719 C 4.417969 32.785156 2.160156 22.632812 7.011719 15.007812 C 11.652344 7.710938 21.132812 5.324219 28.625 9.367188 L 27.25 11.375 C 27.089844 11.609375 27.257812 11.921875 27.535156 11.921875 L 35.085938 11.882812 C 35.328125 11.882812 35.496094 11.636719 35.410156 11.410156 L 32.722656 4.355469 C 32.625 4.09375 32.269531 4.050781 32.113281 4.28125 L 30.707031 6.335938 C 21.488281 1.125 9.667969 4.003906 3.917969 13.039062 C 0.914062 17.761719 0.0195312 23.414062 1.433594 28.871094 C 2.628906 33.464844 5.453125 37.53125 9.351562 40.246094 C 12.785156 42.636719 16.753906 43.875 20.804688 43.875 C 22.273438 43.875 23.746094 43.710938 25.207031 43.386719 C 30.4375 42.226562 34.902344 39.09375 37.78125 34.570312 L 38.640625 33.089844 C 38.769531 32.875 38.613281 32.601562 38.359375 32.601562 " fill-opacity="1" fill-rule="nonzero"/></g></svg>