<svg xmlns="http://www.w3.org/2000/svg" xmlns:xlink="http://www.w3.org/1999/xlink" width="60" zoomAndPan="magnify" viewBox="0 0 45 44.999999" height="60" preserveAspectRatio="xMidYMid meet" version="1.0"><defs><g/><clipPath id="aff336b0c3"><path d="M 0 18.503906 L 30 18.503906 L 30 44.753906 L 0 44.753906 Z M 0 18.503906 " clip-rule="nonzero"/></clipPath><clipPath id="e5f602a14d"><path d="M 18 3.148438 L 44.765625 3.148438 L 44.765625 27.148438 L 18 27.148438 Z M 18 3.148438 " clip-rule="nonzero"/></clipPath></defs><g clip-path="url(#aff336b0c3)"><path fill="#e5f92d" d="M 14.996094 18.507812 C 11.066406 18.507812 7.355469 19.707031 4.542969 21.886719 C 3.140625 22.976562 2.03125 24.257812 1.25 25.691406 C 0.421875 27.207031 0 28.828125 0 30.5 C 0 32.261719 0.464844 33.957031 1.378906 35.542969 C 2.238281 37.035156 3.453125 38.347656 4.984375 39.445312 C 5.089844 39.519531 5.195312 39.59375 5.304688 39.664062 C 4.960938 40.429688 4.414062 41.175781 3.660156 41.890625 C 3.078125 42.445312 2.976562 43.332031 3.414062 44.003906 C 3.734375 44.488281 4.273438 44.761719 4.828125 44.761719 C 5.042969 44.761719 5.257812 44.71875 5.464844 44.636719 C 5.625 44.570312 9.074219 43.171875 11.09375 42.085938 C 12.367188 42.359375 13.675781 42.496094 14.996094 42.496094 C 18.925781 42.496094 22.636719 41.296875 25.445312 39.117188 C 26.851562 38.027344 27.960938 36.746094 28.738281 35.3125 C 29.566406 33.792969 29.988281 32.175781 29.988281 30.5 C 29.988281 28.828125 29.566406 27.207031 28.738281 25.691406 C 27.960938 24.257812 26.851562 22.976562 25.445312 21.886719 C 22.636719 19.707031 18.925781 18.507812 14.996094 18.507812 Z M 14.996094 20.175781 C 22.347656 20.175781 28.304688 24.796875 28.304688 30.5 C 28.304688 36.207031 22.347656 40.828125 14.996094 40.828125 C 13.542969 40.828125 12.144531 40.644531 10.835938 40.3125 C 9.109375 41.359375 4.828125 43.09375 4.828125 43.09375 C 6.410156 41.585938 7.0625 40.117188 7.292969 38.921875 C 6.832031 38.667969 6.386719 38.390625 5.972656 38.09375 C 3.335938 36.207031 1.683594 33.503906 1.683594 30.5 C 1.683594 24.796875 7.644531 20.175781 14.996094 20.175781 " fill-opacity="1" fill-rule="nonzero"/></g><g clip-path="url(#e5f602a14d)"><path fill="#e5f92d" d="M 31.503906 3.152344 C 35.039062 3.152344 38.375 4.25 40.902344 6.242188 C 42.167969 7.242188 43.164062 8.410156 43.867188 9.71875 C 44.613281 11.109375 44.988281 12.589844 44.988281 14.121094 C 44.988281 15.730469 44.574219 17.28125 43.75 18.726562 C 42.976562 20.09375 41.886719 21.292969 40.507812 22.296875 C 40.414062 22.363281 40.316406 22.433594 40.21875 22.5 C 40.527344 23.195312 41.023438 23.878906 41.699219 24.535156 C 42.222656 25.042969 42.3125 25.851562 41.917969 26.464844 C 41.628906 26.90625 41.148438 27.15625 40.648438 27.15625 C 40.457031 27.15625 40.261719 27.121094 40.074219 27.042969 C 39.929688 26.984375 36.828125 25.703125 35.011719 24.710938 C 33.867188 24.960938 32.691406 25.085938 31.503906 25.085938 C 27.96875 25.085938 24.628906 23.988281 22.101562 21.996094 C 20.839844 21 19.839844 19.828125 19.140625 18.519531 C 18.394531 17.128906 18.015625 15.648438 18.015625 14.121094 C 18.015625 12.589844 18.394531 11.109375 19.140625 9.71875 C 19.839844 8.410156 20.839844 7.242188 22.101562 6.242188 C 24.628906 4.25 27.96875 3.152344 31.503906 3.152344 Z M 31.503906 4.675781 C 24.890625 4.675781 19.53125 8.90625 19.53125 14.121094 C 19.53125 19.335938 24.890625 23.5625 31.503906 23.5625 C 32.808594 23.5625 34.066406 23.394531 35.246094 23.089844 C 36.796875 24.046875 40.648438 25.632812 40.648438 25.632812 C 39.222656 24.253906 38.636719 22.910156 38.429688 21.820312 C 38.847656 21.585938 39.246094 21.332031 39.617188 21.0625 C 41.988281 19.335938 43.476562 16.863281 43.476562 14.121094 C 43.476562 8.90625 38.113281 4.675781 31.503906 4.675781 " fill-opacity="1" fill-rule="nonzero"/></g><g fill="#e5f92d" fill-opacity="1"><g transform="translate(9.752028, 36.51997)"><g><path d="M 3.625 -4.0625 L 3.625 -6.734375 C 4.5 -6.765625 5.191406 -6.910156 5.703125 -7.171875 C 6.210938 -7.441406 6.46875 -7.910156 6.46875 -8.578125 L 6.46875 -8.828125 C 6.46875 -9.316406 6.320312 -9.664062 6.03125 -9.875 C 5.75 -10.082031 5.398438 -10.1875 4.984375 -10.1875 C 4.503906 -10.1875 4.113281 -10.046875 3.8125 -9.765625 C 3.507812 -9.492188 3.300781 -9.140625 3.1875 -8.703125 L 1.0625 -9.59375 C 1.164062 -9.9375 1.316406 -10.273438 1.515625 -10.609375 C 1.722656 -10.941406 1.988281 -11.238281 2.3125 -11.5 C 2.644531 -11.757812 3.035156 -11.96875 3.484375 -12.125 C 3.941406 -12.289062 4.472656 -12.375 5.078125 -12.375 C 5.691406 -12.375 6.25 -12.285156 6.75 -12.109375 C 7.257812 -11.941406 7.691406 -11.703125 8.046875 -11.390625 C 8.410156 -11.078125 8.691406 -10.695312 8.890625 -10.25 C 9.085938 -9.8125 9.1875 -9.332031 9.1875 -8.8125 C 9.1875 -8.320312 9.101562 -7.875 8.9375 -7.46875 C 8.769531 -7.070312 8.539062 -6.722656 8.25 -6.421875 C 7.96875 -6.128906 7.640625 -5.890625 7.265625 -5.703125 C 6.890625 -5.515625 6.488281 -5.382812 6.0625 -5.3125 L 6.0625 -4.0625 Z M 4.875 0.203125 C 4.257812 0.203125 3.820312 0.0703125 3.5625 -0.1875 C 3.300781 -0.457031 3.171875 -0.78125 3.171875 -1.15625 L 3.171875 -1.703125 C 3.171875 -2.078125 3.300781 -2.394531 3.5625 -2.65625 C 3.820312 -2.914062 4.257812 -3.046875 4.875 -3.046875 C 5.5 -3.046875 5.941406 -2.910156 6.203125 -2.640625 C 6.472656 -2.378906 6.609375 -2.066406 6.609375 -1.703125 L 6.609375 -1.15625 C 6.609375 -0.78125 6.476562 -0.457031 6.21875 -0.1875 C 5.957031 0.0703125 5.507812 0.203125 4.875 0.203125 Z M 4.875 0.203125 "/></g></g></g><g fill="#e5f92d" fill-opacity="1"><g transform="translate(22.681878, 17.372744)"><g><path d="M 5.546875 0 L 0.53125 0 L 0.53125 -1.375 L 2.734375 -3.203125 C 3.109375 -3.523438 3.378906 -3.804688 3.546875 -4.046875 C 3.710938 -4.285156 3.796875 -4.539062 3.796875 -4.8125 L 3.796875 -4.90625 C 3.796875 -5.195312 3.707031 -5.414062 3.53125 -5.5625 C 3.363281 -5.71875 3.132812 -5.796875 2.84375 -5.796875 C 2.507812 -5.796875 2.25 -5.695312 2.0625 -5.5 C 1.882812 -5.3125 1.757812 -5.082031 1.6875 -4.8125 L 0.375 -5.3125 C 0.457031 -5.5625 0.566406 -5.789062 0.703125 -6 C 0.847656 -6.21875 1.023438 -6.40625 1.234375 -6.5625 C 1.453125 -6.726562 1.707031 -6.859375 2 -6.953125 C 2.289062 -7.046875 2.617188 -7.09375 2.984375 -7.09375 C 3.367188 -7.09375 3.707031 -7.039062 4 -6.9375 C 4.300781 -6.832031 4.554688 -6.6875 4.765625 -6.5 C 4.972656 -6.3125 5.128906 -6.085938 5.234375 -5.828125 C 5.347656 -5.578125 5.40625 -5.300781 5.40625 -5 C 5.40625 -4.707031 5.351562 -4.4375 5.25 -4.1875 C 5.15625 -3.945312 5.019531 -3.71875 4.84375 -3.5 C 4.675781 -3.289062 4.476562 -3.085938 4.25 -2.890625 C 4.019531 -2.691406 3.773438 -2.492188 3.515625 -2.296875 L 2.1875 -1.265625 L 5.546875 -1.265625 Z M 5.546875 0 "/></g></g></g><g fill="#e5f92d" fill-opacity="1"><g transform="translate(28.679508, 17.372744)"><g><path d="M 3.390625 0 L 3.390625 -1.34375 L 0.25 -1.34375 L 0.25 -2.625 L 3.03125 -6.984375 L 4.828125 -6.984375 L 4.828125 -2.5 L 5.734375 -2.5 L 5.734375 -1.34375 L 4.828125 -1.34375 L 4.828125 0 Z M 1.453125 -2.5 L 3.390625 -2.5 L 3.390625 -5.4375 L 3.296875 -5.4375 Z M 1.453125 -2.5 "/></g></g></g><g fill="#e5f92d" fill-opacity="1"><g transform="translate(34.677139, 17.372744)"><g><path d="M 0.65625 -7.40625 L 2.125 -7.40625 L 2.125 -4.21875 L 2.1875 -4.21875 C 2.25 -4.363281 2.320312 -4.5 2.40625 -4.625 C 2.5 -4.75 2.601562 -4.859375 2.71875 -4.953125 C 2.84375 -5.054688 2.988281 -5.132812 3.15625 -5.1875 C 3.320312 -5.25 3.503906 -5.28125 3.703125 -5.28125 C 3.953125 -5.28125 4.179688 -5.238281 4.390625 -5.15625 C 4.597656 -5.070312 4.773438 -4.945312 4.921875 -4.78125 C 5.066406 -4.613281 5.179688 -4.410156 5.265625 -4.171875 C 5.347656 -3.929688 5.390625 -3.65625 5.390625 -3.34375 L 5.390625 0 L 3.90625 0 L 3.90625 -3.140625 C 3.90625 -3.804688 3.617188 -4.140625 3.046875 -4.140625 C 2.929688 -4.140625 2.816406 -4.125 2.703125 -4.09375 C 2.597656 -4.0625 2.5 -4.015625 2.40625 -3.953125 C 2.320312 -3.890625 2.253906 -3.8125 2.203125 -3.71875 C 2.148438 -3.625 2.125 -3.515625 2.125 -3.390625 L 2.125 0 L 0.65625 0 Z M 0.65625 -7.40625 "/></g></g></g></svg>